<svg width="42" height="41" viewBox="0 0 42 41" fill="none" xmlns="http://www.w3.org/2000/svg">
<circle cx="20.3015" cy="20.6863" r="14.721" fill="#ED4C4C"/>
<circle cx="32.8094" cy="8.17854" r="1.25081" fill="#FF8E8E"/>
<circle cx="36.658" cy="25.1121" r="1.25081" fill="#FF8E8E"/>
<circle cx="15.1059" cy="3.55989" r="1.25081" fill="#FF8E8E"/>
<circle cx="2.98274" cy="16.2606" r="1.25081" fill="#FF8E8E"/>
<circle cx="7.6009" cy="33.1947" r="1.25081" fill="#FF8E8E"/>
<circle cx="24.3426" cy="37.4281" r="1.25081" fill="#FF8E8E"/>
<circle cx="33.2099" cy="34.7495" r="1.81954" transform="rotate(15 33.2099 34.7495)" fill="#ED4C4C"/>
<circle cx="38.7904" cy="15.8916" r="1.81954" transform="rotate(15 38.7904 15.8916)" fill="#ED4C4C"/>
<circle cx="25.1279" cy="2.22848" r="1.81954" transform="rotate(15 25.1279 2.22848)" fill="#ED4C4C"/>
<circle cx="6.07714" cy="7.42428" r="1.81954" transform="rotate(15 6.07714 7.42428)" fill="#ED4C4C"/>
<circle cx="2.22851" cy="25.705" r="1.81954" transform="rotate(15 2.22851 25.705)" fill="#ED4C4C"/>
<circle cx="14.9288" cy="38.5981" r="1.81954" transform="rotate(15 14.9288 38.5981)" fill="#ED4C4C"/>
<rect x="24.2612" y="2.88672" width="0.962158" height="6.15781" rx="0.481079" transform="rotate(14.6217 24.2612 2.88672)" fill="#ED4C4C"/>
<rect x="32.1447" y="8.27441" width="0.962158" height="4.72435" rx="0.481079" transform="rotate(46.0649 32.1447 8.27441)" fill="#FF8E8E"/>
<rect x="37.4321" y="15.7793" width="0.962158" height="6.15781" rx="0.481079" transform="rotate(80.0733 37.4321 15.7793)" fill="#ED4C4C"/>
<rect x="36.4424" y="24.5718" width="0.962158" height="3.47373" rx="0.481079" transform="rotate(100.245 36.4424 24.5718)" fill="#FF8E8E"/>
<rect x="32.8186" y="33.3618" width="0.962158" height="6.15781" rx="0.481079" transform="rotate(139.6 32.8186 33.3618)" fill="#ED4C4C"/>
<rect x="24.8387" y="37.2163" width="0.962158" height="4.25525" rx="0.481079" transform="rotate(168.88 24.8387 37.2163)" fill="#FF8E8E"/>
<rect x="7.99719" y="33.7305" width="0.962158" height="4.6971" rx="0.481079" transform="rotate(-135.365 7.99719 33.7305)" fill="#FF8E8E"/>
<rect x="2.69397" y="16.7148" width="0.962158" height="4.70498" rx="0.481079" transform="rotate(-76.5227 2.69397 16.7148)" fill="#FF8E8E"/>
<rect x="14.6248" y="3.08447" width="0.962158" height="6.15781" rx="0.481079" transform="rotate(-11.8719 14.6248 3.08447)" fill="#FF8E8E"/>
<rect width="1.84362" height="6.08604" rx="0.921811" transform="matrix(0.963464 0.267838 0.267838 -0.963464 14.2809 38.186)" fill="#ED4C4C"/>
<rect width="1.84362" height="6.08604" rx="0.921811" transform="matrix(0.329272 0.944235 0.944235 -0.329272 2.30896 24.7109)" fill="#ED4C4C"/>
<rect width="1.84362" height="6.08604" rx="0.921811" transform="matrix(-0.693263 0.720684 0.720684 0.693263 7.24365 6.92773)" fill="#ED4C4C"/>
<circle opacity="0.2" cx="26.7479" cy="17.5112" r="1.92432" fill="white"/>
<circle opacity="0.2" cx="10.7759" cy="20.5903" r="1.92432" fill="white"/>
<circle opacity="0.2" cx="20.6863" cy="27.614" r="2.98269" fill="white"/>
<circle opacity="0.2" cx="21.5523" cy="20.5902" r="1.34702" fill="white"/>
<circle opacity="0.2" cx="26.7479" cy="26.3631" r="1.34702" fill="white"/>
<circle opacity="0.2" cx="19.7241" cy="13.9511" r="3.75242" fill="white"/>
</svg>
