<svg width="93" height="93" viewBox="0 0 93 93" fill="none" xmlns="http://www.w3.org/2000/svg">
<g opacity="0.3">
<circle cx="46.0286" cy="46.9011" r="33.3762" fill="#567FEA"/>
<circle cx="74.3873" cy="18.5424" r="2.83589" fill="#9CB8FF"/>
<circle cx="83.1131" cy="56.936" r="2.83589" fill="#9CB8FF"/>
<circle cx="34.2489" cy="8.07173" r="2.83589" fill="#9CB8FF"/>
<circle cx="6.76259" cy="36.8667" r="2.83589" fill="#9CB8FF"/>
<circle cx="17.2332" cy="75.2607" r="2.83589" fill="#9CB8FF"/>
<circle cx="55.1908" cy="84.8588" r="2.83589" fill="#9CB8FF"/>
<rect x="72.8799" y="18.7607" width="2.18145" height="10.7113" rx="1.09073" transform="rotate(46.0649 72.8799 18.7607)" fill="#9CB8FF"/>
<rect x="82.6242" y="55.7104" width="2.18145" height="7.87581" rx="1.09073" transform="rotate(100.245 82.6242 55.7104)" fill="#9CB8FF"/>
<rect x="56.3157" y="84.3784" width="2.18145" height="9.64771" rx="1.09073" transform="rotate(168.88 56.3157 84.3784)" fill="#9CB8FF"/>
<rect x="18.1315" y="76.4756" width="2.18145" height="10.6495" rx="1.09073" transform="rotate(-135.365 18.1315 76.4756)" fill="#9CB8FF"/>
<rect x="6.10797" y="37.8975" width="2.18145" height="10.6674" rx="1.09073" transform="rotate(-76.5227 6.10797 37.8975)" fill="#9CB8FF"/>
<rect x="33.158" y="6.99316" width="2.18145" height="13.9613" rx="1.09073" transform="rotate(-11.8719 33.158 6.99316)" fill="#9CB8FF"/>
<circle cx="75.2955" cy="78.7859" r="4.12536" transform="rotate(15 75.2955 78.7859)" fill="#567FEA"/>
<circle cx="87.9475" cy="36.0296" r="4.12536" transform="rotate(15 87.9475 36.0296)" fill="#567FEA"/>
<circle cx="56.9713" cy="5.05251" r="4.12536" transform="rotate(15 56.9713 5.05251)" fill="#567FEA"/>
<circle cx="14.8891" cy="16.6775" r="4.12536" transform="rotate(15 14.8891 16.6775)" fill="#567FEA"/>
<circle cx="5.05251" cy="58.2801" r="4.12536" transform="rotate(15 5.05251 58.2801)" fill="#567FEA"/>
<circle cx="33.8474" cy="87.5115" r="4.12536" transform="rotate(15 33.8474 87.5115)" fill="#567FEA"/>
<rect x="55.0065" y="6.54443" width="2.18145" height="13.9613" rx="1.09073" transform="rotate(14.6217 55.0065 6.54443)" fill="#567FEA"/>
<rect x="84.8679" y="35.7759" width="2.18145" height="13.9613" rx="1.09073" transform="rotate(80.0733 84.8679 35.7759)" fill="#567FEA"/>
<rect x="74.408" y="75.6396" width="2.18145" height="13.9613" rx="1.09073" transform="rotate(139.6 74.408 75.6396)" fill="#567FEA"/>
<rect width="4.17996" height="13.7986" rx="2.08998" transform="matrix(0.963464 0.267838 0.267838 -0.963464 32.3783 86.5771)" fill="#567FEA"/>
<rect width="4.17996" height="13.7986" rx="2.08998" transform="matrix(0.329272 0.944235 0.944235 -0.329272 5.23517 56.0259)" fill="#567FEA"/>
<rect width="4.17996" height="13.7986" rx="2.08998" transform="matrix(-0.693263 0.720684 0.720684 0.693263 16.4232 15.7065)" fill="#567FEA"/>
<circle opacity="0.2" cx="60.6442" cy="39.7023" r="4.36291" fill="white"/>
<circle opacity="0.2" cx="24.4319" cy="46.6832" r="4.36291" fill="white"/>
<circle opacity="0.2" cx="46.9013" cy="62.6077" r="6.76251" fill="white"/>
<circle opacity="0.2" cx="48.8645" cy="46.6834" r="3.05404" fill="white"/>
<circle opacity="0.2" cx="60.6443" cy="59.7718" r="3.05404" fill="white"/>
<circle opacity="0.2" cx="44.7196" cy="31.6312" r="8.50767" fill="white"/>
</g>
</svg>
