<svg width="1440" height="961" viewBox="0 0 1440 961" fill="none" xmlns="http://www.w3.org/2000/svg">
<mask id="mask0" mask-type="alpha" maskUnits="userSpaceOnUse" x="0" y="0" width="1440" height="961">
<rect width="1440" height="961" fill="#C4C4C4"/>
</mask>
<g mask="url(#mask0)">
<path fill-rule="evenodd" clip-rule="evenodd" d="M-165 152.524C31.9331 36.5613 566.751 -122.188 1130.56 170.518C1208.53 206.507 1365.08 298.877 1367.48 380.451C1374.48 400.444 1378.2 456.573 1256 558C1056 724 529.565 1019.84 -147.005 950.267L-165 152.524ZM171.304 211.177C120.069 209.115 75.5767 246.14 68.2955 296.896L33.7224 537.904C24.7774 600.258 75.017 655.253 137.924 651.968L607.441 627.449C652.368 625.103 690.197 593.045 699.882 549.112L743.36 351.881C756.764 291.077 711.94 232.938 649.727 230.434L171.304 211.177Z" fill="#F3F8FF"/>
<path fill-rule="evenodd" clip-rule="evenodd" d="M74.5535 114.556C20.1829 104.86 -31.7535 141.076 -41.4494 195.447L-100.444 526.259C-110.14 580.63 -73.9237 632.566 -19.553 642.262L524.088 739.21C578.459 748.906 630.395 712.69 640.091 658.32L647.504 616.754C635.321 622.945 621.741 626.702 607.441 627.449L137.924 651.968C75.0169 655.253 24.7773 600.258 33.7222 537.904L68.2954 296.897C75.5766 246.14 120.069 209.115 171.304 211.177L649.727 230.434C654.297 230.618 658.774 231.102 663.141 231.866C650.516 221.742 635.248 214.545 618.195 211.504L74.5535 114.556Z" fill="url(#paint0_linear)"/>
<g opacity="0.3">
<rect width="27" height="105" rx="13.5" transform="matrix(-1 0 0 1 525.073 0)" fill="#567FEA"/>
<rect width="27" height="105" rx="13.5" transform="matrix(4.39555e-08 -1 -1 -4.34686e-08 564.073 66)" fill="#567FEA"/>
</g>
<rect x="1245" y="199" width="10" height="38" rx="5" fill="#4CE1C6"/>
<rect x="1231" y="223" width="10" height="38" rx="5" transform="rotate(-90 1231 223)" fill="#4CE1C6"/>
</g>
<defs>
<linearGradient id="paint0_linear" x1="801.842" y1="279.93" x2="-72.5183" y2="540.772" gradientUnits="userSpaceOnUse">
<stop stop-color="#7EEFFF" stop-opacity="0.14"/>
<stop offset="1" stop-color="#567FEA"/>
</linearGradient>
</defs>
</svg>
