<?xml version="1.0" encoding="UTF-8"?>
<svg width="830px" height="663px" viewBox="0 0 830 663" xmlns="http://www.w3.org/2000/svg" xmlns:xlink="http://www.w3.org/1999/xlink" version="1.1">
 <!-- Generated by Pixelmator Pro 1.1.2 -->
 <path id="path" d="M830 0 L0 0 0 663 830 663 830 0 Z M74.607 305.366 C93.094 180.84 203.092 -37.774 522.917 83.986 631.529 138.562 869.549 290.843 640.772 441.423 604.568 465.253 510.208 519.49 439.726 556.726 413.536 570.562 353.761 602.847 324.182 621.295 240.99 660.498 139.311 672.951 93.094 556.726 73.066 499.074 61.426 406.833 74.607 305.366 Z" fill="#ffffff" fill-opacity="1" stroke="none"/>
 <defs>
  <linearGradient id="linear-gradient" gradientUnits="userSpaceOnUse" x1="337.795" y1="742.693" x2="725.871" y2="-25.689">
   <stop offset="0" stop-color="#5ac4d3" stop-opacity="0.68"/>
   <stop offset="1" stop-color="#59ecb7" stop-opacity="0"/>
  </linearGradient>
 </defs>
 <path id="path-1" d="M222.116 78.557 C297.8 5.138 421.659 -34.407 615.313 39.415 735.026 99.649 997.38 267.716 745.214 433.906 705.31 460.205 601.304 520.065 523.618 561.161 494.751 576.431 428.867 612.063 396.264 632.423 337.027 660.375 269.285 676.005 215.015 648.982 251.011 649.516 289.228 637.767 324.182 621.295 353.761 602.847 413.536 570.562 439.726 556.726 510.208 519.49 604.569 465.253 640.772 441.423 869.55 290.843 631.529 138.562 522.917 83.986 388.528 32.823 291.187 41.758 222.116 78.557 Z" fill-opacity="1" fill="url(#linear-gradient)" stroke="none"/>
 <path id="path-2" d="M732.912 64.527 L732.912 81.687 C732.912 84.651 730.509 87.054 727.545 87.054 L727.545 87.054 C724.58 87.054 722.177 84.651 722.177 81.687 L722.177 47.368 C722.177 44.403 724.58 42 727.545 42 L727.545 42 C730.509 42 732.912 44.403 732.912 47.368 Z" fill="#567fea" fill-opacity="1" stroke="none"/>
 <path id="path-3" d="M727.544 59.164 L744.725 59.164 C747.688 59.164 750.089 61.565 750.089 64.527 L750.089 64.528 C750.089 67.49 747.688 69.891 744.725 69.891 L710.364 69.891 C707.401 69.891 705 67.49 705 64.528 L705 64.527 C705 61.565 707.401 59.164 710.364 59.164 Z" fill="#567fea" fill-opacity="1" stroke="none"/>
</svg>
