<svg width="30" height="30" viewBox="0 0 30 30" fill="none" xmlns="http://www.w3.org/2000/svg">
<path d="M14.8487 24.5035C20.0426 24.5035 24.2531 20.2495 24.2531 15.002C24.2531 9.75446 20.0426 5.50049 14.8487 5.50049C9.65483 5.50049 5.44434 9.75446 5.44434 15.002C5.44434 20.2495 9.65483 24.5035 14.8487 24.5035Z" fill="#5AD3C0"/>
<path d="M2.39044 30C1.68879 30 1.07989 29.8137 0.633088 29.3624C-1.8123 26.8921 3.49803 19.5423 5.18375 17.3485C5.36115 17.1181 5.68902 17.0769 5.91709 17.2554C6.14485 17.434 6.18618 17.7659 6.00954 17.996C1.46041 23.9157 0.416805 27.6506 1.37209 28.6158C2.27932 29.5327 5.07094 28.407 7.38117 27.0486C10.6491 25.1266 14.4688 22.0275 18.1359 18.3225C21.8031 14.6171 24.8705 10.7585 26.7728 7.45666C28.1174 5.12273 29.2311 2.30212 28.324 1.38569C27.3713 0.423318 23.6829 1.47151 17.8384 6.05061C17.6107 6.22907 17.2823 6.18763 17.1053 5.95689C16.9282 5.72647 16.9697 5.39506 17.1978 5.21629C19.364 3.51888 26.6221 -1.82664 29.0624 0.639205C30.5496 2.14175 29.1293 5.46465 27.6753 7.98787C25.7291 11.366 22.6035 15.3014 18.8743 19.0689C15.1455 22.8366 11.2499 25.9945 7.90665 27.9608C6.1597 28.9886 4.02473 29.9997 2.39044 30Z" fill="#4A4A4A"/>
<path d="M27.9111 8.1371C29.0653 8.1371 30.0009 7.19179 30.0009 6.0257C30.0009 4.85961 29.0653 3.91431 27.9111 3.91431C26.7569 3.91431 25.8213 4.85961 25.8213 6.0257C25.8213 7.19179 26.7569 8.1371 27.9111 8.1371Z" fill="#567FEA"/>
<path d="M1.78609 12.3617C1.49771 12.3617 1.26367 12.1253 1.26367 11.8339V9.72239C1.26367 9.43104 1.49771 9.19458 1.78609 9.19458C2.07446 9.19458 2.3085 9.43104 2.3085 9.72239V11.8338C2.3085 12.1253 2.07446 12.3617 1.78609 12.3617Z" fill="#4A4A4A"/>
<path d="M2.83016 11.3056H0.740189C0.451812 11.3056 0.217773 11.0692 0.217773 10.7778C0.217773 10.4865 0.451812 10.25 0.740189 10.25H2.83C3.11838 10.25 3.35242 10.4865 3.35242 10.7778C3.35257 11.0692 3.11853 11.3056 2.83016 11.3056Z" fill="#4A4A4A"/>
<path d="M27.3867 22.3909C27.0983 22.3909 26.8643 22.1544 26.8643 21.8631V19.7517C26.8643 19.4603 27.0983 19.2239 27.3867 19.2239C27.675 19.2239 27.9091 19.4603 27.9091 19.7517V21.8631C27.9092 22.1544 27.6752 22.3909 27.3867 22.3909Z" fill="#4A4A4A"/>
<path d="M28.4306 21.3352H26.3408C26.0524 21.3352 25.8184 21.0987 25.8184 20.8074C25.8184 20.516 26.0524 20.2795 26.3408 20.2795H28.4306C28.719 20.2795 28.953 20.516 28.953 20.8074C28.953 21.0987 28.719 21.3352 28.4306 21.3352Z" fill="#4A4A4A"/>
</svg>
