<svg width="30" height="30" viewBox="0 0 30 30" fill="none" xmlns="http://www.w3.org/2000/svg">
<mask id="mask0" mask-type="alpha" maskUnits="userSpaceOnUse" x="0" y="0" width="30" height="30">
<rect width="30" height="30" fill="#C4C4C4"/>
</mask>
<g mask="url(#mask0)">
<path d="M7.7998 1.73077C7.7998 0.774891 8.5747 0 9.53057 0H19.9152C20.8711 0 21.646 0.774891 21.646 1.73077C21.646 2.68665 20.8711 3.46154 19.9152 3.46154H18.7613V25.9615C18.7613 28.1919 16.9533 30 14.7229 30C12.4925 30 10.6844 28.1919 10.6844 25.9615V3.46154H9.53057C8.5747 3.46154 7.7998 2.68665 7.7998 1.73077Z" fill="#E8EDF9"/>
<path d="M10.6846 15H18.7615V25.9615C18.7615 28.1919 16.9534 30 14.723 30C12.4927 30 10.6846 28.1919 10.6846 25.9615V15Z" fill="#5AD3C0"/>
<path fill-rule="evenodd" clip-rule="evenodd" d="M10.6851 5.76904H15.012C15.4899 5.76904 15.8774 6.15649 15.8774 6.63443C15.8774 7.11237 15.4899 7.49981 15.012 7.49981H10.6851V5.76904ZM10.6846 9.80771H15.0115C15.4894 9.80771 15.8769 10.1952 15.8769 10.6731C15.8769 11.151 15.4894 11.5385 15.0115 11.5385H10.6846V9.80771ZM15.0115 13.8463H10.6846V15.5771H15.0115C15.4894 15.5771 15.8769 15.1896 15.8769 14.7117C15.8769 14.2337 15.4894 13.8463 15.0115 13.8463Z" fill="#4A4A4A"/>
<g style="mix-blend-mode:multiply" opacity="0.5">
<path fill-rule="evenodd" clip-rule="evenodd" d="M14.7236 30C14.7237 30 14.7237 30 14.7237 30C16.9541 30 18.7622 28.1919 18.7622 25.9615V3.46154H19.916C20.8719 3.46154 21.6468 2.68665 21.6468 1.73077C21.6468 0.774891 20.8719 0 19.916 0H14.7236V30Z" fill="#DEE6F8"/>
</g>
<rect x="7.7998" width="13.8462" height="3.46154" rx="1.73077" fill="#D9E1F6"/>
</g>
</svg>
