<svg width="124" height="18" viewBox="0 0 124 18" fill="none" xmlns="http://www.w3.org/2000/svg">
<path fill-rule="evenodd" clip-rule="evenodd" d="M22.4999 4.51886C22.8566 4.51886 23.203 4.56199 23.5362 4.64106C23.5665 4.64146 23.5948 4.64186 23.6184 4.64186V3.91022H15.1124C14.9392 4.16102 14.7784 4.42101 14.6307 4.68939H21.2789C21.6667 4.57916 22.0761 4.51886 22.4999 4.51886V4.51886ZM10.3621 13.3013C10.3078 13.3185 10.2336 13.3313 10.1454 13.3421C9.77749 13.4395 9.39083 13.4922 8.99221 13.4922C8.60715 13.4922 8.23326 13.4439 7.87614 13.3524C7.86576 13.3524 7.85339 13.3521 7.84422 13.3521L7.74725 14.0809H16.452C16.6235 13.8293 16.784 13.5701 16.93 13.3013H10.3621ZM13.0748 10.9637H17.8028C17.8599 10.7081 17.9058 10.4485 17.9401 10.1845H13.3661C13.2927 10.4557 13.1949 10.7165 13.0748 10.9637V10.9637ZM13.7444 7.02676C13.6865 7.28316 13.6399 7.54275 13.6043 7.80633H18.1831C18.2582 7.53516 18.3579 7.27477 18.48 7.02676H13.7444ZM18.862 0.793945C18.3708 1.0132 17.9023 1.27319 17.4622 1.57272H22.5174V0.793945H18.862ZM16.4699 2.35236C16.2017 2.59597 15.9503 2.85716 15.7137 3.13153H22.5135V2.35236H16.4699ZM14.1219 16.4184H9.02716V17.1976H12.7445C13.2281 16.9775 13.689 16.7172 14.1219 16.4184V16.4184ZM14.2519 5.46863C14.1429 5.72223 14.0464 5.98222 13.9606 6.2478H18.9743C19.201 5.95706 19.4627 5.69547 19.7528 5.46863H14.2519ZM12.5932 11.7435C12.3705 12.033 12.1132 12.2946 11.8279 12.5226H17.3061C17.4138 12.2686 17.5092 12.0087 17.5941 11.7435H12.5932ZM15.8517 14.8597C15.6167 15.1341 15.3661 15.3949 15.1004 15.6389H9.02723L8.72916 14.8597H15.8517Z" fill="#5AD3C0"/>
<path fill-rule="evenodd" clip-rule="evenodd" d="M22.4978 0C21.2967 0 20.1511 0.236028 19.1041 0.663753C21.007 1.43973 22.5852 2.84871 23.5759 4.63109C25.538 5.11473 26.9936 6.88673 26.9936 9.0002C26.9936 11.4851 24.9809 13.5003 22.4978 13.5003C20.0147 13.5003 18.0016 11.4851 18.0016 9.0002H17.984C17.984 4.02964 13.9583 0 8.99241 0C4.02615 0 0 4.02964 0 9.0002C0 13.9708 4.02615 18 8.99241 18C10.1815 18 11.3159 17.768 12.3554 17.3486C10.4317 16.5723 8.83799 15.1513 7.84242 13.3517C5.91633 12.8425 4.49581 11.0881 4.49581 9.0002C4.49581 6.51492 6.50888 4.4997 8.99241 4.4997C11.4751 4.4997 13.4882 6.51492 13.4882 9.0002H13.5058C13.5058 13.9708 17.5319 18 22.4978 18C27.4636 18 31.4898 13.9708 31.4898 9.0002C31.4898 4.02964 27.4636 0 22.4978 0" fill="#4CE1C6"/>
<path fill-rule="evenodd" clip-rule="evenodd" d="M47.0825 11.9535C47.0825 12.4412 47.0272 12.9522 46.9166 13.4864C46.8059 14.0206 46.6022 14.5112 46.3053 14.9583C46.0084 15.4054 45.595 15.7741 45.0653 16.0644C44.5355 16.3548 43.8514 16.4999 43.0131 16.4999C41.9652 16.4999 41.092 16.2299 40.3934 15.6899C39.6948 15.1499 39.229 14.4561 38.9962 13.6083L41.6334 12.7199C41.7149 13.0451 41.8633 13.3064 42.0787 13.5038C42.2941 13.7012 42.559 13.7999 42.8734 13.7999C43.3624 13.7999 43.6855 13.6315 43.8427 13.2948C43.9999 12.958 44.0785 12.5167 44.0785 11.9709V3.83606H47.0825V11.9535ZM52.5147 4.7243C52.5147 4.94494 52.4711 5.15107 52.3837 5.34268C52.2964 5.53429 52.18 5.69978 52.0344 5.83913C51.8889 5.97849 51.7142 6.08881 51.5105 6.1701C51.3067 6.25139 51.0942 6.29203 50.873 6.29203C50.4073 6.29203 50.0172 6.13817 49.7028 5.83042C49.3885 5.52268 49.2313 5.15397 49.2313 4.7243C49.2313 4.51526 49.272 4.31494 49.3535 4.12333C49.4351 3.93171 49.5515 3.76623 49.7028 3.62688C49.8542 3.48752 50.0289 3.3743 50.2268 3.2872C50.4247 3.2001 50.6401 3.15656 50.873 3.15656C51.0942 3.15656 51.3067 3.1972 51.5105 3.27849C51.7142 3.35978 51.8889 3.4701 52.0344 3.60946C52.18 3.74881 52.2964 3.9143 52.3837 4.10591C52.4711 4.29752 52.5147 4.50365 52.5147 4.7243ZM49.4422 16.1688V7.49396H52.3065V16.1688H49.4422ZM63.7976 11.7965C63.7976 12.5049 63.6695 13.1465 63.4134 13.7213C63.1572 14.2961 62.8079 14.7839 62.3655 15.1845C61.923 15.5852 61.4107 15.8958 60.8286 16.1165C60.2464 16.3371 59.6235 16.4474 58.9598 16.4474C58.3078 16.4474 57.6878 16.3371 57.0998 16.1165C56.5118 15.8958 55.9995 15.5852 55.5628 15.1845C55.1262 14.7839 54.7798 14.2961 54.5237 13.7213C54.2675 13.1465 54.1394 12.5049 54.1394 11.7965C54.1394 11.0881 54.2675 10.4494 54.5237 9.88034C54.7798 9.3113 55.1262 8.82937 55.5628 8.43453C55.9995 8.03969 56.5118 7.73776 57.0998 7.52873C57.6878 7.31969 58.3078 7.21518 58.9598 7.21518C59.6235 7.21518 60.2464 7.31969 60.8286 7.52873C61.4107 7.73776 61.923 8.03969 62.3655 8.43453C62.8079 8.82937 63.1572 9.3113 63.4134 9.88034C63.6695 10.4494 63.7976 11.0881 63.7976 11.7965ZM61.0363 11.7966C61.0363 11.5179 60.9898 11.245 60.8966 10.9779C60.8035 10.7108 60.6696 10.4757 60.4949 10.2724C60.3203 10.0692 60.1049 9.90374 59.8487 9.77599C59.5926 9.64825 59.2957 9.58438 58.958 9.58438C58.6203 9.58438 58.3234 9.64825 58.0673 9.77599C57.8111 9.90374 57.5986 10.0692 57.4298 10.2724C57.261 10.4757 57.1329 10.7108 57.0456 10.9779C56.9582 11.245 56.9146 11.5179 56.9146 11.7966C56.9146 12.0753 56.9582 12.3482 57.0456 12.6153C57.1329 12.8824 57.2639 13.1234 57.4385 13.3382C57.6132 13.5531 57.8286 13.7244 58.0847 13.8521C58.3409 13.9799 58.6378 14.0437 58.9755 14.0437C59.3131 14.0437 59.61 13.9799 59.8662 13.8521C60.1223 13.7244 60.3377 13.5531 60.5124 13.3382C60.687 13.1234 60.818 12.8824 60.9053 12.6153C60.9927 12.3482 61.0363 12.0753 61.0363 11.7966ZM77.9446 16.1684V11.0123H73.1243V16.1684H70.1377V3.83551H73.1243V8.50389H77.9446V3.83551H80.9311V16.1684H77.9446ZM89.3128 10.8385C89.3128 10.3856 89.1701 9.99656 88.8849 9.6714C88.5996 9.34623 88.1717 9.18365 87.6012 9.18365C87.3217 9.18365 87.0656 9.2272 86.8327 9.3143C86.5998 9.4014 86.3961 9.52043 86.2214 9.6714C86.0468 9.82236 85.9071 9.99946 85.8023 10.2027C85.6975 10.4059 85.6393 10.6178 85.6276 10.8385H89.3128ZM91.9498 11.9355V12.2839C91.9498 12.4001 91.944 12.5104 91.9323 12.6149H85.6275C85.6507 12.8588 85.7235 13.0794 85.8458 13.2768C85.968 13.4743 86.1252 13.6455 86.3173 13.7907C86.5094 13.9359 86.7248 14.0491 86.9635 14.1304C87.2022 14.2117 87.4496 14.2523 87.7058 14.2523C88.1599 14.2523 88.5441 14.1681 88.8585 13.9997C89.1729 13.8313 89.429 13.6136 89.6269 13.3465L91.618 14.6007C91.2104 15.193 90.6719 15.6488 90.0024 15.9681C89.333 16.2875 88.5558 16.4472 87.6709 16.4472C87.0188 16.4472 86.4017 16.3455 85.8196 16.1423C85.2374 15.9391 84.728 15.643 84.2914 15.2539C83.8547 14.8649 83.5113 14.3859 83.2609 13.8168C83.0106 13.2478 82.8854 12.5975 82.8854 11.8659C82.8854 11.1575 83.0077 10.5159 83.2522 9.94103C83.4967 9.36619 83.8285 8.87845 84.2477 8.47781C84.6669 8.07716 85.1617 7.76652 85.7322 7.54587C86.3028 7.32523 86.9199 7.2149 87.5835 7.2149C88.2239 7.2149 88.8119 7.32232 89.3475 7.53716C89.8831 7.752 90.343 8.06264 90.7272 8.4691C91.1115 8.87555 91.4113 9.36909 91.6267 9.94974C91.8421 10.5304 91.9498 11.1923 91.9498 11.9355ZM98.8665 12.3889H98.4998C98.1854 12.3889 97.8681 12.4034 97.5479 12.4325C97.2277 12.4615 96.9425 12.5167 96.6921 12.5979C96.4418 12.6792 96.2351 12.7983 96.0721 12.955C95.9091 13.1118 95.8276 13.3179 95.8276 13.5734C95.8276 13.736 95.8654 13.8754 95.9411 13.9915C96.0168 14.1076 96.1129 14.2005 96.2293 14.2702C96.3457 14.3399 96.4796 14.3892 96.631 14.4183C96.7824 14.4473 96.9279 14.4618 97.0676 14.4618C97.6498 14.4618 98.0952 14.3021 98.4037 13.9828C98.7123 13.6634 98.8665 13.2309 98.8665 12.685V12.3889ZM93.61 8.6784C94.1224 8.19066 94.7191 7.82486 95.4002 7.58099C96.0814 7.33711 96.777 7.21518 97.4873 7.21518C98.2208 7.21518 98.8408 7.30518 99.3473 7.48518C99.8538 7.66518 100.264 7.94389 100.579 8.32131C100.893 8.69873 101.123 9.17485 101.268 9.74969C101.414 10.3245 101.487 11.0068 101.487 11.7965V16.1687H98.867V15.2455H98.8146C98.5934 15.6055 98.2587 15.8842 97.8104 16.0816C97.3621 16.279 96.876 16.3777 96.3521 16.3777C96.0028 16.3777 95.6418 16.3313 95.2692 16.2384C94.8966 16.1455 94.5561 15.9945 94.2475 15.7855C93.939 15.5765 93.6857 15.2978 93.4878 14.9494C93.2899 14.601 93.1909 14.1713 93.1909 13.6603C93.1909 13.0332 93.3626 12.5281 93.7061 12.1449C94.0496 11.7616 94.492 11.4655 95.0335 11.2565C95.5749 11.0474 96.1774 10.9081 96.8411 10.8384C97.5048 10.7687 98.151 10.7339 98.7797 10.7339V10.5945C98.7797 10.1649 98.6283 9.8484 98.3256 9.64518C98.0229 9.44195 97.6503 9.34034 97.2079 9.34034C96.8003 9.34034 96.4074 9.42743 96.029 9.60163C95.6505 9.77582 95.3274 9.98485 95.0596 10.2287L93.61 8.6784ZM103.653 16.169V3H106.552V16.169H103.653ZM111.933 9.63661V12.9463C111.933 13.3527 112.011 13.6576 112.168 13.8608C112.325 14.064 112.608 14.1656 113.015 14.1656C113.155 14.1656 113.304 14.154 113.461 14.1308C113.618 14.1076 113.749 14.0727 113.854 14.0263L113.889 16.1166C113.691 16.1863 113.44 16.2472 113.138 16.2995C112.835 16.3518 112.532 16.3779 112.229 16.3779C111.647 16.3779 111.158 16.3053 110.762 16.1601C110.366 16.015 110.049 15.806 109.811 15.5331C109.572 15.2601 109.4 14.935 109.295 14.5576C109.191 14.1801 109.138 13.7592 109.138 13.2947V9.63661H107.741V7.49403H109.121V5.2121H111.933V7.49403H113.976V9.63661H111.933ZM121.047 16.169V11.4658C121.047 11.2219 121.029 10.9897 120.994 10.769C120.959 10.5484 120.892 10.3539 120.793 10.1855C120.694 10.0171 120.563 9.88354 120.4 9.78483C120.237 9.68612 120.028 9.63677 119.772 9.63677C119.271 9.63677 118.887 9.81386 118.619 10.1681C118.351 10.5223 118.217 10.9606 118.217 11.4832V16.169H115.353V3H118.217V8.59161H118.252C118.45 8.24322 118.765 7.93258 119.195 7.65967C119.626 7.38677 120.144 7.25032 120.75 7.25032C121.344 7.25032 121.841 7.35483 122.243 7.56387C122.645 7.7729 122.971 8.0429 123.221 8.37387C123.471 8.70483 123.652 9.08515 123.762 9.51483C123.873 9.94451 123.928 10.3742 123.928 10.8039V16.169H121.047Z" fill="white"/>
</svg>
