<svg width="270" height="40" viewBox="0 0 270 40" fill="none" xmlns="http://www.w3.org/2000/svg">
<path fill-rule="evenodd" clip-rule="evenodd" d="M49.9948 10.041C50.7876 10.041 51.5572 10.1369 52.2976 10.3126C52.365 10.3135 52.428 10.3144 52.4803 10.3144V8.68848H33.5781C33.1932 9.24582 32.8359 9.82358 32.5078 10.42H47.2815C48.1434 10.175 49.0531 10.041 49.9948 10.041ZM23.0216 29.5566C22.901 29.5948 22.7361 29.6232 22.5401 29.6472C21.7226 29.8637 20.8633 29.9809 19.9775 29.9809C19.1218 29.9809 18.291 29.8735 17.4973 29.6702C17.4743 29.6702 17.4468 29.6694 17.4264 29.6694L17.2109 31.289H36.5547C36.936 30.7299 37.2925 30.1539 37.617 29.5566H23.0216ZM29.0516 24.3624H39.5583C39.6851 23.7944 39.7871 23.2175 39.8633 22.6309H29.6989C29.5357 23.2335 29.3185 23.813 29.0516 24.3624ZM30.5456 15.6143C30.417 16.184 30.3133 16.7609 30.2344 17.3466H40.4095C40.5762 16.744 40.7979 16.1654 41.0692 15.6143H30.5456ZM41.9075 1.7627C40.8159 2.24993 39.7749 2.82768 38.7969 3.4933H50.0307V1.7627H41.9075ZM36.6022 5.22461C36.0063 5.76598 35.4477 6.3464 34.9219 6.9561H50.0325V5.22461H36.6022ZM31.3795 36.4844H20.0578V38.2159H28.3185C29.3932 37.7269 30.4174 37.1482 31.3795 36.4844ZM31.6629 12.1514C31.4209 12.7149 31.2063 13.2927 31.0156 13.8829H42.1573C42.6609 13.2368 43.2426 12.6555 43.8873 12.1514H31.6629ZM27.9789 26.0947C27.4841 26.7382 26.9121 27.3195 26.2781 27.8262H38.4519C38.6913 27.2618 38.9032 26.684 39.0921 26.0947H27.9789ZM35.2233 33.0205C34.701 33.6302 34.1441 34.2097 33.5536 34.752H20.0577L19.3953 33.0205H35.2233Z" fill="white"/>
<path fill-rule="evenodd" clip-rule="evenodd" d="M49.9951 0C47.326 0 44.7803 0.524506 42.4535 1.47501C46.6823 3.1994 50.1893 6.33046 52.391 10.2913C56.751 11.3661 59.9858 15.3039 59.9858 20.0004C59.9858 25.5224 55.5131 30.0007 49.9951 30.0007C44.477 30.0007 40.0035 25.5224 40.0035 20.0004H39.9645C39.9645 8.95476 31.0184 0 19.9831 0C8.94701 0 0 8.95476 0 20.0004C0 31.0461 8.94701 40 19.9831 40C22.6256 40 25.1465 39.4844 27.4564 38.5525C23.1815 36.8272 19.64 33.6695 17.4276 29.6705C13.1474 28.539 9.99068 24.6402 9.99068 20.0004C9.99068 14.4776 14.4642 9.99933 19.9831 9.99933C25.5003 9.99933 29.9738 14.4776 29.9738 20.0004H30.0128C30.0128 31.0461 38.9598 40 49.9951 40C61.0303 40 69.9773 31.0461 69.9773 20.0004C69.9773 8.95476 61.0303 0 49.9951 0Z" fill="white"/>
<path fill-rule="evenodd" clip-rule="evenodd" d="M101.425 22.7063C101.425 23.7734 101.304 24.8913 101.062 26.06C100.82 27.2287 100.375 28.3021 99.7251 29.2802C99.0755 30.2584 98.1712 31.065 97.0122 31.7002C95.8532 32.3353 94.3567 32.6529 92.5226 32.6529C90.23 32.6529 88.3195 32.0622 86.7911 30.8808C85.2628 29.6994 84.2438 28.1814 83.7344 26.3267L89.504 24.3831C89.6823 25.0945 90.0071 25.6662 90.4784 26.0981C90.9496 26.53 91.5291 26.7459 92.2169 26.7459C93.2868 26.7459 93.9937 26.3775 94.3375 25.6408C94.6814 24.904 94.8534 23.9385 94.8534 22.7444V4.94727H101.425V22.7063ZM113.308 6.8908C113.308 7.37352 113.213 7.82448 113.022 8.24369C112.831 8.6629 112.576 9.02493 112.258 9.32981C111.939 9.63469 111.557 9.87605 111.111 10.0539C110.666 10.2317 110.201 10.3207 109.717 10.3207C108.698 10.3207 107.844 9.98403 107.157 9.31076C106.469 8.63748 106.125 7.83084 106.125 6.8908C106.125 6.43348 106.214 5.99523 106.392 5.57602C106.571 5.15681 106.826 4.79477 107.157 4.4899C107.488 4.18502 107.87 3.93731 108.303 3.74676C108.736 3.55621 109.207 3.46094 109.717 3.46094C110.201 3.46094 110.666 3.54986 111.111 3.7277C111.557 3.90555 111.939 4.14691 112.258 4.45179C112.576 4.75666 112.831 5.1187 113.022 5.53791C113.213 5.95712 113.308 6.40807 113.308 6.8908ZM106.583 31.9288V12.9502H112.849V31.9288H106.583ZM137.992 22.3636C137.992 23.9134 137.712 25.3171 137.152 26.5747C136.591 27.8324 135.827 28.8994 134.859 29.7759C133.891 30.6525 132.77 31.3321 131.497 31.8148C130.223 32.2975 128.86 32.5389 127.408 32.5389C125.982 32.5389 124.625 32.2975 123.339 31.8148C122.053 31.3321 120.932 30.6525 119.977 29.7759C119.021 28.8994 118.264 27.8324 117.703 26.5747C117.143 25.3171 116.862 23.9134 116.862 22.3636C116.862 20.8138 117.143 19.4165 117.703 18.1716C118.264 16.9267 119.021 15.8723 119.977 15.0085C120.932 14.1447 122.053 13.4841 123.339 13.0268C124.625 12.5695 125.982 12.3408 127.408 12.3408C128.86 12.3408 130.223 12.5695 131.497 13.0268C132.77 13.4841 133.891 14.1447 134.859 15.0085C135.827 15.8723 136.591 16.9267 137.152 18.1716C137.712 19.4165 137.992 20.8138 137.992 22.3636ZM131.955 22.3634C131.955 21.7536 131.853 21.1566 131.649 20.5722C131.446 19.9879 131.153 19.4734 130.77 19.0288C130.388 18.5842 129.917 18.2221 129.357 17.9426C128.796 17.6632 128.147 17.5234 127.408 17.5234C126.669 17.5234 126.02 17.6632 125.459 17.9426C124.899 18.2221 124.434 18.5842 124.065 19.0288C123.695 19.4734 123.415 19.9879 123.224 20.5722C123.033 21.1566 122.938 21.7536 122.938 22.3634C122.938 22.9731 123.033 23.5702 123.224 24.1545C123.415 24.7389 123.702 25.266 124.084 25.736C124.466 26.2061 124.937 26.5808 125.498 26.8603C126.058 27.1398 126.708 27.2795 127.446 27.2795C128.185 27.2795 128.835 27.1398 129.395 26.8603C129.955 26.5808 130.427 26.2061 130.809 25.736C131.191 25.266 131.477 24.7389 131.668 24.1545C131.859 23.5702 131.955 22.9731 131.955 22.3634ZM168.942 31.9288V20.6484H158.396V31.9288H151.862V4.94727H158.396V15.1606H168.942V4.94727H175.476V31.9288H168.942ZM193.815 20.2669C193.815 19.276 193.503 18.4249 192.879 17.7136C192.255 17.0022 191.319 16.6465 190.071 16.6465C189.459 16.6465 188.899 16.7418 188.39 16.9323C187.88 17.1229 187.434 17.3833 187.052 17.7136C186.67 18.0438 186.364 18.4313 186.135 18.8759C185.906 19.3205 185.779 19.7842 185.753 20.2669H193.815ZM199.585 22.6685V23.4307C199.585 23.6848 199.573 23.9261 199.547 24.1548H185.754C185.805 24.6883 185.964 25.171 186.231 25.603C186.499 26.0349 186.843 26.4096 187.263 26.7272C187.683 27.0448 188.154 27.2925 188.677 27.4703C189.199 27.6482 189.74 27.7371 190.301 27.7371C191.294 27.7371 192.135 27.5529 192.822 27.1845C193.51 26.8161 194.071 26.3397 194.504 25.7554L198.859 28.4993C197.968 29.795 196.79 30.7922 195.325 31.4909C193.86 32.1896 192.16 32.5389 190.224 32.5389C188.798 32.5389 187.448 32.3166 186.174 31.872C184.9 31.4274 183.786 30.7795 182.831 29.9284C181.875 29.0773 181.124 28.0293 180.576 26.7843C180.029 25.5394 179.755 24.1167 179.755 22.5161C179.755 20.9663 180.022 19.5626 180.557 18.305C181.092 17.0473 181.818 15.9803 182.735 15.1038C183.652 14.2272 184.735 13.5476 185.983 13.0649C187.231 12.5822 188.581 12.3408 190.033 12.3408C191.434 12.3408 192.72 12.5758 193.892 13.0458C195.064 13.5159 196.07 14.1955 196.911 15.0847C197.751 15.9739 198.407 17.0537 198.879 18.324C199.35 19.5943 199.585 21.0425 199.585 22.6685ZM214.716 23.6582H213.913C213.225 23.6582 212.531 23.69 211.831 23.7535C211.13 23.817 210.506 23.9377 209.959 24.1155C209.411 24.2934 208.959 24.5538 208.602 24.8968C208.246 25.2398 208.067 25.6907 208.067 26.2497C208.067 26.6053 208.15 26.9102 208.316 27.1643C208.481 27.4183 208.691 27.6216 208.946 27.774C209.201 27.9265 209.494 28.0345 209.825 28.098C210.156 28.1615 210.474 28.1932 210.78 28.1932C212.054 28.1932 213.028 27.8439 213.703 27.1452C214.378 26.4466 214.716 25.5002 214.716 24.3061V23.6582ZM203.217 15.542C204.338 14.475 205.643 13.6747 207.133 13.1411C208.624 12.6076 210.146 12.3408 211.7 12.3408C213.304 12.3408 214.661 12.5377 215.769 12.9315C216.877 13.3253 217.775 13.9351 218.463 14.7608C219.15 15.5865 219.654 16.6281 219.972 17.8858C220.29 19.1434 220.45 20.636 220.45 22.3636V31.9291H214.718V29.9093H214.603C214.119 30.6969 213.387 31.3067 212.406 31.7386C211.426 32.1705 210.362 32.3865 209.216 32.3865C208.452 32.3865 207.662 32.2848 206.847 32.0816C206.032 31.8783 205.287 31.548 204.612 31.0907C203.937 30.6334 203.383 30.0237 202.95 29.2615C202.517 28.4993 202.3 27.5592 202.3 26.4414C202.3 25.0694 202.676 23.9642 203.427 23.1258C204.179 22.2874 205.147 21.6396 206.331 21.1822C207.516 20.7249 208.834 20.4201 210.286 20.2676C211.738 20.1152 213.152 20.039 214.527 20.039V19.7341C214.527 18.794 214.196 18.1017 213.534 17.6571C212.871 17.2125 212.056 16.9902 211.088 16.9902C210.197 16.9902 209.337 17.1807 208.509 17.5618C207.681 17.9429 206.974 18.4002 206.388 18.9338L203.217 15.542ZM225.184 31.929V3.11816H231.527V31.929H225.184ZM243.298 17.6378V24.8787C243.298 25.7679 243.47 26.4348 243.814 26.8794C244.158 27.324 244.776 27.5463 245.667 27.5463C245.973 27.5463 246.298 27.5209 246.642 27.4701C246.986 27.4193 247.272 27.3431 247.501 27.2414L247.578 31.8146C247.145 31.967 246.597 32.1004 245.935 32.2147C245.273 32.3291 244.61 32.3862 243.948 32.3862C242.674 32.3862 241.604 32.2275 240.738 31.9099C239.872 31.5923 239.178 31.135 238.656 30.5379C238.134 29.9409 237.758 29.2295 237.529 28.4038C237.3 27.5781 237.185 26.6571 237.185 25.6408V17.6378H234.128V12.9504H237.147V7.95801H243.298V12.9504H247.769V17.6378H243.298ZM263.242 31.929V21.6394C263.242 21.1059 263.204 20.5978 263.128 20.115C263.051 19.6323 262.905 19.2068 262.688 18.8384C262.472 18.47 262.185 18.1778 261.829 17.9618C261.472 17.7459 261.013 17.6379 260.453 17.6379C259.358 17.6379 258.517 18.0254 257.931 18.8003C257.345 19.5751 257.052 20.5342 257.052 21.6775V31.929H250.786V3.11816H257.052V15.3513H257.129C257.562 14.5891 258.25 13.9095 259.192 13.3125C260.135 12.7154 261.268 12.4169 262.593 12.4169C263.892 12.4169 264.981 12.6456 265.86 13.1029C266.738 13.5602 267.452 14.1509 267.999 14.875C268.547 15.5991 268.942 16.4311 269.184 17.3711C269.426 18.3112 269.547 19.2512 269.547 20.1912V31.929H263.242Z" fill="white"/>
</svg>
