<svg width="24" height="24" viewBox="0 0 24 24" fill="none" xmlns="http://www.w3.org/2000/svg">
<path d="M22.5722 18.4935L20.1333 16.8674L17.9651 15.4223C17.5467 15.1439 16.9844 15.2352 16.6755 15.6317L15.3339 17.3564C15.0457 17.7306 14.5273 17.8382 14.114 17.6094C13.2037 17.103 12.1272 16.6262 9.75201 14.248C7.37681 11.8697 6.89698 10.7963 6.3906 9.88596C6.1618 9.47269 6.26935 8.95428 6.6436 8.66614L8.3683 7.32454C8.76477 7.01568 8.85608 6.45336 8.57769 6.03489L7.17692 3.93353L5.50645 1.42779C5.22212 1.00129 4.65297 0.873245 4.2134 1.13685L2.28688 2.29261C1.76623 2.59936 1.38351 3.0947 1.218 3.67593C0.691166 5.59674 0.584949 9.83397 7.37565 16.6247C14.1664 23.4154 18.4032 23.3088 20.324 22.7819C20.9052 22.6165 21.4006 22.2337 21.7073 21.7131L22.8631 19.7866C23.1267 19.347 22.9987 18.7779 22.5722 18.4935Z" stroke="white"/>
<path d="M13.517 4.41388C17.0766 4.41783 19.9612 7.30246 19.9652 10.8621C19.9652 11.0715 20.135 11.2414 20.3445 11.2414C20.554 11.2414 20.7238 11.0716 20.7238 10.8621C20.7194 6.88369 17.4954 3.65966 13.517 3.65527C13.3075 3.65527 13.1377 3.82508 13.1377 4.0346C13.1377 4.24402 13.3075 4.41388 13.517 4.41388Z" fill="white"/>
<path d="M13.517 6.68956C15.8202 6.69226 17.6867 8.55872 17.6894 10.8619C17.6894 11.0714 17.8592 11.2412 18.0687 11.2412C18.2782 11.2412 18.448 11.0714 18.448 10.8619C18.4449 8.13991 16.2391 5.93404 13.517 5.93091C13.3075 5.93091 13.1377 6.10072 13.1377 6.31023C13.1377 6.51975 13.3075 6.68956 13.517 6.68956Z" fill="white"/>
<path d="M13.517 8.96539C14.5639 8.96664 15.4123 9.815 15.4135 10.8619C15.4135 11.0714 15.5833 11.2412 15.7928 11.2412C16.0023 11.2412 16.1722 11.0714 16.1722 10.8619C16.1705 9.39623 14.9827 8.20846 13.517 8.20679C13.3075 8.20679 13.1377 8.3766 13.1377 8.58611C13.1377 8.79558 13.3075 8.96539 13.517 8.96539Z" fill="white"/>
</svg>
