<svg width="30" height="30" viewBox="0 0 30 30" fill="none" xmlns="http://www.w3.org/2000/svg">
<mask id="mask0" mask-type="alpha" maskUnits="userSpaceOnUse" x="0" y="0" width="30" height="30">
<rect width="30" height="30" fill="#C4C4C4"/>
</mask>
<g mask="url(#mask0)">
<path d="M27.9375 25.2863C27.9497 25.2365 27.9713 25.1949 27.9713 25.1424V21.6749C27.9713 18.8791 25.4695 16.6053 22.3922 16.6053C19.3148 16.6053 16.8133 18.8791 16.8133 21.6749L16.8164 24.7104C16.8164 26.7654 15.0187 28.4382 12.8113 28.4382C10.6042 28.4382 8.8081 26.7654 8.8081 24.7104V17.6645C12.7244 17.4018 15.8286 14.6368 15.8286 11.2375V5.31708C15.8286 4.94748 15.4753 4.64697 15.0409 4.64697H12.5466C12.1122 4.64697 11.7589 4.94748 11.7589 5.31708C11.7589 5.6869 12.1122 5.98719 12.5466 5.98719H14.2529V11.2373C14.2529 14.0692 11.5442 16.375 8.21382 16.375C4.88268 16.375 2.17472 14.0692 2.17472 11.2373V5.98741H4.01326C4.44771 5.98741 4.80095 5.68712 4.80095 5.3173C4.80121 4.94748 4.44823 4.64697 4.01352 4.64697H1.3873C0.952584 4.64697 0.599609 4.94748 0.599609 5.31708V11.2373C0.599609 14.5228 3.49994 17.2154 7.23247 17.6308V24.7104C7.23247 27.5064 9.73427 29.7787 12.8113 29.7787C15.8884 29.7787 18.3918 27.5064 18.3918 24.7104L18.3889 21.6749C18.3889 19.6185 20.1861 17.9457 22.3924 17.9457C24.5988 17.9457 26.3959 19.6185 26.3959 21.6749V25.1422C26.3959 25.1634 26.405 25.1738 26.4082 25.192C25.0574 25.4225 24.0357 26.441 24.0357 27.6556C24.0357 29.0417 25.3589 30.1689 26.99 30.1689C28.6179 30.1689 29.9442 29.0417 29.9442 27.6556C29.9436 26.5533 29.1005 25.6241 27.9375 25.2863ZM26.991 28.8284C26.2325 28.8284 25.6124 28.2996 25.6124 27.6556C25.6124 27.0117 26.2325 26.4826 26.991 26.4826C27.7495 26.4826 28.3696 27.0117 28.3696 27.6556C28.3696 28.2996 27.7498 28.8284 26.991 28.8284Z" fill="#567FEA"/>
</g>
</svg>
