<svg width="1437" height="195" viewBox="0 0 1437 195" fill="none" xmlns="http://www.w3.org/2000/svg" preserveAspectRatio="none">
<mask id="mask0" mask-type="alpha" maskUnits="userSpaceOnUse" x="0" y="0" width="1437" height="195">
<path d="M0 0H1437V195H0V0Z" fill="#C4C4C4"/>
</mask>
<g mask="url(#mask0)">
<rect y="-70" width="1440" height="604" fill="url(#paint0_linear)"/>
<path opacity="0.1" d="M172.239 14C80.9124 9.2 19.3602 -30.6667 0 -50V712H1440V-42C1435.19 23.6 1295.13 52.6667 1225.7 58C1131.17 64.4 1112 100.082 1059.47 126C948 181 831.982 168.466 749 138C640.049 98 580.339 95.0586 518.72 110C395 140 337.135 101.333 314.437 84C266.37 31.2 199.611 15.3333 172.239 14Z" fill="#F7F8FC"/>
<g opacity="0.5">
<g opacity="0.7" filter="url(#filter0_f)">
<circle r="4.90417" transform="matrix(-1 0 0 1 1368.73 167.129)" fill="white"/>
</g>
<g opacity="0.8" filter="url(#filter1_f)">
<circle r="2.22917" transform="matrix(-1 0 0 1 1375.86 77.0708)" fill="white"/>
</g>
<g opacity="0.8" filter="url(#filter2_f)">
<circle r="2.22917" transform="matrix(-1 0 0 1 1390.13 116.304)" fill="white"/>
</g>
<g opacity="0.8" filter="url(#filter3_f)">
<circle r="2.22917" transform="matrix(-1 0 0 1 1436.5 41.4042)" fill="white"/>
</g>
<g opacity="0.8" filter="url(#filter4_f)">
<circle r="2.22917" transform="matrix(-1 0 0 1 1327.71 79.7459)" fill="white"/>
</g>
</g>
<g opacity="0.5">
<g opacity="0.7" filter="url(#filter5_f)">
<circle r="4.90417" transform="matrix(-1 0 0 1 421.246 -5.91248)" fill="white"/>
</g>
<g opacity="0.7" filter="url(#filter6_f)">
<circle r="4.90417" transform="matrix(-1 0 0 1 326.729 43.1291)" fill="white"/>
</g>
<g opacity="0.8" filter="url(#filter7_f)">
<circle r="2.22917" transform="matrix(-1 0 0 1 482.771 50.2625)" fill="white"/>
</g>
</g>
<g filter="url(#filter8_f)">
<path d="M151.961 12.9677L88 -56L146.087 22.7273C153.919 32.617 158.487 31.6193 159.793 29.8843C163.97 26.7612 156.312 17.3053 151.961 12.9677Z" fill="url(#paint1_linear)"/>
</g>
<g filter="url(#filter9_f)">
<path d="M1437.96 51.9677L1374 -17L1432.09 61.7273C1439.92 71.617 1444.49 70.6193 1445.79 68.8843C1449.97 65.7612 1442.31 56.3053 1437.96 51.9677Z" fill="url(#paint2_linear)"/>
</g>
<g opacity="0.7" filter="url(#filter10_f)">
<path d="M255.304 22.6003L215 -21L251.603 28.7701C256.538 35.0222 259.417 34.3915 260.239 33.2947C262.871 31.3203 258.046 25.3424 255.304 22.6003Z" fill="url(#paint3_linear)"/>
</g>
<g opacity="0.7" filter="url(#filter11_f)">
<path d="M213.79 108.502L184 76L211.054 113.101C214.702 117.762 216.83 117.292 217.438 116.474C219.383 115.002 215.816 110.546 213.79 108.502Z" fill="url(#paint4_linear)"/>
</g>
<g opacity="0.5">
<g opacity="0.5" filter="url(#filter12_f)">
<circle r="3.56667" transform="matrix(-1 0 0 1 1203.79 41.2999)" fill="white"/>
</g>
<g opacity="0.7" filter="url(#filter13_f)">
<circle r="4.90417" transform="matrix(-1 0 0 1 1171.25 80.0875)" fill="white"/>
</g>
<g opacity="0.7" filter="url(#filter14_f)">
<circle r="4.90417" transform="matrix(-1 0 0 1 1076.73 129.129)" fill="white"/>
</g>
<g opacity="0.8" filter="url(#filter15_f)">
<circle r="2.22917" transform="matrix(-1 0 0 1 1083.86 39.0708)" fill="white"/>
</g>
<g opacity="0.8" filter="url(#filter16_f)">
<circle r="2.22917" transform="matrix(-1 0 0 1 1098.13 78.3041)" fill="white"/>
</g>
<g opacity="0.8" filter="url(#filter17_f)">
<circle r="2.22917" transform="matrix(-1 0 0 1 1144.5 3.40422)" fill="white"/>
</g>
<g opacity="0.8" filter="url(#filter18_f)">
<circle r="2.22917" transform="matrix(-1 0 0 1 1232.77 136.262)" fill="white"/>
</g>
<g opacity="0.8" filter="url(#filter19_f)">
<circle r="2.22917" transform="matrix(-1 0 0 1 1035.71 41.7459)" fill="white"/>
</g>
</g>
<g filter="url(#filter20_f)">
<path d="M901.961 98.9677L838 30L896.087 108.727C903.919 118.617 908.487 117.619 909.793 115.884C913.97 112.761 906.312 103.305 901.961 98.9677Z" fill="url(#paint5_linear)"/>
</g>
<g opacity="0.7" filter="url(#filter21_f)">
<path d="M1005.3 108.6L965 65L1001.6 114.77C1006.54 121.022 1009.42 120.392 1010.24 119.295C1012.87 117.32 1008.05 111.342 1005.3 108.6Z" fill="url(#paint6_linear)"/>
</g>
<g opacity="0.7" filter="url(#filter22_f)">
<path d="M963.79 194.502L934 162L961.054 199.101C964.702 203.762 966.83 203.292 967.438 202.474C969.383 201.002 965.816 196.546 963.79 194.502Z" fill="url(#paint7_linear)"/>
</g>
<path d="M1370.73 88.6256C1395.54 119.266 1354.41 154.471 1330.75 168.243C1281.65 175.173 1258.79 155.638 1253.49 145.004C1233.78 118.197 1260.2 105.173 1275.88 102.012C1231.27 92.3749 1221.21 70.8428 1221.76 61.2814C1224.99 35.7877 1258.71 47.5317 1275.16 56.5905C1224.28 -13.6179 1241.31 -35.3696 1256.19 -37.4695C1284.26 -48.2594 1301.27 6.43313 1306.27 35.1281C1320.35 5.82784 1336.6 8.0864 1342.96 12.8782C1363.34 28.212 1340.75 64.404 1326.91 80.5832C1348.6 72.9701 1365.16 82.7726 1370.73 88.6256Z" fill="url(#paint8_linear)"/>
<path opacity="0.2" d="M1321.4 41.5273L1297.44 73.3609" stroke="#8996E8" stroke-width="3.32435" stroke-linecap="round"/>
<path opacity="0.2" d="M1254 64L1295.42 75.2257" stroke="#8996E8" stroke-width="3.32435" stroke-linecap="round"/>
<path opacity="0.2" d="M1276 130L1317.42 141.226" stroke="#8996E8" stroke-width="3.32435" stroke-linecap="round"/>
<path opacity="0.2" d="M1342.96 109L1319 140.834" stroke="#8996E8" stroke-width="3.32435" stroke-linecap="round"/>
<path opacity="0.2" d="M1264.92 -15.9406L1352.14 239.198" stroke="#8996E8" stroke-width="3.32435" stroke-linecap="round"/>
<path d="M1243.9 167.819C1285.85 230.749 1311.49 231.331 1319.06 223.757C1362.41 205.577 1337.13 153.252 1319.06 129.363C1265.92 62.238 1186.21 19.8189 1153 7L1187.96 87.4097H1214.18L1194.95 94.4018L1243.9 167.819Z" fill="url(#paint9_linear)"/>
<path opacity="0.2" d="M1250.89 160.827L1296.34 167.819L1299.84 131.111" stroke="white" stroke-width="3.49607" stroke-linecap="round"/>
<path opacity="0.2" d="M1189.71 61.1891C1191.11 61.1891 1201.95 61.1891 1207.19 61.1891V47.2048" stroke="white" stroke-width="3.49607" stroke-linecap="round"/>
<path opacity="0.2" d="M1219.43 104.89H1247.39V82.1656" stroke="white" stroke-width="3.49607" stroke-linecap="round"/>
<path opacity="0.2" d="M1165.24 17.4883C1206.61 57.6931 1295.64 152.437 1320.81 209.772" stroke="white" stroke-width="3.49607" stroke-linecap="round"/>
<path d="M1365.85 40.4637C1357.62 -23.8007 1402.66 -39.9989 1430.12 -42.7424L1581 443L981.881 400.464C951.245 282.15 1035.31 261.37 1081.17 265.768L1108.77 295.019L1109.6 268.655C1176.5 271.628 1194.88 216.896 1195.7 189.158C1197.69 83.0414 1259.7 87.2772 1290.46 102.66C1353.73 137.599 1374.5 97.9996 1376.97 73.8324L1417.34 96.0817L1365.85 40.4637Z" fill="#2C0F7E"/>
<path opacity="0.2" d="M1234.3 103.074C1246.31 149.42 1280.26 250.885 1319.97 285.987" stroke="white" stroke-width="3.45682" stroke-linecap="round"/>
<path opacity="0.2" d="M1196.6 183.606C1222.34 205.236 1276.88 258.053 1289.07 296.283" stroke="white" stroke-width="3.45682" stroke-linecap="round"/>
<path opacity="0.2" d="M1293 110.289C1299.45 146.129 1316.84 230.456 1334.8 281.045" stroke="white" stroke-width="3.45682" stroke-linecap="round"/>
<path opacity="0.2" d="M1367.78 25.6424C1398.81 45.2817 1468.12 100.956 1497.12 166.541" stroke="white" stroke-width="3.45682" stroke-linecap="round"/>
<path opacity="0.2" d="M1389.21 -27.4963C1405.41 -14.587 1441.35 18.1527 1455.52 45.8369" stroke="white" stroke-width="3.45682" stroke-linecap="round"/>
<path d="M87.63 -5.74271C93.7217 -83.1296 5.83826 -118.62 -13.1735 -122.975L-13.1734 372.025L533.827 397.026C575.827 192.603 452.329 180.853 404.93 192.603C314.582 216.451 284.113 159.581 280.172 128.166C279.376 93.4592 273.162 72.5208 270.154 66.3898L240.393 94.6481L255.234 38.7803C230.857 11.1625 182.184 31.8936 160.895 45.7114C97.7751 71.7847 85.7517 22.2725 87.63 -5.74271Z" fill="#2C0F7E"/>
<g opacity="0.2">
<path d="M71.7905 -15.3734C47.9975 6.1248 -2.85516 56.1818 -15.9213 84.4242" stroke="white" stroke-width="4.03294" stroke-linecap="round"/>
<path d="M50.7705 -82.8538C35.0539 -67.3239 1.81597 -31.0407 -5.40342 -10.1471" stroke="white" stroke-width="4.03294" stroke-linecap="round"/>
<path d="M160.058 58.1481C157.08 98.1577 146.295 191.638 126.984 245.484" stroke="white" stroke-width="4.03294" stroke-linecap="round"/>
<path d="M222.352 46.1818C204.804 108.749 163.567 241.293 139.002 270.931" stroke="white" stroke-width="4.03294" stroke-linecap="round"/>
<path d="M263.419 114.12C241.128 136.944 194.516 196.52 186.395 252.225" stroke="white" stroke-width="4.03294" stroke-linecap="round"/>
</g>
<path d="M172.239 42C80.9124 37.2 19.3602 -2.66667 0 -22V1660H1440V-14C1435.19 51.6 1295.13 80.6667 1225.7 86C1131.17 92.4 1112 128.082 1059.47 154C948 209 831.982 196.466 749 166C640.049 126 580.339 123.059 518.72 138C395 168 337.135 129.333 314.437 112C266.37 59.2 199.611 43.3333 172.239 42Z" fill="white"/>
</g>
<defs>
<filter id="filter0_f" x="1360.83" y="159.225" width="15.8083" height="15.8083" filterUnits="userSpaceOnUse" color-interpolation-filters="sRGB">
<feFlood flood-opacity="0" result="BackgroundImageFix"/>
<feBlend mode="normal" in="SourceGraphic" in2="BackgroundImageFix" result="shape"/>
<feGaussianBlur stdDeviation="1.5" result="effect1_foregroundBlur"/>
</filter>
<filter id="filter1_f" x="1370.63" y="71.8417" width="10.4583" height="10.4583" filterUnits="userSpaceOnUse" color-interpolation-filters="sRGB">
<feFlood flood-opacity="0" result="BackgroundImageFix"/>
<feBlend mode="normal" in="SourceGraphic" in2="BackgroundImageFix" result="shape"/>
<feGaussianBlur stdDeviation="1.5" result="effect1_foregroundBlur"/>
</filter>
<filter id="filter2_f" x="1384.9" y="111.075" width="10.4583" height="10.4583" filterUnits="userSpaceOnUse" color-interpolation-filters="sRGB">
<feFlood flood-opacity="0" result="BackgroundImageFix"/>
<feBlend mode="normal" in="SourceGraphic" in2="BackgroundImageFix" result="shape"/>
<feGaussianBlur stdDeviation="1.5" result="effect1_foregroundBlur"/>
</filter>
<filter id="filter3_f" x="1431.27" y="36.175" width="10.4583" height="10.4583" filterUnits="userSpaceOnUse" color-interpolation-filters="sRGB">
<feFlood flood-opacity="0" result="BackgroundImageFix"/>
<feBlend mode="normal" in="SourceGraphic" in2="BackgroundImageFix" result="shape"/>
<feGaussianBlur stdDeviation="1.5" result="effect1_foregroundBlur"/>
</filter>
<filter id="filter4_f" x="1322.48" y="74.5167" width="10.4583" height="10.4583" filterUnits="userSpaceOnUse" color-interpolation-filters="sRGB">
<feFlood flood-opacity="0" result="BackgroundImageFix"/>
<feBlend mode="normal" in="SourceGraphic" in2="BackgroundImageFix" result="shape"/>
<feGaussianBlur stdDeviation="1.5" result="effect1_foregroundBlur"/>
</filter>
<filter id="filter5_f" x="413.342" y="-13.8167" width="15.8083" height="15.8083" filterUnits="userSpaceOnUse" color-interpolation-filters="sRGB">
<feFlood flood-opacity="0" result="BackgroundImageFix"/>
<feBlend mode="normal" in="SourceGraphic" in2="BackgroundImageFix" result="shape"/>
<feGaussianBlur stdDeviation="1.5" result="effect1_foregroundBlur"/>
</filter>
<filter id="filter6_f" x="318.825" y="35.225" width="15.8083" height="15.8083" filterUnits="userSpaceOnUse" color-interpolation-filters="sRGB">
<feFlood flood-opacity="0" result="BackgroundImageFix"/>
<feBlend mode="normal" in="SourceGraphic" in2="BackgroundImageFix" result="shape"/>
<feGaussianBlur stdDeviation="1.5" result="effect1_foregroundBlur"/>
</filter>
<filter id="filter7_f" x="477.542" y="45.0333" width="10.4583" height="10.4583" filterUnits="userSpaceOnUse" color-interpolation-filters="sRGB">
<feFlood flood-opacity="0" result="BackgroundImageFix"/>
<feBlend mode="normal" in="SourceGraphic" in2="BackgroundImageFix" result="shape"/>
<feGaussianBlur stdDeviation="1.5" result="effect1_foregroundBlur"/>
</filter>
<filter id="filter8_f" x="86" y="-58" width="77" height="91" filterUnits="userSpaceOnUse" color-interpolation-filters="sRGB">
<feFlood flood-opacity="0" result="BackgroundImageFix"/>
<feBlend mode="normal" in="SourceGraphic" in2="BackgroundImageFix" result="shape"/>
<feGaussianBlur stdDeviation="1" result="effect1_foregroundBlur"/>
</filter>
<filter id="filter9_f" x="1372" y="-19" width="77" height="91" filterUnits="userSpaceOnUse" color-interpolation-filters="sRGB">
<feFlood flood-opacity="0" result="BackgroundImageFix"/>
<feBlend mode="normal" in="SourceGraphic" in2="BackgroundImageFix" result="shape"/>
<feGaussianBlur stdDeviation="1" result="effect1_foregroundBlur"/>
</filter>
<filter id="filter10_f" x="213" y="-23" width="50" height="59" filterUnits="userSpaceOnUse" color-interpolation-filters="sRGB">
<feFlood flood-opacity="0" result="BackgroundImageFix"/>
<feBlend mode="normal" in="SourceGraphic" in2="BackgroundImageFix" result="shape"/>
<feGaussianBlur stdDeviation="1" result="effect1_foregroundBlur"/>
</filter>
<filter id="filter11_f" x="182" y="74" width="38" height="45" filterUnits="userSpaceOnUse" color-interpolation-filters="sRGB">
<feFlood flood-opacity="0" result="BackgroundImageFix"/>
<feBlend mode="normal" in="SourceGraphic" in2="BackgroundImageFix" result="shape"/>
<feGaussianBlur stdDeviation="1" result="effect1_foregroundBlur"/>
</filter>
<filter id="filter12_f" x="1197.23" y="34.7333" width="13.1333" height="13.1333" filterUnits="userSpaceOnUse" color-interpolation-filters="sRGB">
<feFlood flood-opacity="0" result="BackgroundImageFix"/>
<feBlend mode="normal" in="SourceGraphic" in2="BackgroundImageFix" result="shape"/>
<feGaussianBlur stdDeviation="1.5" result="effect1_foregroundBlur"/>
</filter>
<filter id="filter13_f" x="1163.34" y="72.1833" width="15.8083" height="15.8083" filterUnits="userSpaceOnUse" color-interpolation-filters="sRGB">
<feFlood flood-opacity="0" result="BackgroundImageFix"/>
<feBlend mode="normal" in="SourceGraphic" in2="BackgroundImageFix" result="shape"/>
<feGaussianBlur stdDeviation="1.5" result="effect1_foregroundBlur"/>
</filter>
<filter id="filter14_f" x="1068.83" y="121.225" width="15.8083" height="15.8083" filterUnits="userSpaceOnUse" color-interpolation-filters="sRGB">
<feFlood flood-opacity="0" result="BackgroundImageFix"/>
<feBlend mode="normal" in="SourceGraphic" in2="BackgroundImageFix" result="shape"/>
<feGaussianBlur stdDeviation="1.5" result="effect1_foregroundBlur"/>
</filter>
<filter id="filter15_f" x="1078.63" y="33.8417" width="10.4583" height="10.4583" filterUnits="userSpaceOnUse" color-interpolation-filters="sRGB">
<feFlood flood-opacity="0" result="BackgroundImageFix"/>
<feBlend mode="normal" in="SourceGraphic" in2="BackgroundImageFix" result="shape"/>
<feGaussianBlur stdDeviation="1.5" result="effect1_foregroundBlur"/>
</filter>
<filter id="filter16_f" x="1092.9" y="73.075" width="10.4583" height="10.4583" filterUnits="userSpaceOnUse" color-interpolation-filters="sRGB">
<feFlood flood-opacity="0" result="BackgroundImageFix"/>
<feBlend mode="normal" in="SourceGraphic" in2="BackgroundImageFix" result="shape"/>
<feGaussianBlur stdDeviation="1.5" result="effect1_foregroundBlur"/>
</filter>
<filter id="filter17_f" x="1139.27" y="-1.82495" width="10.4583" height="10.4583" filterUnits="userSpaceOnUse" color-interpolation-filters="sRGB">
<feFlood flood-opacity="0" result="BackgroundImageFix"/>
<feBlend mode="normal" in="SourceGraphic" in2="BackgroundImageFix" result="shape"/>
<feGaussianBlur stdDeviation="1.5" result="effect1_foregroundBlur"/>
</filter>
<filter id="filter18_f" x="1227.54" y="131.033" width="10.4583" height="10.4583" filterUnits="userSpaceOnUse" color-interpolation-filters="sRGB">
<feFlood flood-opacity="0" result="BackgroundImageFix"/>
<feBlend mode="normal" in="SourceGraphic" in2="BackgroundImageFix" result="shape"/>
<feGaussianBlur stdDeviation="1.5" result="effect1_foregroundBlur"/>
</filter>
<filter id="filter19_f" x="1030.48" y="36.5167" width="10.4583" height="10.4583" filterUnits="userSpaceOnUse" color-interpolation-filters="sRGB">
<feFlood flood-opacity="0" result="BackgroundImageFix"/>
<feBlend mode="normal" in="SourceGraphic" in2="BackgroundImageFix" result="shape"/>
<feGaussianBlur stdDeviation="1.5" result="effect1_foregroundBlur"/>
</filter>
<filter id="filter20_f" x="836" y="28" width="77" height="91" filterUnits="userSpaceOnUse" color-interpolation-filters="sRGB">
<feFlood flood-opacity="0" result="BackgroundImageFix"/>
<feBlend mode="normal" in="SourceGraphic" in2="BackgroundImageFix" result="shape"/>
<feGaussianBlur stdDeviation="1" result="effect1_foregroundBlur"/>
</filter>
<filter id="filter21_f" x="963" y="63" width="50" height="59" filterUnits="userSpaceOnUse" color-interpolation-filters="sRGB">
<feFlood flood-opacity="0" result="BackgroundImageFix"/>
<feBlend mode="normal" in="SourceGraphic" in2="BackgroundImageFix" result="shape"/>
<feGaussianBlur stdDeviation="1" result="effect1_foregroundBlur"/>
</filter>
<filter id="filter22_f" x="932" y="160" width="38" height="45" filterUnits="userSpaceOnUse" color-interpolation-filters="sRGB">
<feFlood flood-opacity="0" result="BackgroundImageFix"/>
<feBlend mode="normal" in="SourceGraphic" in2="BackgroundImageFix" result="shape"/>
<feGaussianBlur stdDeviation="1" result="effect1_foregroundBlur"/>
</filter>
<linearGradient id="paint0_linear" x1="1687" y1="-480" x2="1349.18" y2="491.761" gradientUnits="userSpaceOnUse">
<stop stop-color="#5AD3C0" stop-opacity="0.14"/>
<stop offset="1" stop-color="#5688EA"/>
</linearGradient>
<linearGradient id="paint1_linear" x1="189.717" y1="119.672" x2="64.9021" y2="-46.6126" gradientUnits="userSpaceOnUse">
<stop stop-color="white"/>
<stop offset="1" stop-color="white" stop-opacity="0"/>
</linearGradient>
<linearGradient id="paint2_linear" x1="1475.72" y1="158.672" x2="1350.9" y2="-7.61261" gradientUnits="userSpaceOnUse">
<stop stop-color="white"/>
<stop offset="1" stop-color="white" stop-opacity="0"/>
</linearGradient>
<linearGradient id="paint3_linear" x1="279.096" y1="90.0573" x2="200.119" y2="-14.8195" gradientUnits="userSpaceOnUse">
<stop stop-color="white"/>
<stop offset="1" stop-color="white" stop-opacity="0"/>
</linearGradient>
<linearGradient id="paint4_linear" x1="231.375" y1="158.788" x2="172.364" y2="81.0905" gradientUnits="userSpaceOnUse">
<stop stop-color="white"/>
<stop offset="1" stop-color="white" stop-opacity="0"/>
</linearGradient>
<linearGradient id="paint5_linear" x1="939.717" y1="205.672" x2="814.902" y2="39.3874" gradientUnits="userSpaceOnUse">
<stop stop-color="white"/>
<stop offset="1" stop-color="white" stop-opacity="0"/>
</linearGradient>
<linearGradient id="paint6_linear" x1="1029.1" y1="176.057" x2="950.119" y2="71.1805" gradientUnits="userSpaceOnUse">
<stop stop-color="white"/>
<stop offset="1" stop-color="white" stop-opacity="0"/>
</linearGradient>
<linearGradient id="paint7_linear" x1="981.375" y1="244.788" x2="922.364" y2="167.09" gradientUnits="userSpaceOnUse">
<stop stop-color="white"/>
<stop offset="1" stop-color="white" stop-opacity="0"/>
</linearGradient>
<linearGradient id="paint8_linear" x1="1271.01" y1="2.93093" x2="1280" y2="-199" gradientUnits="userSpaceOnUse">
<stop stop-color="#3B168A"/>
<stop offset="1" stop-color="#4F157D"/>
</linearGradient>
<linearGradient id="paint9_linear" x1="1164.56" y1="16" x2="1296.09" y2="233.916" gradientUnits="userSpaceOnUse">
<stop stop-color="#7F5FFF"/>
<stop offset="1" stop-color="#654DC8"/>
</linearGradient>
</defs>
</svg>
