<svg width="1440" height="776" viewBox="0 0 1440 776" fill="none" xmlns="http://www.w3.org/2000/svg" preserveAspectRatio="none">
<path opacity="0.5" d="M1213.97 51.8711C1087.25 -44.512 789.291 27.1317 690.503 51.8711C690.503 51.8711 469.395 115.994 461.298 235.747C453.201 355.5 334.061 368.553 381.486 528.602C439.899 681.84 615.53 718.784 690.502 731.887C798.254 750.719 1333.62 784.102 1347.51 594.54C1359.5 530.975 1359.5 505.335 1394.41 463.808C1485.05 355.992 1455.31 253.189 1359.5 194.596C1284.52 148.741 1265.38 90.9723 1213.97 51.8711Z" fill="url(#paint0_linear)"/>
<path opacity="0.2" d="M508.011 225.81C251.332 318.617 62.3873 303.149 0 283.814V580.929C278.069 766.543 788.117 686.626 1008.38 623.465C1240.62 564.687 1392.89 519.057 1440 503.589V109.801C1271.94 -29.4098 748.647 129.136 508.011 225.81Z" fill="url(#paint1_linear)"/>
<path d="M508.011 305.81C251.332 398.617 62.3873 383.149 0 363.814V660.929C278.069 846.543 788.117 766.626 1008.38 703.465C1240.62 644.687 1392.89 599.057 1440 583.589V189.801C1271.94 50.5902 748.647 209.136 508.011 305.81Z" fill="url(#paint2_linear)"/>
<path opacity="0.8" d="M1334.26 459.664C1438.81 565.311 1495.91 468.822 1522.85 403.857L1456.72 221.124C1269.96 175.894 1181.31 212.553 1153.82 272.106C1127.25 340.678 1163.91 377.424 1218.21 393.263C1264.03 406.625 1306.78 434.086 1334.26 459.664Z" fill="url(#paint3_linear)"/>
<defs>
<linearGradient id="paint0_linear" x1="533.73" y1="48.6086" x2="494.948" y2="769.332" gradientUnits="userSpaceOnUse">
<stop offset="0.0121435" stop-color="#FFC7A8" stop-opacity="0.19"/>
<stop offset="0.492135" stop-color="#5BBAFF" stop-opacity="0.355023"/>
<stop offset="1" stop-color="white" stop-opacity="0"/>
</linearGradient>
<linearGradient id="paint1_linear" x1="1192.44" y1="55" x2="737.405" y2="1040.94" gradientUnits="userSpaceOnUse">
<stop stop-color="#5AD3C0" stop-opacity="0.14"/>
<stop offset="1" stop-color="#5688EA"/>
</linearGradient>
<linearGradient id="paint2_linear" x1="1192.44" y1="135" x2="737.405" y2="1120.94" gradientUnits="userSpaceOnUse">
<stop stop-color="#5AD3C0" stop-opacity="0.14"/>
<stop offset="1" stop-color="#5688EA"/>
</linearGradient>
<linearGradient id="paint3_linear" x1="1095.1" y1="528.276" x2="1532.02" y2="348.889" gradientUnits="userSpaceOnUse">
<stop stop-color="#FFD868" stop-opacity="0.57"/>
<stop offset="1" stop-color="#FF9A62"/>
</linearGradient>
</defs>
</svg>
