<svg width="65" height="65" viewBox="0 0 65 65" fill="none" xmlns="http://www.w3.org/2000/svg">
<mask id="mask0" mask-type="alpha" maskUnits="userSpaceOnUse" x="0" y="0" width="65" height="65">
<rect width="65" height="65" fill="#C4C4C4"/>
</mask>
<g mask="url(#mask0)">
<rect x="15" y="11" width="38" height="44" fill="white"/>
<path d="M55.4831 9.51864C42.7909 -3.17217 22.2123 -3.17359 9.51864 9.51864C-3.17359 22.2109 -3.17217 42.7895 9.51864 55.4831C22.2109 68.1725 42.7895 68.1739 55.4831 55.4831C68.1739 42.7895 68.1725 22.2123 55.4831 9.51864ZM36.7387 46.6316C36.7387 48.9731 34.8409 50.8708 32.4995 50.8708C30.158 50.8708 28.2603 48.9731 28.2603 46.6316V29.6747C28.2603 27.3333 30.158 25.4355 32.4995 25.4355C34.8409 25.4355 36.7387 27.3333 36.7387 29.6747V46.6316ZM32.4246 22.4285C29.9828 22.4285 28.3549 20.6989 28.4058 18.5637C28.3549 16.3254 29.9828 14.6481 32.474 14.6481C34.9667 14.6481 36.5437 16.3268 36.596 18.5637C36.5946 20.6989 34.9681 22.4285 32.4246 22.4285Z" fill="#4CE1C6"/>
</g>
</svg>
