<svg width="1440" height="483" viewBox="0 0 1440 483" fill="none" xmlns="http://www.w3.org/2000/svg">
<path d="M428.284 15.9994C261.167 15.9994 7.86176 118.309 -98 166.127L-97.9999 441.361L1499 441.361L1499 82.7227L1197.29 82.7228C1101.11 88.0607 881.977 71.5183 798.044 61.0377C600.687 36.394 627.909 15.9994 428.284 15.9994Z" fill="#E7F6FF"/>
<path d="M385.837 45.8755C207.812 -6.83144 49.7684 0.420894 -6.99999 10.6354L-6.99991 486.977L1444 486.977L1444 24.4248C1396.77 -36.8624 1171.51 32.2918 978.499 67.3259C590.203 137.806 494.833 71.9225 385.837 45.8755Z" fill="url(#paint0_linear)"/>
<defs>
<linearGradient id="paint0_linear" x1="771.862" y1="-68.023" x2="801.008" y2="444.319" gradientUnits="userSpaceOnUse">
<stop stop-color="#59FFE5"/>
<stop offset="1" stop-color="#567FEA"/>
</linearGradient>
</defs>
</svg>
