<?xml version="1.0" encoding="utf-8"?>
<!-- Generator: Adobe Illustrator 22.0.0, SVG Export Plug-In . SVG Version: 6.00 Build 0)  -->
<svg version="1.1" id="Layer_1" xmlns="http://www.w3.org/2000/svg" xmlns:xlink="http://www.w3.org/1999/xlink" x="0px" y="0px"
	 width="1345.1px" height="855.4px" viewBox="0 0 1345.1 855.4" style="enable-background:new 0 0 1345.1 855.4;"
	 xml:space="preserve">
<style type="text/css">
	.st0{opacity:0.2;}
	.st1{fill:#567FEA;}
	.st2{fill:#5AD3C0;}
	.st3{opacity:0.5;}
	.st4{opacity:0.5;fill:url(#SVGID_1_);enable-background:new    ;}
	.st5{fill:url(#SVGID_2_);}
	.st6{opacity:0.2;fill:url(#SVGID_3_);enable-background:new    ;}
	.st7{fill:url(#SVGID_4_);}
	.st8{opacity:0.2;fill:url(#SVGID_5_);enable-background:new    ;}
	.st9{opacity:0.2;fill:url(#SVGID_6_);enable-background:new    ;}
	.st10{fill:url(#SVGID_7_);}
	.st11{fill:url(#SVGID_8_);}
	.st12{fill:url(#SVGID_9_);}
	.st13{fill:url(#SVGID_10_);}
	.st14{fill:url(#SVGID_11_);}
	.st15{fill:url(#SVGID_12_);}
	.st16{fill:url(#SVGID_13_);}
	.st17{fill:url(#SVGID_14_);}
	.st18{fill:url(#SVGID_15_);}
	.st19{fill:url(#SVGID_16_);}
	.st20{fill:url(#SVGID_17_);}
	.st21{fill:url(#SVGID_18_);}
	.st22{fill:url(#SVGID_19_);}
	.st23{fill:#BBA2D8;}
	.st24{fill:#E7A987;}
	.st25{opacity:0.6;fill:url(#SVGID_20_);enable-background:new    ;}
	.st26{fill:#F9C5A8;}
	.st27{fill:#F9C5A8;filter:url(#Adobe_OpacityMaskFilter);}
	.st28{mask:url(#mask0_1_);}
	.st29{opacity:0.9;fill:url(#SVGID_21_);enable-background:new    ;}
	.st30{fill:#F3BB93;filter:url(#Adobe_OpacityMaskFilter_1_);}
	.st31{mask:url(#mask1_1_);}
	.st32{fill:url(#SVGID_22_);}
	.st33{fill:none;stroke:#201947;stroke-width:0.7959;stroke-linecap:round;stroke-linejoin:round;}
	.st34{fill:none;stroke:#656274;stroke-width:0.5306;stroke-linecap:round;stroke-linejoin:round;}
	.st35{fill:none;stroke:#EA5F56;stroke-width:0.7959;stroke-linecap:round;stroke-linejoin:round;}
	.st36{fill:url(#SVGID_23_);}
	.st37{fill:url(#SVGID_24_);}
	.st38{fill:url(#SVGID_25_);filter:url(#Adobe_OpacityMaskFilter_2_);}
	.st39{mask:url(#mask2_1_);}
	.st40{fill:url(#SVGID_26_);}
	.st41{fill:url(#SVGID_27_);}
	.st42{fill:url(#SVGID_28_);}
	.st43{fill:url(#SVGID_29_);}
	.st44{fill:url(#SVGID_30_);}
	.st45{fill:url(#SVGID_31_);filter:url(#Adobe_OpacityMaskFilter_3_);}
	.st46{mask:url(#mask3_1_);}
	.st47{fill:url(#SVGID_32_);}
	.st48{fill:url(#SVGID_33_);}
	.st49{fill:url(#SVGID_34_);}
	.st50{fill:#0E0735;}
	.st51{fill:url(#SVGID_35_);}
	.st52{opacity:0.5;fill:url(#SVGID_36_);enable-background:new    ;}
	.st53{fill:url(#SVGID_37_);}
	.st54{fill:#FFD0AF;filter:url(#Adobe_OpacityMaskFilter_4_);}
	.st55{mask:url(#mask4_1_);}
	.st56{fill:url(#SVGID_38_);}
	.st57{fill:#E0A780;}
	.st58{fill:url(#SVGID_39_);}
	.st59{fill:url(#SVGID_40_);}
	.st60{fill:#FE9A9A;}
	.st61{fill:#201947;}
	.st62{fill:url(#SVGID_41_);}
	.st63{fill:url(#SVGID_42_);}
	.st64{fill:url(#SVGID_43_);}
	.st65{fill:url(#SVGID_44_);}
	.st66{fill:url(#SVGID_45_);}
	.st67{fill:#A1A9C0;}
	.st68{fill:#F3BB93;}
	.st69{fill:url(#SVGID_46_);}
	.st70{fill:none;stroke:#000000;stroke-width:1.0324;stroke-linecap:round;stroke-linejoin:round;}
	.st71{fill:url(#SVGID_47_);}
	.st72{fill:url(#SVGID_48_);}
	.st73{fill:#616E91;}
	.st74{fill:#D7E0F9;}
	.st75{fill:url(#SVGID_49_);}
	.st76{opacity:0.5;fill:url(#SVGID_50_);enable-background:new    ;}
	.st77{fill:url(#SVGID_51_);}
	.st78{opacity:0.5;fill:url(#SVGID_52_);enable-background:new    ;}
	.st79{fill:url(#SVGID_53_);}
	.st80{opacity:0.6;fill:url(#SVGID_54_);enable-background:new    ;}
	.st81{fill:url(#SVGID_55_);}
	.st82{fill:#ECF1FF;}
	.st83{fill:url(#SVGID_56_);}
	.st84{fill:#FFFFFF;}
	.st85{opacity:0.4;fill:url(#SVGID_57_);enable-background:new    ;}
	.st86{opacity:0.7;fill:url(#SVGID_58_);enable-background:new    ;}
	.st87{opacity:0.7;fill:url(#SVGID_59_);enable-background:new    ;}
	.st88{fill:url(#SVGID_60_);}
	.st89{fill:none;stroke:#BC8660;stroke-width:0.7;stroke-linecap:round;stroke-linejoin:round;}
	.st90{opacity:0.6;fill:url(#SVGID_61_);enable-background:new    ;}
	.st91{fill:url(#SVGID_62_);}
	.st92{fill:url(#SVGID_63_);}
	.st93{fill:url(#SVGID_64_);}
	.st94{fill:url(#SVGID_65_);}
	.st95{fill:url(#SVGID_66_);}
	.st96{fill:url(#SVGID_67_);}
	.st97{fill:url(#SVGID_68_);}
	.st98{opacity:0.4;}
	.st99{fill:#4CE1C6;}
	.st100{opacity:0.2;fill:#99A0B4;enable-background:new    ;}
	.st101{fill:#E3E8F6;}
	.st102{fill:url(#SVGID_69_);}
	.st103{fill:#B9C9F2;}
	.st104{fill:url(#SVGID_70_);}
	.st105{fill:url(#SVGID_71_);}
	.st106{fill:url(#SVGID_72_);filter:url(#Adobe_OpacityMaskFilter_5_);}
	.st107{mask:url(#mask5_1_);}
	.st108{fill:url(#SVGID_73_);}
	.st109{fill:#C79978;}
	.st110{fill:url(#SVGID_74_);}
	.st111{opacity:0.15;fill:url(#SVGID_75_);enable-background:new    ;}
	.st112{opacity:0.15;}
	.st113{fill:none;stroke:url(#SVGID_76_);stroke-width:2.3043;stroke-linecap:round;}
	.st114{fill:#2E2846;}
	.st115{fill:#2E2846;stroke:#FFFFFF;stroke-width:0.8176;}
	.st116{fill:none;stroke:url(#SVGID_77_);stroke-width:2.3043;stroke-linecap:round;}
	.st117{fill:#719290;}
	.st118{fill:#77D9D3;}
	.st119{fill:none;stroke:#FFFFFF;stroke-width:0.8176;}
	.st120{opacity:0.25;}
	.st121{fill:none;stroke:url(#SVGID_78_);stroke-width:2.3135;stroke-linecap:round;}
	.st122{fill:none;stroke:url(#SVGID_79_);stroke-width:2.3043;stroke-linecap:round;}
	.st123{fill:#2C2748;}
	.st124{fill:none;stroke:url(#SVGID_80_);stroke-width:2.3043;stroke-linecap:round;}
	.st125{fill:none;stroke:url(#SVGID_81_);stroke-width:2.3135;stroke-linecap:round;}
	.st126{fill:none;stroke:url(#SVGID_82_);stroke-width:2.3043;stroke-linecap:round;}
	.st127{fill:url(#SVGID_83_);}
	.st128{fill:none;stroke:url(#SVGID_84_);stroke-width:2.3043;stroke-linecap:round;}
	.st129{fill:url(#SVGID_85_);}
	.st130{fill:url(#SVGID_86_);}
	.st131{fill:url(#SVGID_87_);}
	.st132{fill:#FFFFFF;fill-opacity:0.5;stroke:url(#SVGID_88_);stroke-width:0.4762;}
	.st133{fill:none;stroke:url(#SVGID_89_);stroke-width:0.9524;stroke-linecap:round;}
	.st134{fill:url(#SVGID_90_);}
	.st135{fill:url(#SVGID_91_);}
	.st136{fill:url(#SVGID_92_);}
	.st137{fill:url(#SVGID_93_);}
	.st138{fill:url(#SVGID_94_);}
	.st139{fill:#D0D9F3;}
	.st140{fill:url(#SVGID_95_);}
	.st141{fill:#AFC0EC;}
	.st142{fill:#DA4453;}
	.st143{fill:#ED5564;}
	.st144{fill:url(#SVGID_96_);filter:url(#Adobe_OpacityMaskFilter_6_);}
	.st145{mask:url(#mask6_1_);}
	.st146{opacity:0.3;fill:#FFFFFF;enable-background:new    ;}
	.st147{fill:#CDBFBA;}
	.st148{fill:#EFE2DD;}
	.st149{fill:#FFF5F5;}
	.st150{fill:#58382E;}
	.st151{fill:#6F4330;}
	.st152{fill:#DA8B8B;}
	.st153{fill:#B36D6D;}
	.st154{fill:url(#SVGID_97_);}
	.st155{fill:#FDBCBC;}
	.st156{fill:url(#SVGID_98_);}
	.st157{fill:#E88080;}
	.st158{fill:none;stroke:#B04141;stroke-width:1.601;}
	.st159{fill:#56B5EA;}
	.st160{fill:none;stroke:#04819D;stroke-width:1.601;}
	.st161{fill:none;stroke:#00237D;stroke-width:1.601;}
	.st162{fill:#C4C4C4;filter:url(#Adobe_OpacityMaskFilter_7_);}
	.st163{mask:url(#mask7_1_);}
	.st164{fill:#ED4C4C;}
	.st165{fill:url(#SVGID_99_);}
	.st166{fill:#C4C4C4;filter:url(#Adobe_OpacityMaskFilter_8_);}
	.st167{mask:url(#mask8_1_);}
	.st168{fill:#FEFEFE;}
	.st169{opacity:0.1;fill:#567FEA;enable-background:new    ;}
	.st170{opacity:0.4;fill:#FFFFFF;enable-background:new    ;}
	.st171{fill:#87CED9;}
	.st172{fill:#6EC1D4;}
	.st173{fill:url(#SVGID_100_);}
	.st174{fill:url(#SVGID_101_);}
	.st175{fill:url(#SVGID_102_);}
	.st176{fill:#5A58C0;}
	.st177{fill:url(#SVGID_103_);}
	.st178{fill:#707BDD;}
	.st179{fill:url(#SVGID_104_);}
	.st180{fill:url(#SVGID_105_);}
	.st181{fill:url(#SVGID_106_);}
	.st182{fill:url(#SVGID_107_);}
	.st183{fill:url(#SVGID_108_);}
	.st184{opacity:0.6;fill:#FFFFFF;enable-background:new    ;}
	.st185{fill:#565DFF;}
	.st186{fill:url(#SVGID_109_);}
	.st187{fill:#9DB2EA;}
	.st188{fill:url(#SVGID_110_);}
	.st189{fill:#C4C4C4;filter:url(#Adobe_OpacityMaskFilter_9_);}
	.st190{mask:url(#mask9_1_);}
	.st191{opacity:0.4;fill:url(#SVGID_111_);enable-background:new    ;}
	.st192{fill:url(#SVGID_112_);}
	.st193{fill:#DB8D8D;}
	.st194{fill:#567FEA;filter:url(#Adobe_OpacityMaskFilter_10_);}
	.st195{mask:url(#mask10_1_);}
	.st196{fill:#29186D;}
	.st197{fill:url(#SVGID_113_);}
	.st198{fill:url(#SVGID_114_);}
	.st199{fill:url(#SVGID_115_);}
	.st200{fill:url(#SVGID_116_);}
	.st201{fill:url(#SVGID_117_);}
	.st202{fill:url(#SVGID_118_);}
	.st203{fill:url(#SVGID_119_);}
	.st204{fill:url(#SVGID_120_);}
</style>
<g class="st0">
	<path class="st1" d="M313.2,154.7L313.2,154.7c4.7,0,8.6,3.8,8.6,8.6v47.9c0,4.7-3.8,8.6-8.6,8.6l0,0c-4.7,0-8.6-3.8-8.6-8.6v-47.9
		C304.6,158.5,308.4,154.7,313.2,154.7z"/>
	<path class="st1" d="M280.7,187.2L280.7,187.2c0-4.7,3.8-8.6,8.6-8.6h47.9c4.7,0,8.6,3.8,8.6,8.6v0c0,4.7-3.8,8.6-8.6,8.6h-47.9
		C284.5,195.7,280.7,191.9,280.7,187.2z"/>
</g>
<path class="st2" d="M349.2,133.7L349.2,133.7c2,0,3.6,1.6,3.6,3.6v19.9c0,2-1.6,3.6-3.6,3.6h0c-2,0-3.6-1.6-3.6-3.6v-19.9
	C345.6,135.3,347.2,133.7,349.2,133.7z"/>
<path class="st2" d="M335.7,147.2L335.7,147.2c0-2,1.6-3.6,3.6-3.6h19.9c2,0,3.6,1.6,3.6,3.6v0c0,2-1.6,3.6-3.6,3.6h-19.9
	C337.3,150.7,335.7,149.1,335.7,147.2z"/>
<g class="st3">
	
		<linearGradient id="SVGID_1_" gradientUnits="userSpaceOnUse" x1="1272.5482" y1="146.2418" x2="103.3632" y2="107.3379" gradientTransform="matrix(1 0 0 -1 0 895.3203)">
		<stop  offset="0" style="stop-color:#FFFFFF;stop-opacity:0.45"/>
		<stop  offset="1" style="stop-color:#FFFFFF;stop-opacity:0"/>
	</linearGradient>
	<path class="st4" d="M1314,766.8c-51.4-25.4-23.1-45.4-15.7-49.4c76.3-16,50.7-31.6,28.3-37.4c-54.5-18.2-166.7-13.8-215.9-9.4
		c-85.5,22.5-225.7,15.6-285.1,9.4c-119.1-5.3-254.3,2.2-307.1,6.7c-110.7,6.4-74.8,23.2-43,30.7c22.6-1.1,9.4,12.9,0,20
		c-117.4,77,15.4,86.4,96.4,81.5c88.9-7.5,150.2,7.6,169.8,16c95.6,32.1,215.2,13.4,263.1,0c88.9-17.1,188.7-11.6,227.5-6.7
		C1412.6,841.1,1361.9,792.6,1314,766.8z"/>
	
		<linearGradient id="SVGID_2_" gradientUnits="userSpaceOnUse" x1="504.9464" y1="135.7276" x2="1472.1824" y2="157.2736" gradientTransform="matrix(1 0 0 -1 0 895.3203)">
		<stop  offset="0" style="stop-color:#67BBE0"/>
		<stop  offset="0.9941" style="stop-color:#75C1E2;stop-opacity:0.25"/>
	</linearGradient>
	<path class="st5" d="M486.1,761.3c-2.2-27.6,15.5-31.2,24.6-29.5c26.2,5.9,108.4-9,146.2-17.2c127.9-27.6,241.9-11.5,282.8,0
		c55.8,13.8,97,12.3,110.7,9.8c24.1-5.9,70.1-2.5,90.2,0c41.5,5.9,75.6,10.7,87.5,12.3c94,21.7,18.2,38.6-31.4,44.3
		c-39.3,9.8-158.5,9-213.1,7.4c-39.4,0-80.2,8.2-95.7,12.3c-55.7,9.8-100.7,4.1-116.1,0c-28.4-3.9-72-9.8-90.2-12.3
		c-67-9.8-114.8,0-118.9,0C503.6,800.2,487,775.3,486.1,761.3z"/>
</g>
<linearGradient id="SVGID_3_" gradientUnits="userSpaceOnUse" x1="1373.1836" y1="885.3901" x2="1224.8735" y2="707.514" gradientTransform="matrix(1 0 0 -1 0 895.3203)">
	<stop  offset="0" style="stop-color:#56B5EA;stop-opacity:0.59"/>
	<stop  offset="1" style="stop-color:#4B41B9"/>
</linearGradient>
<path class="st6" d="M1160.8,20.7h156.7c17.8,0,32.1,14.4,32.1,32.1v235.7c0,17.8-14.4,32.1-32.1,32.1h-156.7
	c-17.8,0-32.1-14.4-32.1-32.1V52.8C1128.7,35.1,1143.1,20.7,1160.8,20.7z"/>
<g>
	
		<linearGradient id="SVGID_4_" gradientUnits="userSpaceOnUse" x1="1370.0358" y1="898.009" x2="1071.2157" y2="522.4409" gradientTransform="matrix(1 0 0 -1 0 895.3203)">
		<stop  offset="0" style="stop-color:#E1E2FF"/>
		<stop  offset="1" style="stop-color:#FFFFFF"/>
	</linearGradient>
	<path class="st7" d="M1153.7,13.7h172c16.6,0,30,13.4,30,30v235c0,16.6-13.4,30-30,30h-172c-16.6,0-30-13.4-30-30v-235
		C1123.7,27.1,1137.1,13.7,1153.7,13.7z"/>
</g>
<linearGradient id="SVGID_5_" gradientUnits="userSpaceOnUse" x1="359.9131" y1="677.2055" x2="662.7332" y2="782.0035" gradientTransform="matrix(1 0 0 -1 0 895.3203)">
	<stop  offset="0" style="stop-color:#A6BFFF"/>
	<stop  offset="1" style="stop-color:#4CE1C6"/>
</linearGradient>
<path class="st8" d="M495.7,8.7h153c16.6,0,30,13.4,30,30v212c0,16.6-13.4,30-30,30h-153c-16.6,0-30-13.4-30-30v-212
	C465.7,22.1,479.1,8.7,495.7,8.7z"/>
<linearGradient id="SVGID_6_" gradientUnits="userSpaceOnUse" x1="1047.8392" y1="895.5901" x2="906.7072" y2="633.2562" gradientTransform="matrix(1 0 0 -1 0 895.3203)">
	<stop  offset="0" style="stop-color:#56B5EA;stop-opacity:0.59"/>
	<stop  offset="1" style="stop-color:#4B41B9"/>
</linearGradient>
<path class="st9" d="M760.3,68.5h319.9c17.8,0,32.1,14.4,32.1,32.1v272.2c0,17.8-14.4,32.1-32.1,32.1H760.3
	c-17.8,0-32.1-14.4-32.1-32.1V100.7C728.2,82.9,742.6,68.5,760.3,68.5z"/>
<g>
	
		<linearGradient id="SVGID_7_" gradientUnits="userSpaceOnUse" x1="1031.4332" y1="910.1316" x2="736.5352" y2="372.0682" gradientTransform="matrix(1 0 0 -1 0 895.3203)">
		<stop  offset="0" style="stop-color:#E1E2FF"/>
		<stop  offset="1" style="stop-color:#FFFFFF"/>
	</linearGradient>
	<path class="st10" d="M740.7,51.7h324.2c16.6,0,30,13.4,30,30v276.5c0,16.6-13.4,30-30,30H740.7c-16.6,0-30-13.4-30-30V81.7
		C710.7,65.1,724.1,51.7,740.7,51.7z"/>
</g>
<linearGradient id="SVGID_8_" gradientUnits="userSpaceOnUse" x1="764.7051" y1="588.9353" x2="1101.7102" y2="593.9353" gradientTransform="matrix(1 0 0 -1 0 895.3203)">
	<stop  offset="1.248310e-02" style="stop-color:#C86767"/>
	<stop  offset="1" style="stop-color:#FBAEAE"/>
</linearGradient>
<path class="st11" d="M791.2,298.7h247c3,0,5.5,2.5,5.5,5.5l0,0c0,3-2.5,5.5-5.5,5.5h-247c-3,0-5.5-2.5-5.5-5.5l0,0
	C785.7,301.1,788.1,298.7,791.2,298.7z"/>
<linearGradient id="SVGID_9_" gradientUnits="userSpaceOnUse" x1="741.5668" y1="668.7463" x2="839.5438" y2="669.6763" gradientTransform="matrix(1 0 0 -1 0 895.3203)">
	<stop  offset="1.248310e-02" style="stop-color:#8DADFF"/>
	<stop  offset="1" style="stop-color:#C6D6FF"/>
</linearGradient>
<path class="st12" d="M750.2,223.7h70c1.4,0,2.5,1.1,2.5,2.5l0,0c0,1.4-1.1,2.5-2.5,2.5h-70c-1.4,0-2.5-1.1-2.5-2.5l0,0
	C747.7,224.8,748.8,223.7,750.2,223.7z"/>
<linearGradient id="SVGID_10_" gradientUnits="userSpaceOnUse" x1="741.5668" y1="658.7463" x2="839.5438" y2="659.6763" gradientTransform="matrix(1 0 0 -1 0 895.3203)">
	<stop  offset="1.248310e-02" style="stop-color:#8DADFF"/>
	<stop  offset="1" style="stop-color:#C6D6FF"/>
</linearGradient>
<path class="st13" d="M750.2,233.7h70c1.4,0,2.5,1.1,2.5,2.5l0,0c0,1.4-1.1,2.5-2.5,2.5h-70c-1.4,0-2.5-1.1-2.5-2.5l0,0
	C747.7,234.8,748.8,233.7,750.2,233.7z"/>
<linearGradient id="SVGID_11_" gradientUnits="userSpaceOnUse" x1="740.5668" y1="649.7463" x2="838.5438" y2="650.6763" gradientTransform="matrix(1 0 0 -1 0 895.3203)">
	<stop  offset="1.248310e-02" style="stop-color:#8DADFF"/>
	<stop  offset="1" style="stop-color:#C6D6FF"/>
</linearGradient>
<path class="st14" d="M749.2,242.7h70c1.4,0,2.5,1.1,2.5,2.5l0,0c0,1.4-1.1,2.5-2.5,2.5h-70c-1.4,0-2.5-1.1-2.5-2.5l0,0
	C746.7,243.8,747.8,242.7,749.2,242.7z"/>
<linearGradient id="SVGID_12_" gradientUnits="userSpaceOnUse" x1="996.5659" y1="799.7463" x2="1094.5458" y2="800.6763" gradientTransform="matrix(1 0 0 -1 0 895.3203)">
	<stop  offset="1.248310e-02" style="stop-color:#5ECFE8"/>
	<stop  offset="1" style="stop-color:#C6D6FF"/>
</linearGradient>
<path class="st15" d="M1005.2,92.7h70c1.4,0,2.5,1.1,2.5,2.5l0,0c0,1.4-1.1,2.5-2.5,2.5h-70c-1.4,0-2.5-1.1-2.5-2.5l0,0
	C1002.7,93.8,1003.8,92.7,1005.2,92.7z"/>
<linearGradient id="SVGID_13_" gradientUnits="userSpaceOnUse" x1="996.5659" y1="789.7463" x2="1094.5458" y2="790.6763" gradientTransform="matrix(1 0 0 -1 0 895.3203)">
	<stop  offset="1.248310e-02" style="stop-color:#5ECFE8"/>
	<stop  offset="1" style="stop-color:#C6D6FF"/>
</linearGradient>
<path class="st16" d="M1005.2,102.7h70c1.4,0,2.5,1.1,2.5,2.5l0,0c0,1.4-1.1,2.5-2.5,2.5h-70c-1.4,0-2.5-1.1-2.5-2.5l0,0
	C1002.7,103.8,1003.8,102.7,1005.2,102.7z"/>
<linearGradient id="SVGID_14_" gradientUnits="userSpaceOnUse" x1="995.5659" y1="780.7463" x2="1093.5458" y2="781.6763" gradientTransform="matrix(1 0 0 -1 0 895.3203)">
	<stop  offset="1.248310e-02" style="stop-color:#5ECFE8"/>
	<stop  offset="1" style="stop-color:#C6D6FF"/>
</linearGradient>
<path class="st17" d="M1004.2,111.7h70c1.4,0,2.5,1.1,2.5,2.5l0,0c0,1.4-1.1,2.5-2.5,2.5h-70c-1.4,0-2.5-1.1-2.5-2.5l0,0
	C1001.7,112.8,1002.8,111.7,1004.2,111.7z"/>
<linearGradient id="SVGID_15_" gradientUnits="userSpaceOnUse" x1="771.1927" y1="569.1011" x2="1003.7256" y2="571.4811" gradientTransform="matrix(1 0 0 -1 0 895.3203)">
	<stop  offset="1.248310e-02" style="stop-color:#C86767"/>
	<stop  offset="1" style="stop-color:#FBAEAE"/>
</linearGradient>
<path class="st18" d="M791.2,319.7h167c3,0,5.5,2.5,5.5,5.5l0,0c0,3-2.5,5.5-5.5,5.5h-167c-3,0-5.5-2.5-5.5-5.5l0,0
	C785.7,322.1,788.1,319.7,791.2,319.7z"/>
<linearGradient id="SVGID_16_" gradientUnits="userSpaceOnUse" x1="729.5001" y1="949.8508" x2="729.5001" y2="713.1398" gradientTransform="matrix(-0.9976 6.853650e-02 -6.853650e-02 -0.9976 1986.1506 1432.9138)">
	<stop  offset="0" style="stop-color:#9594CA"/>
	<stop  offset="1" style="stop-color:#5A5386"/>
</linearGradient>
<path class="st19" d="M1193.3,535.3L1193.3,535.3c-1.5,0.1-2.6,1.4-2.5,2.9l15.9,230.8c0.1,1.5,1.4,2.6,2.9,2.5l0,0
	c1.5-0.1,2.6-1.4,2.5-2.9l-15.9-230.8C1196,536.3,1194.7,535.2,1193.3,535.3z"/>
<linearGradient id="SVGID_17_" gradientUnits="userSpaceOnUse" x1="1089.4573" y1="331.6537" x2="1089.4573" y2="94.9427" gradientTransform="matrix(0.9976 6.853645e-02 6.853645e-02 -0.9976 -15.8025 791.4998)">
	<stop  offset="0" style="stop-color:#9594CA"/>
	<stop  offset="1" style="stop-color:#5A5386"/>
</linearGradient>
<path class="st20" d="M1093.8,535.3L1093.8,535.3c1.5,0.1,2.6,1.4,2.5,2.9l-15.9,230.8c-0.1,1.5-1.4,2.6-2.9,2.5h0
	c-1.5-0.1-2.6-1.4-2.5-2.9l15.9-230.8C1091.1,536.3,1092.3,535.2,1093.8,535.3z"/>
<linearGradient id="SVGID_18_" gradientUnits="userSpaceOnUse" x1="808.0494" y1="915.0717" x2="717.6534" y2="902.0717" gradientTransform="matrix(-1 0 0 -1 1953.3694 1445.3203)">
	<stop  offset="0" style="stop-color:#9594CA"/>
	<stop  offset="1" style="stop-color:#5A5386"/>
</linearGradient>
<path class="st21" d="M1213.5,523.7H1079c-3.7,0-6.7,3-6.7,6.7v0c0,3.7,3,6.7,6.7,6.7h134.5c3.7,0,6.7-3,6.7-6.7v0
	C1220.2,526.7,1217.2,523.7,1213.5,523.7z"/>
<linearGradient id="SVGID_19_" gradientUnits="userSpaceOnUse" x1="1064.4325" y1="287.2327" x2="1136.2625" y2="388.7487" gradientTransform="matrix(1 0 0 -1 0 895.3203)">
	<stop  offset="0" style="stop-color:#4A57A8"/>
	<stop  offset="1" style="stop-color:#747CB3"/>
</linearGradient>
<path class="st22" d="M1023.2,566.2c3-4-10-4.5-10-9.5l12.5-7l113.5,28.5l20.6,18.2c0.2,0.1,0.3,0.2,0.4,0.3l-0.4-0.3
	c-2.6-1.1-16.3,5.9-34.1,8.3c-33,4.5-68.5-19-95-26C1019.1,578.7,1018.7,572.2,1023.2,566.2z"/>
<path class="st23" d="M1111.9,729.9c8.2,5.3-4.6,25.8-12,35.4l-13.3,1.7l12.7-26.1C1104.5,730.4,1109.9,729.2,1111.9,729.9z"/>
<path class="st24" d="M1084.7,736.9c0-8.3-0.8-21.1-2.2-26l13.7-7.8l3.2,9.5l4.8,8.7c6.4,7.9,12.2,12.7,4.2,21
	c-5.8,6.1-12.2,34.7-22.4,40.3c-11.2,2.3-6.3-7.3-4.9-12.8C1083.3,761.5,1084.7,748.3,1084.7,736.9z"/>
<path class="st24" d="M1049.5,540.3c19.4-1.5,35.7,9.1,41.4,14.6c-22.8,27.3-16,51.6-14.2,60.6c2.6,12.9,16.8,81.5,21.1,92.4
	c-15.1,6.7-8.6,5.6-14.7,7.6c-8.1-32.7-47.9-117-52.2-135.2C1025.3,553.1,1041,540.3,1049.5,540.3z"/>
<linearGradient id="SVGID_20_" gradientUnits="userSpaceOnUse" x1="1075.4148" y1="253.6002" x2="1075.4148" y2="208.9542" gradientTransform="matrix(1 0 0 -1 0 895.3203)">
	<stop  offset="0" style="stop-color:#BC8660"/>
	<stop  offset="1" style="stop-color:#BC8660;stop-opacity:0"/>
</linearGradient>
<path class="st25" d="M1073.8,688.9c1.9-4.2,4.8-25.5,8.3-42l-0.8-4.9l-12.6,32.5C1070,678.9,1072.3,685.7,1073.8,688.9z"/>
<path class="st26" d="M1014.1,746c3.1-6.6,13.2-24.5,14.6-29.3l14.3,6.4l-8,24.6c-1.9,7.2-1.6,16.2-4.4,23.4
	c-4.7,11.9-11,16.3-27.5,14.5c-13.6-3.6-5-14.3-1.5-18.9C1006.5,760.4,1009.6,755.6,1014.1,746z"/>
<path class="st26" d="M1073.7,562.2c2.8-1.8,21.1-15.4,36.6-22.7c23.9,0,19.7-5.5,30.9-5.5c13.2,0.8,10.5-0.2,19.2-6
	c1.4,4.8-13.4,15.7-19.2,25.8c-12.7,22.1-40.8,50.3-47.6,56.8c-12.9,49.8-42.9,95-51.3,114.1c-8-3.7-8.3-4.3-14-7.3
	c8.8-17.9,25.7-90.6,28.5-110.9C1061.6,572.1,1070.8,564,1073.7,562.2z"/>
<defs>
	<filter id="Adobe_OpacityMaskFilter" filterUnits="userSpaceOnUse" x="1062.7" y="565.2" width="59.5" height="68.9">
		<feColorMatrix  type="matrix" values="1 0 0 0 0  0 1 0 0 0  0 0 1 0 0  0 0 0 1 0"/>
	</filter>
</defs>
<mask maskUnits="userSpaceOnUse" x="1062.7" y="565.2" width="59.5" height="68.9" id="mask0_1_">
	<path class="st27" d="M1073.7,562.2c2.8-1.8,21.1-15.4,36.6-22.7c23.9,0,19.7-5.5,30.9-5.5c13.2,0.8,10.5-0.2,19.2-6
		c1.4,4.8-13.4,15.7-19.2,25.8c-12.7,22.1-40.8,50.3-47.6,56.8c-12.9,49.8-42.9,95-51.3,114.1c-8-3.7-8.3-4.3-14-7.3
		c8.8-17.9,25.7-90.6,28.5-110.9C1061.6,572.1,1070.8,564,1073.7,562.2z"/>
</mask>
<g class="st28">
	
		<linearGradient id="SVGID_21_" gradientUnits="userSpaceOnUse" x1="1092.4298" y1="328.6501" x2="1092.4298" y2="277.9572" gradientTransform="matrix(1 0 0 -1 0 895.3203)">
		<stop  offset="0" style="stop-color:#BC8660"/>
		<stop  offset="1" style="stop-color:#BC8660;stop-opacity:0"/>
	</linearGradient>
	<path class="st29" d="M1083.4,600.9c-1.8-38.3-19.8-27-20.7-26.4c11.1-12.2,20.4-9.8,23.6-7l35.9,7c-0.8,4-22.5,39.2-35.9,59.6
		C1082.7,635.3,1083.8,609.8,1083.4,600.9z"/>
</g>
<path class="st26" d="M1090.5,258.1c1.8-3.8,5.9-13.7,7.5-17.4c26.1-18.7,42,4.9,47,18.3c4.4,12.5-4.6,23.6-9.6,27.6l12.7,9.3
	c-9.7,16.8-15.9,16.8-25.1,15.9c-6.5-1-5.1-1.1-4-6.1c0.6-2.7-0.7-8-1.9-9.8c-0.7-1.1-5.3-5.6-10.5-5.4
	C1078.5,291.8,1084.3,270.8,1090.5,258.1z"/>
<path class="st26" d="M1115.9,301.2c-0.8-9.5-6.9-10.3-10.6-10.6l-0.8-2.4l31.3-1.3l46.4,26.5c-19.7,28.9-49.6,28.1-62.1,24.1
	c-17.4-5.1-20.7-21.6-20.2-29.2c2.3-0.2,6.6,0.6,8.5,1.1C1114.8,310.5,1116.1,304.4,1115.9,301.2z"/>
<defs>
	<filter id="Adobe_OpacityMaskFilter_1_" filterUnits="userSpaceOnUse" x="1099.9" y="288" width="27.6" height="29.7">
		<feColorMatrix  type="matrix" values="1 0 0 0 0  0 1 0 0 0  0 0 1 0 0  0 0 0 1 0"/>
	</filter>
</defs>
<mask maskUnits="userSpaceOnUse" x="1099.9" y="288" width="27.6" height="29.7" id="mask1_1_">
	<path class="st30" d="M1096.1,245.3c-1.9,4.4-4.3,10.1-5.6,12.8c-6.2,12.5-11.9,33.1,14.9,32.5c3.7,0.3,9.6,1.3,10.4,10.6
		c0.3,3.2-1.1,9.3-7.4,8.2c-1.9-0.4-6.2-1.3-8.5-1.1c-0.5,7.6,2.8,24.1,20.2,29.2c12.5,4,42.3,4.7,62.1-24.1l-46.4-26.5l-0.3-0.2
		c5-4,14-15.1,9.6-27.6c-4.9-13.4-20.9-37-47-18.3C1097.6,241.8,1096.9,243.4,1096.1,245.3z"/>
</mask>
<g class="st31">
	
		<linearGradient id="SVGID_22_" gradientUnits="userSpaceOnUse" x1="1100.4912" y1="599.3161" x2="1116.0612" y2="589.5431" gradientTransform="matrix(1 0 0 -1 0 895.3203)">
		<stop  offset="0" style="stop-color:#E0A780"/>
		<stop  offset="1" style="stop-color:#E0A780;stop-opacity:0"/>
	</linearGradient>
	<path class="st32" d="M1117.7,288.2c-12.6,2.4-14.6,2.2-17.8,2.1v27.3c4.9-5.3,12.6-11.5,21.9-15.9c4.6-3.2,6.5-6.6,5.5-10.1
		C1124.9,288.2,1121.5,287.5,1117.7,288.2z"/>
</g>
<path class="st33" d="M1096.5,258.1c1.8,0.3,3.4,0.7,4.9,1.8c0.7,0.5,1.4,1.1,1.8,1.9"/>
<path class="st34" d="M1096.8,253c2,0,3.9,0.3,5.7,1.4c0.8,0.5,1.8,1.1,2.3,1.9"/>
<path class="st35" d="M1090.2,275c1.4,0.5,2.5,0.5,3.8-0.1c0.8-0.3,1.9-1,2.5-1.7"/>
<linearGradient id="SVGID_23_" gradientUnits="userSpaceOnUse" x1="1110.7014" y1="414.2266" x2="1105.1714" y2="350.3656" gradientTransform="matrix(1 0 0 -1 0 895.3203)">
	<stop  offset="0" style="stop-color:#86D8EA;stop-opacity:0.93"/>
	<stop  offset="1" style="stop-color:#2A41BC"/>
</linearGradient>
<path class="st36" d="M1032.7,513.7c1.7,16,31.5,60,147,39.5C1154.2,525.8,1089.1,479.7,1032.7,513.7z"/>
<linearGradient id="SVGID_24_" gradientUnits="userSpaceOnUse" x1="1122.7137" y1="449.7082" x2="1054.7438" y2="203.6592" gradientTransform="matrix(1 0 0 -1 0 895.3203)">
	<stop  offset="0" style="stop-color:#C1C9FF"/>
	<stop  offset="1" style="stop-color:#6473D4"/>
</linearGradient>
<path class="st37" d="M1073.2,482.8c25.4-18.4,30-35.3,29-41.5l69.6-2.3c0,7.7,4.9,23.2,7.4,30c10.6,33.2,2,40.4-3.2,49.8
	c-4.4,7.4-17.5,28.9-23.5,38.7c-12.6,20.6-3.7,18.3,7.6,39.5c0.4,0.4,0.6,0.9,0.7,1.4c-0.2-0.5-0.5-0.9-0.7-1.4
	c-4-4.3-22.5-2.8-32-1.4c-21,3.3-23.8-4.8-22.6-9.2c6.6-16.2-30.4-9.1-55.8-7.8c-29.9,1.5-23.5-9.3-22-15.3c2-3.5-3.5-1.5-9.5-3
	c-4.6-1.2-5.5-2-6-4.5c0-3.5,7-0.5,12-13.5C1034.5,507.1,1061.4,491.1,1073.2,482.8z"/>
<defs>
	<filter id="Adobe_OpacityMaskFilter_2_" filterUnits="userSpaceOnUse" x="1020.7" y="474.7" width="131" height="127.5">
		<feColorMatrix  type="matrix" values="1 0 0 0 0  0 1 0 0 0  0 0 1 0 0  0 0 0 1 0"/>
	</filter>
</defs>
<mask maskUnits="userSpaceOnUse" x="1020.7" y="474.7" width="131" height="127.5" id="mask2_1_">
	
		<linearGradient id="SVGID_25_" gradientUnits="userSpaceOnUse" x1="1122.7137" y1="449.7082" x2="1054.7438" y2="203.6592" gradientTransform="matrix(1 0 0 -1 0 895.3203)">
		<stop  offset="0" style="stop-color:#C1C9FF"/>
		<stop  offset="1" style="stop-color:#6473D4"/>
	</linearGradient>
	<path class="st38" d="M1073.2,482.8c25.4-18.4,30-35.3,29-41.5l69.6-2.3c0,7.7,4.9,23.2,7.4,30c10.6,33.2,2,40.4-3.2,49.8
		c-4.4,7.4-17.5,28.9-23.5,38.7c-12.6,20.6-3.7,18.3,7.6,39.5c0.4,0.4,0.6,0.9,0.7,1.4c-0.2-0.5-0.5-0.9-0.7-1.4
		c-4-4.3-22.5-2.8-32-1.4c-21,3.3-23.8-4.8-22.6-9.2c6.6-16.2-30.4-9.1-55.8-7.8c-29.9,1.5-23.5-9.3-22-15.3c2-3.5-3.5-1.5-9.5-3
		c-4.6-1.2-5.5-2-6-4.5c0-3.5,7-0.5,12-13.5C1034.5,507.1,1061.4,491.1,1073.2,482.8z"/>
</mask>
<g class="st39">
	
		<linearGradient id="SVGID_26_" gradientUnits="userSpaceOnUse" x1="1081.7653" y1="319.9497" x2="1129.5353" y2="328.4417" gradientTransform="matrix(1 0 0 -1 0 895.3203)">
		<stop  offset="0" style="stop-color:#3C4AA3"/>
		<stop  offset="1" style="stop-color:#7E8BE0;stop-opacity:0"/>
	</linearGradient>
	<path class="st40" d="M1109.7,574.2l12.5-37.5l-2.5,63.5l-19,2L1109.7,574.2z"/>
	
		<linearGradient id="SVGID_27_" gradientUnits="userSpaceOnUse" x1="1005.1072" y1="339.1189" x2="1150.8073" y2="434.8479" gradientTransform="matrix(1 0 0 -1 0 895.3203)">
		<stop  offset="0" style="stop-color:#3C4AA3"/>
		<stop  offset="1" style="stop-color:#7E8BE0;stop-opacity:0"/>
	</linearGradient>
	<path class="st41" d="M1090.2,494.7l-29.5-3l4-8.5l82.5-8.5l4.5,17l-47,3c-14,2.4-31.2,37.7-38,55
		C1071.5,532.1,1084.3,505.7,1090.2,494.7z"/>
	
		<linearGradient id="SVGID_28_" gradientUnits="userSpaceOnUse" x1="1003.0526" y1="327.7848" x2="1048.5625" y2="337.2087" gradientTransform="matrix(1 0 0 -1 0 895.3203)">
		<stop  offset="0" style="stop-color:#3C4AA3"/>
		<stop  offset="1" style="stop-color:#7E8BE0;stop-opacity:0"/>
	</linearGradient>
	<path class="st42" d="M1020.7,587.7l16-55l4,55H1020.7z"/>
</g>
<linearGradient id="SVGID_29_" gradientUnits="userSpaceOnUse" x1="1107.8417" y1="440.1876" x2="1168.1017" y2="580.9376" gradientTransform="matrix(1 0 0 -1 0 895.3203)">
	<stop  offset="0" style="stop-color:#D4E0FF"/>
	<stop  offset="1" style="stop-color:#FFFFFF"/>
</linearGradient>
<path class="st43" d="M1106.2,308.7c-0.1,9.2-9.5,22,10.5,23.5c13,0,18-3.5,43-30.5c6.1,0.8,29.8,16.8,27.5,42.5
	c-1.9,10.4-2.6,33-2.6,43c-5,16.9-11.6,87.3-8.9,100.5c-34-10.5-82.5,4.5-98-10.5c12-9,23-45.5,17.2-70.1
	c-2.7-11.3-13.5-30.5-12.5-41.5c-9.3,8.3,3,20.4-2.3,23.6c-4.2,3.7-11.3,15.1-15.5,1.9c-0.4-1.4-0.8-2.1-1.2-2.3
	c-0.7,2-1.2,3.7-2.1,4.5c-0.5,1.9-0.8,3.2-1.2,0.4c0.5,0,0.9-0.1,1.2-0.4c0.5-2.1,1.1-5.1,2.1-4.5c1-2.9,2.4-6.5,6.2-9.2
	c1.2,3-0.7-6.3-1.3-7.7c-0.1,0.1-0.1,0.1-0.2,0.2c0-0.4,0.1-0.5,0.2-0.2c6.5-6.7,3.6-30.7,11.8-41.8
	C1084.6,322,1095.8,306.1,1106.2,308.7z"/>
<linearGradient id="SVGID_30_" gradientUnits="userSpaceOnUse" x1="1112.5068" y1="465.9761" x2="1173.7769" y2="474.1271" gradientTransform="matrix(1 0 0 -1 0 895.3203)">
	<stop  offset="0" style="stop-color:#8F97D5"/>
	<stop  offset="1" style="stop-color:#F5F7FF;stop-opacity:0"/>
</linearGradient>
<path class="st44" d="M1131.4,454.7c-13.6-68.4,5-127.8,16-149h6.5l10,193.5l-31,46.5c-4-4-2.7-13.3-1.5-17.5
	C1140.2,508.2,1135.1,470.8,1131.4,454.7z"/>
<defs>
	<filter id="Adobe_OpacityMaskFilter_3_" filterUnits="userSpaceOnUse" x="1083.2" y="379.5" width="56.5" height="65">
		<feColorMatrix  type="matrix" values="1 0 0 0 0  0 1 0 0 0  0 0 1 0 0  0 0 0 1 0"/>
	</filter>
</defs>
<mask maskUnits="userSpaceOnUse" x="1083.2" y="379.5" width="56.5" height="65" id="mask3_1_">
	
		<linearGradient id="SVGID_31_" gradientUnits="userSpaceOnUse" x1="1078.6031" y1="452.7057" x2="1138.8632" y2="593.4557" gradientTransform="matrix(1 0 0 -1 0 895.3203)">
		<stop  offset="0" style="stop-color:#D4E0FF"/>
		<stop  offset="1" style="stop-color:#FFFFFF"/>
	</linearGradient>
	<path class="st45" d="M1127,337.3c-20-1.5-24.8-20.3-24.7-29.4c-10.4-2.5-21.8,13.1-26.3,21.2c-8.3,11.2-23.8,26.8-30.5,33.2
		c0-2.8-2.8-10.5-4.2-14.1c-7.4,5.3-16.9,6.3-20.7,6.1c1.1,7,6.8,26.3,9.6,35c4.2,13.2,13.6,9,17.8,5.3c5.3-3.2,25.2-20.6,34.5-28.9
		c-1.1,10.9,9.8,30.1,12.5,41.5c5.7,24.5,7.2,30.8,7.2,36.9c20.2,10.6,54.7,5,70.8,2.1c-2.7-13.3,6.6-42.1,11.7-59
		c0-10.5,3.2-33,5.1-43.5c2.3-25.7-5.1-33.5-11.2-34.3C1161.3,337.6,1137,339.7,1127,337.3z"/>
</mask>
<g class="st46">
	
		<linearGradient id="SVGID_32_" gradientUnits="userSpaceOnUse" x1="1083.3459" y1="486.2229" x2="1105.376" y2="482.7739" gradientTransform="matrix(1 0 0 -1 0 895.3203)">
		<stop  offset="0" style="stop-color:#D0D9F3"/>
		<stop  offset="1" style="stop-color:#D0D9F3;stop-opacity:0"/>
	</linearGradient>
	<path class="st47" d="M1139.7,385.6c-42.2,12.7-51.5,3.7-56.5-6.1l19.9,65C1098.9,429.2,1135.5,395.4,1139.7,385.6z"/>
</g>
<path class="st26" d="M985.8,435.5l16.1-3.7l-4.3,15.9c-6.8-0.1-20.3,5.6-26.2,8.5c-9.3,5.4-9.6,3.5-8.5,1.9
	c1.6-2.4,5.1-5.6,6.6-6.9c-32.8,2.6-35.6-2-32.9-4.6c13.7-7.4,34.2-9.6,42.7-9.8C982.9,436.6,985.2,435.8,985.8,435.5z"/>
<linearGradient id="SVGID_33_" gradientUnits="userSpaceOnUse" x1="1053.0873" y1="503.2061" x2="1134.1873" y2="419.0921" gradientTransform="matrix(1 0 0 -1 0 895.3203)">
	<stop  offset="0" style="stop-color:#3B47B0"/>
	<stop  offset="1" style="stop-color:#15227D"/>
</linearGradient>
<path class="st48" d="M1108,306c0.5-0.3,0.8-0.4,1.2-0.1C1108.8,305.9,1108.4,305.9,1108,306c-2.9,2.2-8.3,17.2-8.3,35.9
	c0,17,6.5,57.5,9.5,77c1.7,11,1.4,27.3-7.5,51.8c-3.8,10.5-16,33.2-20,41.2c-2.5,5-9,17-17,11c-9.2-5.8-20-12.5-32.5-8
	c8.5-26,52.5-39.7,57.5-76.7c0-19.3,0.3-42.7-2.5-45.5c-7.2,13.5-23.6,45.8-46,49l-52,7.7c-1.3-3.8-5.7-11.8-12.5-13
	c15.5-5.8,49.2-16,58-17.6c8.8-1.6,19-13.7,30-41.2C1072.6,353.5,1079.5,309,1108,306z"/>
<linearGradient id="SVGID_34_" gradientUnits="userSpaceOnUse" x1="1057.4539" y1="506.4657" x2="1093.3838" y2="491.6807" gradientTransform="matrix(1 0 0 -1 0 895.3203)">
	<stop  offset="0" style="stop-color:#3B47B0"/>
	<stop  offset="1" style="stop-color:#121B56"/>
</linearGradient>
<path class="st49" d="M1086,362c0.2-2.2,0.4-4,0.7-5.4C1086.5,358.5,1086.3,360.2,1086,362c-0.7,7.4-0.8,18.9,1.7,29.6
	c-4.7,10.5-17.2,33.5-30,41.5C1065.4,422.7,1081.3,394.6,1086,362z"/>
<path class="st50" d="M1187.3,357.7c6,8.6,14,28.3-2.4,39C1182.8,387.3,1180.3,366.3,1187.3,357.7z"/>
<linearGradient id="SVGID_35_" gradientUnits="userSpaceOnUse" x1="1133.4122" y1="473.3831" x2="1211.2422" y2="451.0941" gradientTransform="matrix(1 0 0 -1 0 895.3203)">
	<stop  offset="0" style="stop-color:#3B47B0"/>
	<stop  offset="1" style="stop-color:#15227D"/>
</linearGradient>
<path class="st51" d="M1135,466.7c-10.8-74.8,6.2-141.8,16-166l36.5,7v52c-4.4,26.8,0.2,68.8,3,83c8.8,50.8-3.7,95.5-11,111.5
	c-5.6-2.4-33.7-3-47-3c-6.4,0.4-3.3-10.8-1-16.5C1142.3,510.7,1138.2,489.2,1135,466.7z"/>
<linearGradient id="SVGID_36_" gradientUnits="userSpaceOnUse" x1="1094.4407" y1="594.7531" x2="1151.8506" y2="492.3761" gradientTransform="matrix(1 0 0 -1 0 895.3203)">
	<stop  offset="0" style="stop-color:#BC8660;stop-opacity:0.46"/>
	<stop  offset="1" style="stop-color:#BC8660;stop-opacity:0"/>
</linearGradient>
<path class="st52" d="M1107.1,355.2c4.1,10.3,13.3,31.4,17.4,40.6l19.8-10.7c-3.4-7.4-19-23.6-26.4-30.8c-8.6-8.8-7.2-16.8-5.4-19.7
	c2.5-6,5.6-18.9,6.8-24.6c2-10.2-7.9-18.7-14-23.5c-4.4-3.4-3,6.7,1.1,14.6c2.1,5.4,1.5,10.8,1.5,9.6c0-1-2.8-6-4.2-8.5
	c-4.8-6.5-1.9,2.2,0.1,7.4c1.8,5.4,0.4,9.4-0.5,10.7c-5.8,11.3-2.6,22.5-0.3,26.7C1105.3,350.9,1106.7,354.1,1107.1,355.2z"/>
<linearGradient id="SVGID_37_" gradientUnits="userSpaceOnUse" x1="1129.4092" y1="542.4034" x2="1170.8591" y2="521.4764" gradientTransform="matrix(1 0 0 -1 0 895.3203)">
	<stop  offset="0" style="stop-color:#3B47B0"/>
	<stop  offset="1" style="stop-color:#121B56"/>
</linearGradient>
<path class="st53" d="M1150.6,355.4c2.6-17,9.4-25.5,12.5-27.6L1149,405l-23.1-40.1c8.5,6.6,17,16.4,20.2,20.4L1150.6,355.4z"/>
<path class="st26" d="M1105.2,355.2c4.1,10.3,13.3,31.4,17.4,40.6l19.8-10.7c-3.4-7.4-19-23.6-26.4-30.8c-8.6-8.8-7.2-16.8-5.5-19.7
	c2.5-6,5.6-18.9,6.8-24.6c2-10.2-7.9-18.7-14-23.5c-4.4-3.4-3,6.7,1.1,14.6c2.1,5.4,1.6,10.8,1.5,9.6c0-1-2.8-6-4.2-8.5
	c-4.8-6.5-1.9,2.2,0.1,7.4c1.8,5.4,0.4,9.4-0.6,10.7c-5.8,11.3-2.6,22.5-0.3,26.7C1103.5,350.9,1104.8,354.1,1105.2,355.2z"/>
<defs>
	<filter id="Adobe_OpacityMaskFilter_4_" filterUnits="userSpaceOnUse" x="1099.9" y="347.4" width="26.3" height="46.7">
		<feColorMatrix  type="matrix" values="1 0 0 0 0  0 1 0 0 0  0 0 1 0 0  0 0 0 1 0"/>
	</filter>
</defs>
<mask maskUnits="userSpaceOnUse" x="1099.9" y="347.4" width="26.3" height="46.7" id="mask4_1_">
	<path class="st54" d="M1105.2,355.2c4.1,10.3,13.3,31.4,17.4,40.6l19.8-10.7c-3.4-7.4-19-23.6-26.4-30.8
		c-8.6-8.8-7.2-16.8-5.5-19.7c2.5-6,5.6-18.9,6.8-24.6c2-10.2-7.9-18.7-14-23.5c-4.4-3.4-3,6.7,1.1,14.6c2.1,5.4,1.6,10.8,1.5,9.6
		c0-1-2.8-6-4.2-8.5c-4.8-6.5-1.9,2.2,0.1,7.4c1.8,5.4,0.4,9.4-0.6,10.7c-5.8,11.3-2.6,22.5-0.3,26.7
		C1103.5,350.9,1104.8,354.1,1105.2,355.2z"/>
</mask>
<g class="st55">
	
		<linearGradient id="SVGID_38_" gradientUnits="userSpaceOnUse" x1="1097.0745" y1="539.8401" x2="1120.6844" y2="502.4312" gradientTransform="matrix(1 0 0 -1 0 895.3203)">
		<stop  offset="0" style="stop-color:#FFF1E8"/>
		<stop  offset="1" style="stop-color:#FFF1E8;stop-opacity:0"/>
	</linearGradient>
	<path class="st56" d="M1126.2,391.4l-26.3-44l13.5,46.7L1126.2,391.4z"/>
</g>
<path class="st57" d="M1109.8,303.6l-6.1-14.1l6.9,13.8c1.5,3.8,0.8,9.2,0.3,11.4C1111,308.2,1110.2,304.6,1109.8,303.6z"/>
<path class="st57" d="M1113.6,301.3c-0.7-1.5-3.2-7-4.7-9.6c1.5,1.7,4.7,7.4,5.5,9.8c0.6,2.6,0.1,7.2-0.2,8.3
	C1114.4,306.9,1114.1,302.8,1113.6,301.3z"/>
<linearGradient id="SVGID_39_" gradientUnits="userSpaceOnUse" x1="1124.2247" y1="553.9916" x2="1193.4948" y2="496.7266" gradientTransform="matrix(1 0 0 -1 0 895.3203)">
	<stop  offset="0" style="stop-color:#3B47B0"/>
	<stop  offset="1" style="stop-color:#15227D"/>
</linearGradient>
<path class="st58" d="M1153.5,363.5c4.2-36.7,15-42.5,19.9-40.9c26.3,0,8.1,64.6-4.2,96.8c-10.8,30.1-55-25.8-65.5-61.8
	c7.6,0,5.1-6.6,8-13l36,43.5L1153.5,363.5z"/>
<linearGradient id="SVGID_40_" gradientUnits="userSpaceOnUse" x1="1234.8431" y1="582.402" x2="1067.9231" y2="596.819" gradientTransform="matrix(1 0 0 -1 0 895.3203)">
	<stop  offset="0" style="stop-color:#140D3E"/>
	<stop  offset="1" style="stop-color:#686277"/>
</linearGradient>
<path class="st59" d="M1117.7,259.9c-14.8-5.2-18.4-13.1-19.1-17.8c-1.5,2.5-3.6,3.3-3.4,6.3c-6.1-25.8,12.4-33.8,26.9-33.8
	c35.6,0,45.5,20.5,50.6,38.8c4.1,14.7,14.3,20.7,21.5,24c46.8,19.6,31.3,39.2,22.5,57c-5.1,10.2,0.8,18.3,5.5,23
	c13.4,15.7-6.2,31-18.5,34c-12.8,2.4-18,5-19,6c15.2-21.2,7.4-32.3,1.5-37c-12.3-9.8-13.5-18.8-13.5-28c0.8-21.2-11.1-23.6-20.5-23
	c-25.2,1.6-26.3-13.3-24.5-22.5C1131.3,268.9,1122.6,261.4,1117.7,259.9z"/>
<path class="st26" d="M1084.2,266c0.4-0.4,3.7-3.2,5.3-4.5l-2.4,7.4C1083.9,267,1083.8,266.1,1084.2,266z"/>
<g class="st3">
	<circle class="st60" cx="1104.7" cy="268.3" r="4.8"/>
</g>
<ellipse class="st61" cx="1097.3" cy="260.6" rx="0.8" ry="1.6"/>
<linearGradient id="SVGID_41_" gradientUnits="userSpaceOnUse" x1="1009.6332" y1="101.2114" x2="1015.0533" y2="136.5754" gradientTransform="matrix(1 0 0 -1 0 895.3203)">
	<stop  offset="0" style="stop-color:#DECEFF"/>
	<stop  offset="1" style="stop-color:#F3E3FF"/>
</linearGradient>
<path class="st62" d="M1031.3,773.4c-8.1-16.2-24-14.1-30.9-11.1c-12.9,17.7-3.8,24,2.3,24.9
	C1020.8,791.2,1029.3,779.7,1031.3,773.4z"/>
<linearGradient id="SVGID_42_" gradientUnits="userSpaceOnUse" x1="1082.5907" y1="104.1206" x2="1089.8507" y2="138.3047" gradientTransform="matrix(1 0 0 -1 0 895.3203)">
	<stop  offset="0" style="stop-color:#DECEFF"/>
	<stop  offset="1" style="stop-color:#F3E3FF"/>
</linearGradient>
<path class="st63" d="M1100.9,763.7c-8.5-7-19.2-5.7-23.5-4.1c-6.6,20.3-1.2,26,2.3,26.3C1092.6,786.2,1099.2,771.2,1100.9,763.7z"
	/>
<linearGradient id="SVGID_43_" gradientUnits="userSpaceOnUse" x1="729.5001" y1="949.8508" x2="729.5001" y2="713.1398" gradientTransform="matrix(-0.9976 6.853650e-02 -6.853650e-02 -0.9976 1408.5177 1437.9138)">
	<stop  offset="0" style="stop-color:#9594CA"/>
	<stop  offset="1" style="stop-color:#5A5386"/>
</linearGradient>
<path class="st64" d="M615.6,540.3L615.6,540.3c-1.5,0.1-2.6,1.4-2.5,2.9L629,773.9c0.1,1.5,1.4,2.6,2.9,2.5l0,0
	c1.5-0.1,2.6-1.4,2.5-2.9l-15.9-230.8C618.4,541.3,617.1,540.2,615.6,540.3z"/>
<linearGradient id="SVGID_44_" gradientUnits="userSpaceOnUse" x1="511.8252" y1="326.6537" x2="511.8252" y2="89.9427" gradientTransform="matrix(0.9976 6.853645e-02 6.853645e-02 -0.9976 -16.8181 831.1005)">
	<stop  offset="0" style="stop-color:#9594CA"/>
	<stop  offset="1" style="stop-color:#5A5386"/>
</linearGradient>
<path class="st65" d="M516.2,540.3L516.2,540.3c1.5,0.1,2.6,1.4,2.5,2.9l-15.9,230.8c-0.1,1.5-1.4,2.6-2.9,2.5h0
	c-1.5-0.1-2.6-1.4-2.5-2.9l15.9-230.8C513.4,541.3,514.7,540.2,516.2,540.3z"/>
<linearGradient id="SVGID_45_" gradientUnits="userSpaceOnUse" x1="808.6412" y1="915.3085" x2="709.6133" y2="891.3085" gradientTransform="matrix(-1 0 0 -1 1375.7384 1450.3203)">
	<stop  offset="0" style="stop-color:#9594CA"/>
	<stop  offset="1" style="stop-color:#5A5386"/>
</linearGradient>
<path class="st66" d="M635.9,528.7H501.4c-3.7,0-6.7,3-6.7,6.7v0c0,3.7,3,6.7,6.7,6.7h134.5c3.7,0,6.7-3,6.7-6.7v0
	C642.6,531.7,639.6,528.7,635.9,528.7z"/>
<path class="st67" d="M637.5,277.2c-16.7-11-46.3-5.4-59-0.8c-4.1,3.1-3.8,14.7-3.3,19.9l70.5-8.3
	C643,284.7,637.5,278.1,637.5,277.2z"/>
<path class="st68" d="M657,232.6c-1-4.8-2.7-15.3-3.5-19.9c-23.4-28.3-47.3-8-56.3,5.7c-8.2,12.9-1.4,27.9,3,33.8l-8.3,18.3
	c6,21.5,20,18.6,30.2,20.1c7.4,0.7,11.6-8.4,13-14c-2.3-1.5-6.2-3.8-7.3-4.6c-1.2-0.8,1.9-5.8,2.9-7.4
	C659.9,277.3,660.4,248.6,657,232.6z"/>
<path class="st68" d="M661.2,242.3c-0.4-0.8-3.5-5.9-5-8.4l-0.2,10.9C661.1,243.7,661.6,242.6,661.2,242.3z"/>
<linearGradient id="SVGID_46_" gradientUnits="userSpaceOnUse" x1="636.9497" y1="635.9365" x2="623.5367" y2="624.4985" gradientTransform="matrix(1 0 0 -1 0 895.3203)">
	<stop  offset="0" style="stop-color:#E0A780"/>
	<stop  offset="1" style="stop-color:#E0A780;stop-opacity:0"/>
</linearGradient>
<path class="st69" d="M630.6,264.6c-2.6-1.2-5.2-2.8-7.7-4.7c-3.2-2.5-9.4-5.1,2.3,22c0.5,0,4.9-2,9.8-5c0-0.1,0.1-0.2,0.1-0.3
	c-1.4-0.9-3.2-2.1-4.8-3c-1.1-0.7-2-1.3-2.5-1.6c-1.2-0.8,1.5-5.1,2.6-7C630.5,264.8,630.6,264.7,630.6,264.6z"/>
<path class="st70" d="M650.2,229.5c1.1,0.4,0.9,1.3,0.1,2.1c-0.6,0.7-1.8-0.1-1.8-0.9c0-1.5,1.1-1.7,2.1-1.2c0.6,0.3,0,1.4-0.3,1.7
	c-0.6,0.8-2-0.2-1.1-0.8c0.5-0.4,1.5,0,0.8,0.7c-0.3,0.3-0.5-0.3-0.3-0.5c0.2-0.2,0.4,0,0.4,0.1"/>
<path class="st70" d="M650.2,226.1c-2-0.1-3.9,0-5.8,0.9c-0.8,0.4-1.8,0.9-2.4,1.7"/>
<path class="st70" d="M652.8,251.7c-1.7,0.2-2.8-0.2-4.2-1.2c-0.8-0.6-1.8-1.6-2.3-2.6"/>
<linearGradient id="SVGID_47_" gradientUnits="userSpaceOnUse" x1="571.6192" y1="368.7641" x2="593.1092" y2="345.8711" gradientTransform="matrix(1 0 0 -1 0 895.3203)">
	<stop  offset="0.182" style="stop-color:#91A6DF"/>
	<stop  offset="1" style="stop-color:#BECAEB"/>
</linearGradient>
<path class="st71" d="M589.3,549.4c8.4-2.6,14.8-2.7,17.7-3.1l-16.5-13.1c-7.7,1.2-12.4,6.7-13.9,9.2
	C572,553.6,582.8,550.7,589.3,549.4z"/>
<linearGradient id="SVGID_48_" gradientUnits="userSpaceOnUse" x1="692.9633" y1="406.5197" x2="704.3232" y2="394.4977" gradientTransform="matrix(1 0 0 -1 0 895.3203)">
	<stop  offset="0.182" style="stop-color:#91A6DF"/>
	<stop  offset="1" style="stop-color:#BECAEB"/>
</linearGradient>
<path class="st72" d="M695.9,503.3c6.2-2.5,11.8-6.4,13.9-8.1l-16.5-1.2L695.9,503.3z"/>
<path class="st73" d="M688.2,506.3l3.1-4.3c-0.9-1.3-7.2-3.9-10.2-5.1L688.2,506.3z"/>
<path class="st74" d="M700.7,754.4c-2.3,9.3,23.8,10.6,37.1,10.1c20.6-2.8,8.3-11-0.4-14.7C711.2,746.1,702,751.3,700.7,754.4z"/>
<path class="st74" d="M609,762.4c-3.8,8.8,21.8,14.2,35.1,15.8c20.8,0.5,10-9.5,2-14.6C620.6,755.7,610.7,759.5,609,762.4z"/>
<path class="st68" d="M614.9,754.5c2.8-4.3,7.1-18.5,8.8-25l20,3.5c-0.3,9.2,12.2,20.5,18.5,25c4.9,3.7,16.2,11.3,21.2,14.6
	c15.7,11.1-4,9-15.8,6.5c-11.1-2.8-27.7-4.7-34.6-5.4C610.8,771.3,611.7,759.9,614.9,754.5z"/>
<linearGradient id="SVGID_49_" gradientUnits="userSpaceOnUse" x1="650.2463" y1="166.164" x2="620.9523" y2="155.336" gradientTransform="matrix(1 0 0 -1 0 895.3203)">
	<stop  offset="0" style="stop-color:#BC8660"/>
	<stop  offset="1" style="stop-color:#BC8660;stop-opacity:0"/>
</linearGradient>
<path class="st75" d="M645.6,738.6c-6.9,1.1-21.8,4.3-26.3,8.8c1.4-4.6,4.2-14.1,4.6-15.2c0.2-0.5,0.2-0.8,0.2-0.9l-0.2,0
	c0.1-0.1,0.2-0.1,0.2,0l21,1.4C644.8,733.7,644.5,736.4,645.6,738.6z"/>
<linearGradient id="SVGID_50_" gradientUnits="userSpaceOnUse" x1="667.9976" y1="133.8969" x2="636.6596" y2="126.0629" gradientTransform="matrix(1 0 0 -1 0 895.3203)">
	<stop  offset="0" style="stop-color:#BC8660"/>
	<stop  offset="1" style="stop-color:#BC8660;stop-opacity:0"/>
</linearGradient>
<path class="st76" d="M634,773.1c1.8-10,14.9-18,21.2-20.7l5.1,3.7l-2.8,20.3L634,773.1z"/>
<path class="st68" d="M708.1,746.4c2.1-4.7,4.1-19.3,4.9-26.1l20.3,0.4c1.1,9.2,15.2,18.4,22.1,21.9c5.4,2.9,17.7,8.7,23.2,11.2
	c17.2,8.5-2.6,9.5-14.6,8.9c-11.4-1-28.1-0.4-35,0C706.7,763.6,705.8,752.2,708.1,746.4z"/>
<linearGradient id="SVGID_51_" gradientUnits="userSpaceOnUse" x1="737.8223" y1="180.1203" x2="710.7163" y2="164.6064" gradientTransform="matrix(1 0 0 -1 0 895.3203)">
	<stop  offset="0" style="stop-color:#BC8660"/>
	<stop  offset="1" style="stop-color:#BC8660;stop-opacity:0"/>
</linearGradient>
<path class="st77" d="M734.8,725.3c-6.6,2.2-20.8,7.9-24.5,13c0.6-4.8,1.9-14.6,2-15.8c0.1-0.5,0.1-0.8,0-0.9l-0.2,0
	c0.1-0.1,0.2-0.2,0.2,0l20.9-2.1C733.2,720.6,733.3,723.3,734.8,725.3z"/>
<linearGradient id="SVGID_52_" gradientUnits="userSpaceOnUse" x1="762.0204" y1="149.7936" x2="732.0654" y2="137.7046" gradientTransform="matrix(1 0 0 -1 0 895.3203)">
	<stop  offset="0" style="stop-color:#BC8660"/>
	<stop  offset="1" style="stop-color:#BC8660;stop-opacity:0"/>
</linearGradient>
<path class="st78" d="M730,761.8c0.5-10.1,12.3-19.9,18.1-23.5l5.5,3l0.1,20.5L730,761.8z"/>
<linearGradient id="SVGID_53_" gradientUnits="userSpaceOnUse" x1="649.4808" y1="440.5208" x2="649.4808" y2="158.7042" gradientTransform="matrix(1 0 0 -1 0 895.3203)">
	<stop  offset="0" style="stop-color:#5352A1"/>
	<stop  offset="1" style="stop-color:#271B72"/>
</linearGradient>
<path class="st79" d="M644.9,560l-65.4-21.2c-52.3-16.9-35.7-48.6-20.8-62.3c34.5-23.4,77.7-23.3,95-20.4l81.6,71.2
	c16.9,14.8,20.1,28,19.6,32.7l-18.1,160.8h-29.1l-5.6-154.7l-55,170.4l-27.3-2.7c0-18.8,16.7-107.9,25-150
	C648.7,564.8,647.4,561.4,644.9,560z"/>
<linearGradient id="SVGID_54_" gradientUnits="userSpaceOnUse" x1="628.5306" y1="437.8878" x2="640.8895" y2="338.9678" gradientTransform="matrix(1 0 0 -1 0 895.3203)">
	<stop  offset="0" style="stop-color:#2A1D63;stop-opacity:0.46"/>
	<stop  offset="1" style="stop-color:#493B99"/>
</linearGradient>
<path class="st80" d="M659.1,498.8c12.9,2.8,43.1,3.1,48.3,4.5c-0.9-2.5-41-32.6-52.7-49l-98,14.6l15.2,67.9l24.6,7.3
	c-3.5-6.6,14.1-17.9,24.3-23.6c9.8-3.8,5.9-10.2,2.8-13c-8.7-8.7-16.4-19.3-20.9-26.4c10.7-6.9,34.6-12.7,45.3-14.2
	c0.3,3.5,1.8,15.7,2.4,20.5C651.7,495.5,656.8,498.4,659.1,498.8z"/>
<linearGradient id="SVGID_55_" gradientUnits="userSpaceOnUse" x1="568.4502" y1="378.8532" x2="630.2502" y2="574.6142" gradientTransform="matrix(1 0 0 -1 0 895.3203)">
	<stop  offset="0" style="stop-color:#BCADDA"/>
	<stop  offset="1" style="stop-color:#D9CAE5"/>
</linearGradient>
<path class="st81" d="M625.4,283.1c-11.7,2.2-26.8-6.7-34.7-13.4c0,3.4-22,10.2-30.6,27.9l-1.7,185.8
	c58.3-23.6,88.6-21.6,103.5-17.3c-18.2-18.2-17.9-44.9-18.3-61.3v-77l21.9-25.8c-3.7-5.8-10.8-12.7-13.9-15.4
	c-5.4-5.9-17.4-11.2-21.2-13.4C628.6,282.8,627.9,282.5,625.4,283.1z"/>
<path class="st82" d="M629.7,287.8c-1.3,3.8-6.8,3.1-9.4,2.4l4.7-6.7L629.7,287.8z"/>
<linearGradient id="SVGID_56_" gradientUnits="userSpaceOnUse" x1="610.9897" y1="626.8312" x2="610.9897" y2="594.1612" gradientTransform="matrix(1 0 0 -1 0 895.3203)">
	<stop  offset="0" style="stop-color:#B199C4"/>
	<stop  offset="1" style="stop-color:#DACBE6;stop-opacity:9.000000e-02"/>
</linearGradient>
<path class="st83" d="M619.5,301.2l-31.9-28.3l5.9-4.3l31.9,15.4l5.5-9.8l3.5,21.6l-9.1-10.6L619.5,301.2z"/>
<path class="st84" d="M625,283.6l-31.8-16.7l-4.4,3.5l30,25.6L625,283.6z"/>
<path class="st84" d="M625,283.7l2.5-12h3.2l0.6,18.1L625,283.7z"/>
<linearGradient id="SVGID_57_" gradientUnits="userSpaceOnUse" x1="578.0923" y1="493.2799" x2="564.7093" y2="362.2069" gradientTransform="matrix(1 0 0 -1 0 895.3203)">
	<stop  offset="0" style="stop-color:#AAA1B9"/>
	<stop  offset="1" style="stop-color:#D3C5EA"/>
</linearGradient>
<path class="st85" d="M598.1,342.9c1.3-27.7-11.3-55.9-17.7-66.5c-1.9,1.6-6.6,5.1-8.7,6.7l-18.9,136.6l23.2,97.2l18.5-46.4
	c-7.5-31.9-5.1-50.8,0-72.8C596.8,381.2,597.8,355,598.1,342.9z"/>
<linearGradient id="SVGID_58_" gradientUnits="userSpaceOnUse" x1="628.6598" y1="469.32" x2="603.2368" y2="443.809" gradientTransform="matrix(1 0 0 -1 0 895.3203)">
	<stop  offset="0" style="stop-color:#B19FC8"/>
	<stop  offset="1" style="stop-color:#CBBDE0;stop-opacity:0"/>
</linearGradient>
<path class="st86" d="M644.6,429c-8.5-5.7-37.4-5-50.8-3.9c7.9,6.3,3.3,21,0,27.6c11-3.5,28.7-4.1,36.2-3.9
	C654.5,447.8,649.9,435.2,644.6,429z"/>
<linearGradient id="SVGID_59_" gradientUnits="userSpaceOnUse" x1="642.094" y1="520.0663" x2="612.083" y2="427.7263" gradientTransform="matrix(1 0 0 -1 0 895.3203)">
	<stop  offset="1.727420e-03" style="stop-color:#B8ABCC"/>
	<stop  offset="1" style="stop-color:#D3C5EA"/>
</linearGradient>
<path class="st87" d="M637.4,348.8c1.9-23.9,1.6-56.7,1.2-70.1l7.5,4.3l-2.4,64.2l4.3,116.9C637,423.5,636.4,370.3,637.4,348.8z"/>
<g>
	<path class="st84" d="M593.1,392.8c8.3-64-6.5-104.4-15-116.6c-58.1,23.6-65.4,109.2-69.2,145.4c-9.6,93.2,39.4,112.2,68.4,128.6
		c-4.3-6.8,10.8-16.7,18.9-20.8c10.5-4.6,22.1-11.7,26.5-14.6c3.1-2.2,0.5-5.8-1.2-7.3C582.5,466.6,586.3,414,593.1,392.8z"/>
</g>
<linearGradient id="SVGID_60_" gradientUnits="userSpaceOnUse" x1="771.0401" y1="548.3665" x2="780.9191" y2="541.9175" gradientTransform="matrix(1 0 0 -1 0 895.3203)">
	<stop  offset="0.182" style="stop-color:#91A6DF"/>
	<stop  offset="1" style="stop-color:#BECAEB"/>
</linearGradient>
<path class="st88" d="M779.6,348.8c1.5,3,2.8,7.1,3.2,8.8c-2.6-0.4-7.5-4.1-9.7-6L779.6,348.8z"/>
<path class="st68" d="M792.7,317.2c-8.8,4.8-21,16.7-26,22l8.5,14.5c14.4-4.8,25-9,29.5-12c2.5-1.7,4.5-2.5,6.5-4.5
	c3-4.5,1-5.2,0-5.5c2.8-5.2-0.2-6.2-2-6c2.8-5.6-1.2-6-3.5-5.5c2.8-2.4,13.8-10,19-13.5c3-4-6.5-0.7-18,4
	C799.9,313.5,794.5,316.2,792.7,317.2z"/>
<path class="st89" d="M804.9,320.7c-0.8,0.8-1.5,1.6-2.4,2.4c-0.9,0.8-1.9,1.7-2.7,2.6c-1.3,1.4-3,2.7-3.8,4.4
	c-0.5,0.9-0.4,2.4,0.9,2.5c1.2,0.1,2.5-0.8,3.5-1.4c1.6-0.9,3.1-2,4.5-3.3"/>
<path class="st89" d="M807.2,327.3c-0.6,0.4-1.1,0.9-1.7,1.3c-1,0.9-2,1.9-2.9,2.9c-0.9,0.9-1.7,1.9-2.5,3c-0.5,0.7-1.2,1.5-1.4,2.3
	c-0.1,0.4-0.2,0.9,0.1,1.3c0.4,0.6,1.4,0.5,2,0.3c0.7-0.2,1.3-0.6,1.9-0.9c0.9-0.5,1.9-1,2.8-1.6c1.4-0.9,2.7-1.9,4-2.8"/>
<path class="st89" d="M805.4,336c-0.6,0.9-1.2,1.7-1.9,2.6c-0.3,0.4-1.5,1.7-1.1,2.3c0.5,0.8,1.8,0.3,2.4,0c1.8-0.9,3.3-1.6,4.8-3.1
	"/>
<linearGradient id="SVGID_61_" gradientUnits="userSpaceOnUse" x1="797.668" y1="563.2307" x2="785.465" y2="554.9478" gradientTransform="matrix(1 0 0 -1 0 895.3203)">
	<stop  offset="0" style="stop-color:#E8A87A"/>
	<stop  offset="1" style="stop-color:#F3BB93"/>
</linearGradient>
<path class="st90" d="M803,338.3c0.4-2.6-1.1-10.1-5.7-12c-19.2,2.2-14.7,14.1-10.1,19.8c3,0,4-3.7,7.5-5.1L803,338.3z"/>
<linearGradient id="SVGID_62_" gradientUnits="userSpaceOnUse" x1="794.8171" y1="570.4332" x2="781.4521" y2="558.9112" gradientTransform="matrix(1 0 0 -1 0 895.3203)">
	<stop  offset="0" style="stop-color:#BA8158"/>
	<stop  offset="1" style="stop-color:#F3BB93"/>
</linearGradient>
<path class="st91" d="M800.1,320.2c-9.5,2.2-19.4,9.1-23.1,12.3l8.1,8.1c2.8-0.9,6.3-7.1,7.7-10
	C803.5,322.6,802.1,320.4,800.1,320.2z"/>
<linearGradient id="SVGID_63_" gradientUnits="userSpaceOnUse" x1="792.8162" y1="571.4332" x2="779.4522" y2="559.9113" gradientTransform="matrix(1 0 0 -1 0 895.3203)">
	<stop  offset="0" style="stop-color:#FFD9BD"/>
	<stop  offset="1" style="stop-color:#F3BB93"/>
</linearGradient>
<path class="st92" d="M798.1,319.2c-9.5,2.2-19.4,9.1-23.1,12.3l8.1,8.1c2.8-0.9,6.3-7.1,7.7-10
	C801.5,321.6,800.1,319.4,798.1,319.2z"/>
<g>
	<path class="st84" d="M667.4,299c-7-11.9-23.7-19.4-30.3-23c2.8,6.5,3.2,44,2.9,61.5c-2.5,45.5,1,86.7,3.1,101.6
		c2.5,20.6,7.2,42.7,9.2,51.2c1.2,4,5.1,4.5,10.8,5c10.9,1,46.6,0,46.6,0c-40-36.5-56.4-65.8-57.3-81.2c-0.6-10.5-4-48.8-3.1-65.1
		l49.6,40.8c9.5,6.8,20.4,2.8,24.6,0l58.9-31.9c-7.4-4.6-12.6-15.5-14.2-20.4l-50.8,15.4C698.4,352.8,680.5,321.2,667.4,299z"/>
</g>
<linearGradient id="SVGID_64_" gradientUnits="userSpaceOnUse" x1="681.1195" y1="566.6066" x2="710.2555" y2="499.7757" gradientTransform="matrix(1 0 0 -1 0 895.3203)">
	<stop  offset="0" style="stop-color:#EEF3FF"/>
	<stop  offset="1" style="stop-color:#F8FAFF;stop-opacity:0"/>
</linearGradient>
<path class="st93" d="M743.4,379l-26.1,8.8c-20.1,2.8-54.1-32-66.9-61.4c0.8,2.8,0.5,6.6,0,12.1c-0.3,3-0.6,6.6-0.8,10.8l49.3,40.5
	c9.5,6.8,20.4,2.8,24.6,0L743.4,379z"/>
<g>
	
		<linearGradient id="SVGID_65_" gradientUnits="userSpaceOnUse" x1="594.799" y1="364.7031" x2="575.856" y2="399.4471" gradientTransform="matrix(1 0 0 -1 0 895.3203)">
		<stop  offset="0" style="stop-color:#D6E1FF"/>
		<stop  offset="1" style="stop-color:#E3E8F6;stop-opacity:0"/>
	</linearGradient>
	<path class="st94" d="M614.4,508.4c-16.7-13.5-28.6-48.8-32-67.6c-0.3-1.7-2.4-2.6-3.8-1.6c-74.3,51-20.6,81.4-5.4,98.7
		c1.2,1.3,3.6,1.4,4.8,0.1c7-6.9,25.1-19,36-24.9C615.8,512.1,615.9,509.6,614.4,508.4z"/>
</g>
<g>
	
		<linearGradient id="SVGID_66_" gradientUnits="userSpaceOnUse" x1="677.6876" y1="405.4366" x2="668.2805" y2="430.5666" gradientTransform="matrix(1 0 0 -1 0 895.3203)">
		<stop  offset="0" style="stop-color:#D6E1FF"/>
		<stop  offset="1" style="stop-color:#E3E8F6;stop-opacity:0"/>
	</linearGradient>
	<path class="st95" d="M657,490.2c-5.3-23.4-6.4-33-7.2-42.1c-0.2-2.3,2.8-3.5,4.3-1.7c14.8,18.6,34.8,42.4,44.5,43.8
		c-4.8-0.7-27.1-1.3-38.2,1.8C658.9,492.4,657.4,491.6,657,490.2z"/>
</g>
<linearGradient id="SVGID_67_" gradientUnits="userSpaceOnUse" x1="597.9136" y1="669.2249" x2="650.4376" y2="689.7838" gradientTransform="matrix(1 0 0 -1 0 895.3203)">
	<stop  offset="0" style="stop-color:#312121"/>
	<stop  offset="1" style="stop-color:#6E5148"/>
</linearGradient>
<path class="st96" d="M631.8,214.8c11.3,7.2,21.7,4.5,24.8,3.8c5.5-30.9-29.7-32.9-45.4-29.7c-22.3,3.8-30.2,23.7-31.3,33.1
	c-0.2,21.8,12.7,33.5,19.2,36.6l17.1-15.4c-7-10,2.1-10.5,4-9c2.7,2.2,1.8,0,1.5-4C624.7,212.2,626.9,211.2,631.8,214.8z"/>
<g>
	
		<linearGradient id="SVGID_68_" gradientUnits="userSpaceOnUse" x1="730.8464" y1="512.1054" x2="640.3734" y2="529.2444" gradientTransform="matrix(1 0 0 -1 0 895.3203)">
		<stop  offset="1.278450e-02" style="stop-color:#FFFFFF"/>
		<stop  offset="1" style="stop-color:#E2EAFF"/>
	</linearGradient>
	<path class="st97" d="M690.6,320.6c8.1,0.3,32.2,9.8,43.2,14.5c2.6,1.1,0.3,3.4-2.7,9c-7.5,13.7-29.5,57.9-39.1,80.3
		c-8.4-3.8-40.4-4.1-55.3-3.8c-0.7-23.7,30.4-73.4,46.1-95.3C685.1,320.8,689,320.3,690.6,320.6z"/>
</g>
<g class="st98">
	<path class="st99" d="M686,384.4c-0.9,2.5-3.5,3.9-5.8,3.1c-2.4-0.8-3.6-3.5-2.7-6l6.2-18.3c0.9-2.5,3.5-3.9,5.8-3.1
		c2.4,0.8,3.6,3.5,2.7,6L686,384.4z"/>
	<path class="st99" d="M698.6,378.5c-0.8,2.4-3.5,3.6-6,2.7l-18.3-6.2c-2.5-0.9-3.9-3.5-3.1-5.8c0.8-2.4,3.5-3.6,6-2.7l18.3,6.2
		C698,373.5,699.4,376.1,698.6,378.5z"/>
</g>
<path class="st100" d="M610.5,388.9c2.8-1.2,10.2-4.8,17.3-10c3.3-2.4,10.8-7.9,13.9-10.4c1-0.9,4.5-2.8,10-3.5
	c4.6-0.4,12.7,1.6,17,3.5c1.5,0.7-1,3.6-9.5,0.5c2.2,1.1,5.1,4.5,4,9.1c1.4,0.4,2.5,1.6-4.2,3.5c-2.6,0.9-8.3,3.4-10.8,6.2
	c-3.8,4.7-15.2,13.8-30,11.9L610.5,388.9z"/>
<path class="st101" d="M574.1,351.6c8.5-21.1,7.2-33.7,5.5-37.4l-44.9,99.6l75.6-9.4l3.9-20.1c-2.8,0.9-15.6,2.2-21.6,2.8
	c-10.1,0.9-26.5,3-33.5,3.9C559.1,387.5,569.1,363.2,574.1,351.6z"/>
<linearGradient id="SVGID_69_" gradientUnits="userSpaceOnUse" x1="532.261" y1="469.1581" x2="593.6639" y2="484.903" gradientTransform="matrix(1 0 0 -1 0 895.3203)">
	<stop  offset="0" style="stop-color:#CCD4E9"/>
	<stop  offset="1" style="stop-color:#E3E8F6;stop-opacity:0"/>
</linearGradient>
<path class="st102" d="M573,425.9c-33.1,13.2-47.9,1.3-51.2-6.3L625,391.3v11.8L573,425.9z"/>
<path class="st103" d="M624.6,392.9c-0.6,6.3-2.1,9.2-2.8,9.8c-2.2-0.6-4.1-6.8-4.7-9.8H624.6z"/>
<path class="st68" d="M610.5,385.9c2.8-1.2,10.2-4.8,17.3-10c3.3-2.4,10.8-7.9,13.9-10.4c1-0.9,4.5-2.8,10-3.5
	c4.6-0.4,12.7,1.6,17,3.5c1.5,0.7-1,3.6-9.5,0.5c2.2,1.1,5.1,4.5,4,9.1c1.4,0.4,2.5,1.6-4.2,3.5c-2.6,0.9-8.3,3.4-10.8,6.2
	c-3.8,4.7-15.2,13.8-30,11.9L610.5,385.9z"/>
<linearGradient id="SVGID_70_" gradientUnits="userSpaceOnUse" x1="617.6329" y1="507.0019" x2="628.2609" y2="506.2149" gradientTransform="matrix(1 0 0 -1 0 895.3203)">
	<stop  offset="0" style="stop-color:#C79978"/>
	<stop  offset="1" style="stop-color:#C79978;stop-opacity:0"/>
</linearGradient>
<path class="st104" d="M625,385c-0.3-1.6-2.5-3.9-3.5-4.7c-0.6,0-3.1,2-4.3,2.4l2.8,14.2c9.4,0.3,18.9-3.5,22.4-6.7
	c-9.8,5.1-16.1,4.5-18.1,3.5C625.4,390.8,625.2,386.8,625,385z"/>
<linearGradient id="SVGID_71_" gradientUnits="userSpaceOnUse" x1="534.8434" y1="580.7288" x2="581.3214" y2="471.0618" gradientTransform="matrix(1 0 0 -1 0 895.3203)">
	<stop  offset="0" style="stop-color:#FFFFFF"/>
	<stop  offset="1" style="stop-color:#EAF0FF"/>
</linearGradient>
<path class="st105" d="M578.7,328.9c7.1-19.4-4.7-29.6-11.5-32.3c-21.5-7.7-40.5,62.7-47.3,98.9c-7.7,37.9,25,35.8,42.3,30
	c6.8-2.2,42.8-16.3,60-23.1v-16.5c-0.6-5.5-5.6-4.9-8.1-3.8c-5.8,1.2-15.8,3.1-20,3.8c-28,2.8-38.6,5.8-40.4,6.9
	C553.4,388.5,570.2,348.4,578.7,328.9z"/>
<defs>
	<filter id="Adobe_OpacityMaskFilter_5_" filterUnits="userSpaceOnUse" x="562" y="379.5" width="60.6" height="14.2">
		<feColorMatrix  type="matrix" values="1 0 0 0 0  0 1 0 0 0  0 0 1 0 0  0 0 0 1 0"/>
	</filter>
</defs>
<mask maskUnits="userSpaceOnUse" x="562" y="379.5" width="60.6" height="14.2" id="mask5_1_">
	
		<linearGradient id="SVGID_72_" gradientUnits="userSpaceOnUse" x1="514.9858" y1="560.4251" x2="610.2507" y2="485.6611" gradientTransform="matrix(1 0 0 -1 0 895.3203)">
		<stop  offset="1.278450e-02" style="stop-color:#FFFFFF"/>
		<stop  offset="1" style="stop-color:#EAF0FF"/>
	</linearGradient>
	<path class="st106" d="M578.7,328.9c7.1-19.4-4.7-29.6-11.5-32.3c-21.5-7.7-40.5,62.7-47.3,98.9c-7.7,37.9,25,35.8,42.3,30
		c6.8-2.2,42.8-16.3,60-23.1v-16.5c-0.6-5.5-5.6-4.9-8.1-3.8c-5.8,1.2-15.8,3.1-20,3.8c-28,2.8-38.6,5.8-40.4,6.9
		C553.4,388.5,570.2,348.4,578.7,328.9z"/>
</mask>
<g class="st107">
	
		<linearGradient id="SVGID_73_" gradientUnits="userSpaceOnUse" x1="617.6952" y1="521.5262" x2="575.8122" y2="501.1052" gradientTransform="matrix(1 0 0 -1 0 895.3203)">
		<stop  offset="0" style="stop-color:#D7E2FF"/>
		<stop  offset="1" style="stop-color:#E3E8F6;stop-opacity:0"/>
	</linearGradient>
	<path class="st108" d="M622.6,384.2c-0.9-3.5-6.4-4.6-9.1-4.7l-51.6,8.7l16.1,5.5L622.6,384.2z"/>
</g>
<path class="st109" d="M643.6,372.4c3.2-1.8,11.5-4.4,18.9-0.4C659.2,369.6,650.9,366.3,643.6,372.4z"/>
<path class="st109" d="M650.9,364.4c1.9,0.3,6.1,0.9,7.3,1.5C657.1,365,654.3,363.4,650.9,364.4z"/>
<path class="st109" d="M644.3,379.4c1.7-2.2,7.7-6.1,18.5-4.2C658.6,375.1,648.9,376,644.3,379.4z"/>
<linearGradient id="SVGID_74_" gradientUnits="userSpaceOnUse" x1="670.5072" y1="418.2072" x2="670.5072" y2="172.7521" gradientTransform="matrix(1 0 0 -1 0 895.3203)">
	<stop  offset="0" style="stop-color:#2F2479"/>
	<stop  offset="1" style="stop-color:#31277C;stop-opacity:3.000000e-02"/>
</linearGradient>
<path class="st110" d="M697.1,536.4l-76.2-59.2l74.3,53.5c24.2,16.5,23.6,32.2,23.1,41.5l1.9,148.1h-12.3l-5.4-153.5
	C709.7,552.1,704.4,542.5,697.1,536.4z"/>
<linearGradient id="SVGID_75_" gradientUnits="userSpaceOnUse" x1="675.4931" y1="397.8162" x2="675.4931" y2="159.6711" gradientTransform="matrix(1 0 0 -1 0 895.3203)">
	<stop  offset="6.462040e-03" style="stop-color:#FFFFFF"/>
	<stop  offset="1" style="stop-color:#332A7E;stop-opacity:0"/>
</linearGradient>
<path class="st111" d="M681.7,539.1l-36.2-41.5l46.2,35.4c16,10.2,14.9,23.2,12.3,28.5l-56.2,174.3h-2.3l36.2-153.1
	C689.4,545.6,684.5,544.1,681.7,539.1z"/>
<g class="st112">
	
		<linearGradient id="SVGID_76_" gradientUnits="userSpaceOnUse" x1="648.2162" y1="620.7525" x2="645.1182" y2="584.5485" gradientTransform="matrix(1 0 0 -1 0 895.3203)">
		<stop  offset="0" style="stop-color:#212352"/>
		<stop  offset="1" style="stop-color:#4F5297"/>
	</linearGradient>
	<path class="st113" d="M634.8,270.5c11.1,4.4,30.9,22.6,21.3,60"/>
	<circle class="st114" cx="650.9" cy="343.2" r="10.9"/>
	<circle class="st114" cx="651.4" cy="341.5" r="10.9"/>
	
		<ellipse transform="matrix(0.2476 -0.9689 0.9689 0.2476 159.2369 888.0219)" class="st115" cx="651.4" cy="341.5" rx="6.9" ry="6.9"/>
</g>
<linearGradient id="SVGID_77_" gradientUnits="userSpaceOnUse" x1="643.6071" y1="620.7524" x2="640.5101" y2="584.5484" gradientTransform="matrix(1 0 0 -1 0 895.3203)">
	<stop  offset="0" style="stop-color:#212352"/>
	<stop  offset="1" style="stop-color:#4F5297"/>
</linearGradient>
<path class="st116" d="M630.1,270.5c11.1,4.4,30.9,22.6,21.3,60"/>
<circle class="st117" cx="646.3" cy="343.2" r="10.9"/>
<circle class="st118" cx="646.8" cy="341.5" r="10.9"/>
<ellipse transform="matrix(0.2476 -0.9689 0.9689 0.2476 155.7692 883.5565)" class="st119" cx="646.8" cy="341.5" rx="6.9" ry="6.9"/>
<g class="st120">
	
		<linearGradient id="SVGID_78_" gradientUnits="userSpaceOnUse" x1="585.5353" y1="626.2549" x2="589.7924" y2="599.153" gradientTransform="matrix(1 0 0 -1 0 895.3203)">
		<stop  offset="0" style="stop-color:#212352"/>
		<stop  offset="1" style="stop-color:#4F5297"/>
	</linearGradient>
	<path class="st121" d="M590.4,270.5c-8.6,2.5-10.1,13.2,0,40.9"/>
	
		<linearGradient id="SVGID_79_" gradientUnits="userSpaceOnUse" x1="613.4852" y1="528.2578" x2="592.4822" y2="587.6948" gradientTransform="matrix(1 0 0 -1 0 895.3203)">
		<stop  offset="0" style="stop-color:#B8A0FC"/>
		<stop  offset="1" style="stop-color:#26285A"/>
	</linearGradient>
	<path class="st122" d="M590.8,312.5c4.2-1.7,15.2-2.7,16.3,20.3l1.9,44.5"/>
	
		<ellipse transform="matrix(0.9611 -0.276 0.276 0.9611 -80.7213 183.2691)" class="st123" cx="610.7" cy="378.4" rx="2.2" ry="2.5"/>
	
		<linearGradient id="SVGID_80_" gradientUnits="userSpaceOnUse" x1="611.5941" y1="527.4976" x2="585.9361" y2="584.9556" gradientTransform="matrix(1 0 0 -1 0 895.3203)">
		<stop  offset="0" style="stop-color:#B8A0FC"/>
		<stop  offset="1" style="stop-color:#26285A"/>
	</linearGradient>
	<path class="st124" d="M592.1,312c-4.2,1.7-13.1,8.6,1.1,26.4l27.6,34.3"/>
	
		<ellipse transform="matrix(0.9589 -0.2838 0.2838 0.9589 -80.7281 191.5225)" class="st123" cx="620.5" cy="374.3" rx="2.4" ry="2.7"/>
</g>
<linearGradient id="SVGID_81_" gradientUnits="userSpaceOnUse" x1="582.5294" y1="628.478" x2="586.7864" y2="601.376" gradientTransform="matrix(1 0 0 -1 0 895.3203)">
	<stop  offset="0" style="stop-color:#212352"/>
	<stop  offset="1" style="stop-color:#4F5297"/>
</linearGradient>
<path class="st125" d="M587.4,268.3c-8.6,2.5-10.1,13.2,0,40.9"/>
<linearGradient id="SVGID_82_" gradientUnits="userSpaceOnUse" x1="610.4796" y1="530.482" x2="589.4766" y2="589.919" gradientTransform="matrix(1 0 0 -1 0 895.3203)">
	<stop  offset="0" style="stop-color:#B8A0FC"/>
	<stop  offset="1" style="stop-color:#26285A"/>
</linearGradient>
<path class="st126" d="M587.8,310.2c4.2-1.7,15.2-2.7,16.3,20.3l1.9,44.5"/>
<linearGradient id="SVGID_83_" gradientUnits="userSpaceOnUse" x1="-55.6642" y1="654.3091" x2="-45.6111" y2="653.653" gradientTransform="matrix(0.9611 -0.276 0.276 0.9611 482.0668 -268.6278)">
	<stop  offset="0" style="stop-color:#756AB2"/>
	<stop  offset="1" style="stop-color:#C4B3FF"/>
</linearGradient>
<path class="st127" d="M608.4,378.6c1.2-0.3,1.8-1.7,1.4-3.1c-0.4-1.3-1.7-2.2-2.8-1.8c-1.2,0.3-1.8,1.7-1.4,3.1
	C605.9,378.1,607.2,378.9,608.4,378.6z"/>
<linearGradient id="SVGID_84_" gradientUnits="userSpaceOnUse" x1="608.5888" y1="529.7209" x2="582.9308" y2="587.179" gradientTransform="matrix(1 0 0 -1 0 895.3203)">
	<stop  offset="0" style="stop-color:#B8A0FC"/>
	<stop  offset="1" style="stop-color:#26285A"/>
</linearGradient>
<path class="st128" d="M589.1,309.8c-4.2,1.7-13.1,8.6,1.1,26.4l27.6,34.3"/>
<linearGradient id="SVGID_85_" gradientUnits="userSpaceOnUse" x1="728.8094" y1="733.9824" x2="739.7596" y2="733.2371" gradientTransform="matrix(-0.9812 7.873210e-02 0.1252 1.0051 1239.0194 -422.9874)">
	<stop  offset="0" style="stop-color:#756AB2"/>
	<stop  offset="1" style="stop-color:#C4B3FF"/>
</linearGradient>
<path class="st129" d="M617.8,374.8c-1.3,0.1-2.5-1-2.7-2.5c-0.2-1.5,0.7-2.7,2.1-2.9c1.3-0.1,2.5,1,2.7,2.5
	C620.1,373.4,619.2,374.7,617.8,374.8z"/>
<linearGradient id="SVGID_86_" gradientUnits="userSpaceOnUse" x1="780.6194" y1="137.7444" x2="736.7694" y2="145.1023" gradientTransform="matrix(1 0 0 -1 0 895.3203)">
	<stop  offset="0" style="stop-color:#D4E0FF"/>
	<stop  offset="1" style="stop-color:#FFFFFF"/>
</linearGradient>
<path class="st130" d="M733.6,764.7c-0.1-14,15.5-23.6,20.5-26.7c25.5,9.7,35.8,18.5,33.3,22.2C778.9,763.8,744.9,767,733.6,764.7z"
	/>
<linearGradient id="SVGID_87_" gradientUnits="userSpaceOnUse" x1="682.8812" y1="117.6164" x2="640.7682" y2="131.8785" gradientTransform="matrix(1 0 0 -1 0 895.3203)">
	<stop  offset="0" style="stop-color:#D4E0FF"/>
	<stop  offset="1" style="stop-color:#FFFFFF"/>
</linearGradient>
<path class="st131" d="M635.4,777.3c2.1-13.9,19.1-20.8,24.5-23c23.6,13.6,32.4,24,29.3,27.3C680.2,783.5,646.1,781.3,635.4,777.3z"
	/>
<linearGradient id="SVGID_88_" gradientUnits="userSpaceOnUse" x1="648.5568" y1="657.5519" x2="660.4628" y2="658.9799" gradientTransform="matrix(1 0 0 -1 0 895.3203)">
	<stop  offset="0" style="stop-color:#150F40"/>
	<stop  offset="1" style="stop-color:#8C82AE"/>
</linearGradient>
<path class="st132" d="M651.1,237.1c0,2.3,1.4,4,3.1,4c1.7,0,3.1-1.8,3.1-4c0-2.3-1.4-4-3.1-4C652.5,233,651.1,234.8,651.1,237.1z"
	/>
<linearGradient id="SVGID_89_" gradientUnits="userSpaceOnUse" x1="652.0934" y1="657.55" x2="612.0914" y2="664.217" gradientTransform="matrix(1 0 0 -1 0 895.3203)">
	<stop  offset="0" style="stop-color:#171040"/>
	<stop  offset="1" style="stop-color:#534D69"/>
</linearGradient>
<path class="st133" d="M650.9,236.6l-26.7-5.7c-2.2-0.5-7.2-0.6-9.5,2.9"/>
<linearGradient id="SVGID_90_" gradientUnits="userSpaceOnUse" x1="-41.3471" y1="639.5195" x2="-41.3471" y2="541.5172" gradientTransform="matrix(0.77 0.638 0.6582 -0.7528 441.3883 973.8901)">
	<stop  offset="0" style="stop-color:#9594CA"/>
	<stop  offset="1" style="stop-color:#5A5386"/>
</linearGradient>
<polygon class="st134" points="828.5,464.4 832.5,467.8 768,541.5 763.9,538.1 "/>
<linearGradient id="SVGID_91_" gradientUnits="userSpaceOnUse" x1="582.207" y1="1167.969" x2="582.207" y2="1069.9667" gradientTransform="matrix(-0.77 0.638 -0.6582 -0.7528 2141.802 971.2711)">
	<stop  offset="0" style="stop-color:#9594CA"/>
	<stop  offset="1" style="stop-color:#5A5386"/>
</linearGradient>
<polygon class="st135" points="926.7,461.8 922.6,465.1 987.2,538.9 991.2,535.5 "/>
<linearGradient id="SVGID_92_" gradientUnits="userSpaceOnUse" x1="766.6326" y1="431.3311" x2="766.6326" y2="119.7332" gradientTransform="matrix(1 0 0 -1 0 895.3203)">
	<stop  offset="0" style="stop-color:#9594CA"/>
	<stop  offset="1" style="stop-color:#5A5386"/>
</linearGradient>
<path class="st136" d="M766.6,464L766.6,464c1.5,0,2.7,1.2,2.7,2.7v306.2c0,1.5-1.2,2.7-2.7,2.7h0c-1.5,0-2.7-1.2-2.7-2.7V466.7
	C763.9,465.2,765.1,464,766.6,464z"/>
<linearGradient id="SVGID_93_" gradientUnits="userSpaceOnUse" x1="989.8995" y1="431.3311" x2="989.8995" y2="119.7332" gradientTransform="matrix(1 0 0 -1 0 895.3203)">
	<stop  offset="0" style="stop-color:#9594CA"/>
	<stop  offset="1" style="stop-color:#5A5386"/>
</linearGradient>
<path class="st137" d="M989.9,464L989.9,464c1.5,0,2.7,1.2,2.7,2.7v306.2c0,1.5-1.2,2.7-2.7,2.7h0c-1.5,0-2.7-1.2-2.7-2.7V466.7
	C987.2,465.2,988.4,464,989.9,464z"/>
<linearGradient id="SVGID_94_" gradientUnits="userSpaceOnUse" x1="805.4296" y1="462.0924" x2="1023.4346" y2="391.0924" gradientTransform="matrix(1 0 0 -1 0 895.3203)">
	<stop  offset="0" style="stop-color:#9594CA"/>
	<stop  offset="1" style="stop-color:#5A5386"/>
</linearGradient>
<path class="st138" d="M740.8,448.7h280.2c5.1,0,9.2,4.1,9.2,9.2l0,0c0,5.1-4.1,9.2-9.2,9.2H740.8c-5.1,0-9.2-4.1-9.2-9.2l0,0
	C731.7,452.8,735.8,448.7,740.8,448.7z"/>
<path class="st139" d="M319.7,732.7h-8c-2.2,0-4-1.8-4-4c0-2.2,1.8-4,4-4h8c2.2,0,4,1.8,4,4C323.7,730.9,321.9,732.7,319.7,732.7z"
	/>
<path class="st139" d="M415.7,732.7h-8c-2.2,0-4-1.8-4-4c0-2.2,1.8-4,4-4h8c2.2,0,4,1.8,4,4C419.7,730.9,417.9,732.7,415.7,732.7z"
	/>
<path class="st139" d="M383.7,712.7h-40c-2.2,0-4,1.8-4,4v24c0,2.2,1.8,4,4,4h40c2.2,0,4-1.8,4-4v-24
	C387.7,714.4,385.9,712.7,383.7,712.7z M379.7,736.7h-32v-16h32V736.7z"/>
<linearGradient id="SVGID_95_" gradientUnits="userSpaceOnUse" x1="363.6647" y1="166.6642" x2="363.6647" y2="70.6632" gradientTransform="matrix(1 0 0 -1 0 895.3203)">
	<stop  offset="0" style="stop-color:#FFFFFF"/>
	<stop  offset="1" style="stop-color:#D9E4FF"/>
</linearGradient>
<path class="st140" d="M435.7,820.7c0,2.2-1.8,4-4,4h-136c-2.2,0-4-1.8-4-4v-88c0-2.2,1.8-4,4-4h136c2.2,0,4,1.8,4,4V820.7z"/>
<path class="st141" d="M431.7,816.7h-136c-2.2,0-4-1.8-4-4v8c0,2.2,1.8,4,4,4h136c2.2,0,4-1.8,4-4v-8
	C435.7,814.9,433.9,816.7,431.7,816.7z"/>
<path class="st142" d="M371.7,792.7c0,4.4-3.6,8-8,8s-8-3.6-8-8v-32c0-4.4,3.6-8,8-8s8,3.6,8,8V792.7z"/>
<path class="st143" d="M387.7,776.7c0,4.4-3.6,8-8,8h-32c-4.4,0-8-3.6-8-8c0-4.4,3.6-8,8-8h32C384.1,768.7,387.7,772.2,387.7,776.7z
	"/>
<defs>
	<filter id="Adobe_OpacityMaskFilter_6_" filterUnits="userSpaceOnUse" x="287.6" y="712.4" width="151.8" height="100.4">
		<feColorMatrix  type="matrix" values="1 0 0 0 0  0 1 0 0 0  0 0 1 0 0  0 0 0 1 0"/>
	</filter>
</defs>
<mask maskUnits="userSpaceOnUse" x="287.6" y="712.4" width="151.8" height="100.4" id="mask6_1_">
	
		<linearGradient id="SVGID_96_" gradientUnits="userSpaceOnUse" x1="363.6647" y1="166.6642" x2="363.6647" y2="70.6632" gradientTransform="matrix(1 0 0 -1 0 895.3203)">
		<stop  offset="0" style="stop-color:#FFFFFF"/>
		<stop  offset="1" style="stop-color:#A9C1FF"/>
	</linearGradient>
	<path class="st144" d="M435.7,820.7c0,2.2-1.8,4-4,4h-136c-2.2,0-4-1.8-4-4v-88c0-2.2,1.8-4,4-4h136c2.2,0,4,1.8,4,4V820.7z"/>
</mask>
<g class="st145">
	<path class="st146" d="M436,812.8c-49-32.4-147.3-97.4-148.4-98.1l151.8-2.4L436,812.8z"/>
</g>
<path class="st147" d="M836.3,382.7h26.4l3,15.1l-23.8-3.1L836.3,382.7z"/>
<path class="st148" d="M894.7,382.7c7.2,0,13,5.8,13,13v31.4h-4.6v-31.4c0-4.6-3.8-8.4-8.4-8.4H886c-1.1,3.4-2.5,7.5-2.5,7.5
	l-20.8,3.1v-15.1L894.7,382.7z"/>
<path class="st148" d="M842,394.7h20.8c0,0,3,32.7,3,32.7c-13.8,1.1-31.1-6.4-36-9.5C830.4,408.5,835.1,400.2,842,394.7z"/>
<path class="st149" d="M883.5,394.7c5.7,4.5,9.9,11,11.6,18.4c-4,4.6-18.5,13.2-32.3,14.3v-32.7H883.5z"/>
<path class="st150" d="M829.7,417.9c10.3-0.3,10.7-4.8,21.7-4.8c5.7,0,8.5,1.2,11.3,2.4l3,17.5l-3,16.2h-15.1
	c-10.6-5.1-18-16.2-18-29C829.7,419.5,829.7,418.7,829.7,417.9z"/>
<path class="st151" d="M874.1,418c10.7,0,11.3-4.3,21-4.8c0.5,2.3,0.8,4.7,0.8,7.1c0,12.8-7.4,23.9-18,29h-15.1v-33.7
	C865.6,416.7,868.5,418,874.1,418z"/>
<path class="st152" d="M807.9,424.9c-0.1,0-0.2,0-0.3,0c-4.2,0.2-7.5,3.6-7.5,7.9c0,3.7,2.5,6.8,5.9,7.6c0.6,0.2,1.3,0.2,1.9,0.2
	c4.3,0,7.9-3.5,7.9-7.9S812.3,424.9,807.9,424.9z M807.9,437c-0.2,0-0.5,0-0.7-0.1c-2-0.3-3.5-2.1-3.5-4.1c0-2.2,1.7-4,3.9-4.2
	c0.1,0,0.2,0,0.3,0c2.3,0,4.2,1.9,4.2,4.2C812.1,435.1,810.3,437,807.9,437z"/>
<path class="st153" d="M803.7,432.8c0,2.1,1.5,3.8,3.5,4.1c-0.3,1.2-0.7,2.4-1.3,3.5c-3.4-0.9-5.9-4-5.9-7.6c0-4.2,3.3-7.7,7.5-7.9
	v3.7C805.5,428.7,803.7,430.5,803.7,432.8z"/>
<linearGradient id="SVGID_97_" gradientUnits="userSpaceOnUse" x1="785.8723" y1="470.6504" x2="809.3313" y2="439.4374" gradientTransform="matrix(1 0 0 -1 0 895.3203)">
	<stop  offset="0" style="stop-color:#E89D9D"/>
	<stop  offset="1" style="stop-color:#C06A6A"/>
</linearGradient>
<path class="st154" d="M805.6,423.7v9.7c0,8.2-6.6,15.1-14.9,15.1c-1.7,0-3.4-0.3-5-0.8c-5.1-1.7-8.9-6.1-9.9-11.5
	c-0.1-0.8-0.2-1.7-0.2-2.6v-9.9c0-0.6,0.5-1.1,1.1-1.1h27.8C805.1,422.7,805.6,423.1,805.6,423.7z"/>
<path class="st153" d="M805.6,430.5v3.1c0,8.3-6.7,15-15,15s-15-6.7-15-15v-3.1c0,8.3,6.7,15,15,15S805.6,438.8,805.6,430.5z"/>
<path class="st155" d="M805.6,425.1h-29.9v1.6h29.9V425.1z"/>
<linearGradient id="SVGID_98_" gradientUnits="userSpaceOnUse" x1="797.6566" y1="521.9702" x2="797.6776" y2="472.6602" gradientTransform="matrix(1 0 0 -1 0 895.3203)">
	<stop  offset="0" style="stop-color:#FFFFFF;stop-opacity:0"/>
	<stop  offset="1" style="stop-color:#FFE9D9"/>
</linearGradient>
<path class="st156" d="M805.1,396.5c-1.9-5.9-9.7-4.8-14.4-3.6c-12.8,3.3-14-0.8-14-4.8c0.6-8.9,11.1-9.5,17.5-9.5
	c23.3,1.8,24.1,11.9,24.5,17.8c0,11.4-13.2,14.3-19.8,14.3c-9.2,1.8-8.9,7.9-8.2,11.9c-5.6-8.6-0.9-13.6,2.7-15.1
	C803.8,403.1,806.3,400.5,805.1,396.5z"/>
<g class="st98">
	<path class="st157" d="M422.8,229.3c-2.9,7.4-13.1,3.7-17.9,1c-6.1-7.9-5-13.8-3.7-15.8c2.7-6.1,7.6-2.8,9.7-0.4
		c-2.8-8.7,0-12.6,1.7-13.5c4.8-2,6.1,5.1,6.2,8.8c7.2-15.9,12.6-15.1,14.5-12.7c4.7,3.8-3.1,12.2-7.7,16c6.5-0.5,7.7,2.6,7.5,4.2
		c-0.6,5.1-9.2,4.8-13.4,4C423.3,223.9,423.2,227.7,422.8,229.3z"/>
	<path class="st158" d="M426,216l-7.9-1"/>
	<path class="st158" d="M415.8,207.4l2.2,8.3"/>
	<path class="st158" d="M406.5,217.6l2.2,8.3"/>
	<path class="st158" d="M416.6,226.9l-7.9-1"/>
	<path class="st158" d="M430.4,200.4l-35.8,40.7"/>
</g>
<g class="st98">
	<path class="st159" d="M1138.8,35.3c-2.9,7.4-13.1,3.7-17.9,1c-6.1-7.9-5-13.8-3.7-15.8c2.7-6.1,7.6-2.8,9.7-0.4
		c-2.8-8.7,0-12.6,1.7-13.5c4.8-2,6.1,5.1,6.2,8.8c7.1-15.9,12.6-15.1,14.5-12.7c4.7,3.8-3.2,12.2-7.7,16c6.5-0.5,7.7,2.6,7.5,4.2
		c-0.6,5.1-9.2,4.8-13.4,4C1139.3,29.9,1139.2,33.7,1138.8,35.3z"/>
	<path class="st160" d="M1142,22l-8-1"/>
	<path class="st160" d="M1131.8,13.4l2.2,8.3"/>
	<path class="st160" d="M1122.5,23.6l2.2,8.3"/>
	<path class="st160" d="M1132.6,32.9l-7.9-1"/>
	<path class="st160" d="M1146.4,6.4l-35.8,40.7"/>
</g>
<g class="st98">
	<path class="st1" d="M1299.8,666.3c-2.9,7.4-13.1,3.7-17.9,1c-6.1-7.9-5-13.8-3.7-15.8c2.7-6.1,7.6-2.8,9.7-0.4
		c-2.8-8.7,0-12.6,1.7-13.5c4.8-2,6.1,5.1,6.2,8.8c7.1-15.9,12.6-15.1,14.5-12.7c4.7,3.8-3.2,12.2-7.7,16c6.5-0.5,7.7,2.6,7.5,4.2
		c-0.6,5.1-9.2,4.8-13.4,4C1300.3,660.9,1300.2,664.7,1299.8,666.3z"/>
	<path class="st161" d="M1303,653l-8-1"/>
	<path class="st161" d="M1292.8,644.4l2.2,8.3"/>
	<path class="st161" d="M1283.5,654.6l2.2,8.3"/>
	<path class="st161" d="M1293.6,663.9l-7.9-1"/>
	<path class="st161" d="M1307.4,637.4l-35.8,40.7"/>
</g>
<g>
	<circle class="st84" cx="769.2" cy="604.2" r="68.5"/>
</g>
<defs>
	<filter id="Adobe_OpacityMaskFilter_7_" filterUnits="userSpaceOnUse" x="729.7" y="567.7" width="78.8" height="70.7">
		<feColorMatrix  type="matrix" values="1 0 0 0 0  0 1 0 0 0  0 0 1 0 0  0 0 0 1 0"/>
	</filter>
</defs>
<mask maskUnits="userSpaceOnUse" x="729.7" y="567.7" width="78.8" height="70.7" id="mask7_1_">
	<rect x="729.1" y="564.1" class="st162" width="80.1" height="80.2"/>
</mask>
<g class="st163">
	<path class="st164" d="M736.5,574.4c9-9,23.6-9,32.6,0c9-9,23.6-9,32.6,0c7.9,7.9,8.9,20,3,28.9h-25.9c-0.7,0-1.3,0.4-1.5,1.1
		l-3.6,9.6l-7.6-27.2c-0.2-0.7-0.8-1.2-1.5-1.2c-0.7,0-1.3,0.4-1.6,1l-6.7,16.8h-23C727.6,594.4,728.6,582.3,736.5,574.4z
		 M736,606.7c0.1,0.2,0.3,0.3,0.4,0.4c0.1,0.1,0.1,0.1,0.2,0.2l30.1,30.1c1.3,1.3,3.3,1.3,4.6,0l30.3-30.3l0,0
		c0.1-0.1,0.3-0.3,0.4-0.4H780l-4.9,13.2c-0.2,0.7-0.9,1.1-1.6,1.1c-0.7,0-1.3-0.5-1.5-1.2l-7.6-27.4l-5.3,13.3
		c-0.2,0.6-0.8,1-1.5,1H736z"/>
</g>
<linearGradient id="SVGID_99_" gradientUnits="userSpaceOnUse" x1="1246.7485" y1="444.3011" x2="1337.0985" y2="512.4241" gradientTransform="matrix(1 0 0 -1 0 895.3203)">
	<stop  offset="0" style="stop-color:#5D80E3"/>
	<stop  offset="1" style="stop-color:#77D9D3;stop-opacity:0.41"/>
</linearGradient>
<circle class="st165" cx="1276" cy="429" r="38.3"/>
<defs>
	<filter id="Adobe_OpacityMaskFilter_8_" filterUnits="userSpaceOnUse" x="1253" y="407.7" width="47.1" height="42.3">
		<feColorMatrix  type="matrix" values="1 0 0 0 0  0 1 0 0 0  0 0 1 0 0  0 0 0 1 0"/>
	</filter>
</defs>
<mask maskUnits="userSpaceOnUse" x="1253" y="407.7" width="47.1" height="42.3" id="mask8_1_">
	<rect x="1252.6" y="405.6" class="st166" width="47.9" height="47.9"/>
</mask>
<g class="st167">
	<path class="st168" d="M1257,411.8c5.4-5.4,14.1-5.4,19.5,0c5.4-5.4,14.1-5.4,19.5,0c4.7,4.7,5.3,11.9,1.8,17.3h-15.5
		c-0.4,0-0.8,0.3-0.9,0.6l-2.1,5.7l-4.5-16.3c-0.1-0.4-0.5-0.7-0.9-0.7c-0.4,0-0.8,0.2-1,0.6l-4,10h-13.7
		C1251.7,423.7,1252.3,416.5,1257,411.8z M1256.7,431c0.1,0.1,0.2,0.2,0.3,0.3c0,0,0.1,0.1,0.1,0.1l18,18c0.8,0.8,2,0.8,2.8,0
		l18.1-18.1v0c0.1-0.1,0.2-0.2,0.3-0.3H1283l-3,7.9c-0.1,0.4-0.5,0.7-1,0.6c-0.4,0-0.8-0.3-0.9-0.7l-4.5-16.4l-3.2,8
		c-0.1,0.4-0.5,0.6-0.9,0.6H1256.7z"/>
</g>
<circle class="st169" cx="392.7" cy="35.6" r="24"/>
<circle class="st170" cx="1268.6" cy="514.6" r="17"/>
<path class="st171" d="M960.9,205c-3.1,0-5.4,2.8-4.9,5.8l1.8,10.8c0.4,2.4,2.5,4.2,4.9,4.2h37.2c2.2,0,4.1-1.4,4.7-3.4l3.6-10.8
	c1.1-3.2-1.3-6.6-4.7-6.6H960.9z"/>
<path class="st172" d="M979.3,205H955l3.5,20.8h38.1L979.3,205z"/>
<linearGradient id="SVGID_100_" gradientUnits="userSpaceOnUse" x1="915.588" y1="716.8539" x2="1042.588" y2="712.3539" gradientTransform="matrix(1 0 0 -1 0 895.3203)">
	<stop  offset="0" style="stop-color:#87CED9"/>
	<stop  offset="1" style="stop-color:#87CED9;stop-opacity:0"/>
</linearGradient>
<path class="st173" d="M954,170.4c-3.1,0-5.4,2.8-4.9,5.8l1.8,10.8c0.4,2.4,2.5,4.2,4.9,4.2h44.1c2.2,0,4.1-1.4,4.7-3.4l3.6-10.8
	c1.1-3.2-1.3-6.6-4.7-6.6H954z"/>
<path class="st172" d="M965.4,170.4h-17.3l3.5,20.8h13.8V170.4z"/>
<linearGradient id="SVGID_101_" gradientUnits="userSpaceOnUse" x1="912.5877" y1="797.6602" x2="912.5877" y2="700.7372" gradientTransform="matrix(1 0 0 -1 0 895.3203)">
	<stop  offset="0" style="stop-color:#87CED9"/>
	<stop  offset="1" style="stop-color:#87CED9;stop-opacity:0"/>
</linearGradient>
<path class="st174" d="M961.5,194.6c1.7,0,3-1.3,3-3v-16c0-2.1-0.3-6.2-0.7-10.7c-1.4-13.5-8.6-25.6-19.7-33.2c-0.1,0-0.1,0-0.2,0
	c-0.2,0-0.3-0.1-0.3-0.3v-30.7c0-1.7-1.3-3-3-3h-7.8c-1.7,0-3,1.3-3,3v17.9c0,2.1-2.1,3.6-4.1,2.9c-2.3-0.8-4.7-1.4-7.2-1.9
	c-1.5-0.3-2.6-1.5-2.6-3v-15.9c0-1.7-1.3-3-3-3h-7.8c-1.7,0-3,1.3-3,3V116c0,1.6-1.2,2.9-2.8,3.1c-2.4,0.3-4.7,0.8-6.9,1.4
	c-2,0.6-4.1-0.9-4.1-3v-16.9c0-1.7-1.3-3-3-3h-7.8c-1.7,0-3,1.3-3,3v26.6c0,1-0.5,1.9-1.3,2.5c-4.7,3.4-8.6,7.4-12,12.2
	c-0.4,0.5-0.5,1.1-0.5,1.7v48c0,1.7,1.3,3,3,3H961.5z"/>
<linearGradient id="SVGID_102_" gradientUnits="userSpaceOnUse" x1="1004.349" y1="762.3932" x2="886.3539" y2="742.3932" gradientTransform="matrix(1 0 0 -1 0 895.3203)">
	<stop  offset="0" style="stop-color:#68BFCD"/>
	<stop  offset="1" style="stop-color:#87CED9;stop-opacity:0.81"/>
</linearGradient>
<path class="st175" d="M924.6,168.9c1.1,0.9,2.6,0.9,3.7,0l13.4-10.3c1.4-1.4,3.1-2.1,4.8-2.1H997c1.3,0,2.4-0.8,2.9-2.1l4.9-14.8
	c0.7-1.9-0.8-3.9-2.8-3.9h-13.1c-2.7,0-4-3.3-2.1-5.1l6.7-6.6c1.2-1.2,1.2-3.1,0-4.3l-6.1-6.1c-1.2-1.2-3.1-1.2-4.2,0l-21.2,21.2
	c-0.6,0.6-1.3,0.9-2.1,0.9h-19.5c-4.5,0-9,1.4-12.5,4.2l-15,11.2c-2.3,1.7-1.7,8,0.7,9.6C917.6,163.5,922.1,167,924.6,168.9z"/>
<path class="st176" d="M860.7,211.9h-20.8v65.8h20.8V211.9z"/>
<linearGradient id="SVGID_103_" gradientUnits="userSpaceOnUse" x1="845.6918" y1="735.4093" x2="945.1968" y2="642.4094" gradientTransform="matrix(1 0 0 -1 0 895.3203)">
	<stop  offset="0" style="stop-color:#FF9696"/>
	<stop  offset="1" style="stop-color:#BE7171"/>
</linearGradient>
<path class="st177" d="M896.7,142.7c18.7,0,36.7,8.7,48.5,23.2l46.7,57.8c4.8,5.9,7.3,13.2,7.3,20.8c0,18.3-14.9,33.2-33.2,33.2
	h-63.7c-34.3,0-62.3-28-62.3-62.3v-72.7H896.7z"/>
<path class="st157" d="M839.9,142.7h-18.2c-1.7,0-3,1.3-3,3v14.8c0,1.7,1.3,3,3,3h18.2c1.7,0,3-1.3,3-3v-14.8
	C842.9,144,841.6,142.7,839.9,142.7z"/>
<path class="st157" d="M839.9,177.3h-18.2c-1.7,0-3,1.3-3,3V195c0,1.7,1.3,3,3,3h18.2c1.7,0,3-1.3,3-3v-14.8
	C842.9,178.6,841.6,177.3,839.9,177.3z"/>
<path class="st178" d="M839.9,97.7v20.8c-4.5-4.8-10.7-7.3-17.3-6.9h-6.9v17.3h3.5c11.4,0,20.8,9.3,20.8,20.8v58.8
	c0-17.3,6.9-27.7,20.8-38.1V97.7H839.9z"/>
<linearGradient id="SVGID_104_" gradientUnits="userSpaceOnUse" x1="1004.7247" y1="614.2241" x2="909.7247" y2="671.7241" gradientTransform="matrix(1 0 0 -1 0 895.3203)">
	<stop  offset="0" style="stop-color:#A13D32"/>
	<stop  offset="1" style="stop-color:#D06255;stop-opacity:0.18"/>
</linearGradient>
<path class="st179" d="M991.9,223.7l-31.2-38.4c-25.3,40.5-71,60.6-105.9,70.6c11.8,13.8,29.1,21.8,47.4,21.8h63.7
	c18.3,0,33.2-14.9,33.2-33.2C999.1,236.8,996.4,229.5,991.9,223.7z"/>
<linearGradient id="SVGID_105_" gradientUnits="userSpaceOnUse" x1="849.6257" y1="735.2682" x2="942.6307" y2="664.7682" gradientTransform="matrix(1 0 0 -1 0 895.3203)">
	<stop  offset="0" style="stop-color:#567FEA"/>
	<stop  offset="1" style="stop-color:#6B56EA;stop-opacity:0.29"/>
</linearGradient>
<path class="st180" d="M955.5,218.8l-46.7-46.7c-3.1-3.5-7.6-5.2-12.1-5.2l8-8l-4.8-4.8L887,166.9h-26.3v3.5c-1.4,1-3.1,2.4-4.2,3.5
	h16.6l18,18l4.8-4.8l-13.2-13.2h13.5c2.8,0,5.5,1,7.3,3.1l15.9,15.9l-25.3,25.3l4.8,4.8l13.2-13.2v18l-12.8,12.8l4.8,4.8l11.4-11.4
	l11.4,11.4l4.8-4.8l-12.5-12.8v-24.9l5.2-5.2l26,26V243h6.9v-17.3h13.8v-6.9H955.5z"/>
<linearGradient id="SVGID_106_" gradientUnits="userSpaceOnUse" x1="1265.1698" y1="831.6602" x2="1265.1698" y2="664.6602" gradientTransform="matrix(1 0 0 -1 0 895.3203)">
	<stop  offset="1.379310e-02" style="stop-color:#BACDFF"/>
	<stop  offset="1" style="stop-color:#567FEA"/>
</linearGradient>
<path class="st181" d="M1193.2,63.7h144c6.4,0,11.5,5.2,11.5,11.5v144c0,6.4-5.2,11.5-11.5,11.5h-144c-6.4,0-11.5-5.2-11.5-11.5
	v-144C1181.7,68.8,1186.8,63.7,1193.2,63.7z"/>
<path class="st146" d="M1190.3,230.3c0.9,0.3,1.9,0.4,2.9,0.4h144c6.4,0,11.5-5.2,11.5-11.5v-144c0-1-0.2-1.9-0.4-2.9
	C1296.8,163.9,1230.2,209.6,1190.3,230.3z"/>
<linearGradient id="SVGID_107_" gradientUnits="userSpaceOnUse" x1="1196.4709" y1="860.1687" x2="1277.0909" y2="747.2995" gradientTransform="matrix(1 0 0 -1 0 895.3203)">
	<stop  offset="0" style="stop-color:#FFFFFF"/>
	<stop  offset="1" style="stop-color:#E1E9FF"/>
</linearGradient>
<path class="st182" d="M1322.7,75.2h-115.2c-6.4,0-11.5,5.2-11.5,11.5V176c0,6.4,5.2,11.5,11.5,11.5h115.2c6.4,0,11.5-5.2,11.5-11.5
	V86.7C1334.3,80.3,1329.1,75.2,1322.7,75.2z"/>
<linearGradient id="SVGID_108_" gradientUnits="userSpaceOnUse" x1="1278.4387" y1="793.2318" x2="1350.9987" y2="790.3528" gradientTransform="matrix(1 0 0 -1 0 895.3203)">
	<stop  offset="0" style="stop-color:#D97272"/>
	<stop  offset="1" style="stop-color:#E88080"/>
</linearGradient>
<path class="st183" d="M1282.4,87.7c4.9-4.9,12.7-4.9,17.6,0c4.9-4.9,12.7-4.9,17.6,0c4.2,4.2,4.8,10.8,1.6,15.6h-13.9
	c-0.4,0-0.7,0.2-0.8,0.6l-1.9,5.2l-4.1-14.7c-0.1-0.4-0.4-0.6-0.8-0.6c-0.4,0-0.7,0.2-0.9,0.6l-3.6,9.1h-12.4
	C1277.6,98.5,1278.2,91.9,1282.4,87.7z M1282.2,105.1c0.1,0.1,0.2,0.2,0.2,0.2c0,0,0.1,0.1,0.1,0.1l16.2,16.3c0.7,0.7,1.8,0.7,2.5,0
	l16.4-16.4v0c0.1-0.1,0.2-0.2,0.2-0.2h-11.9l-2.7,7.1c-0.1,0.4-0.5,0.6-0.9,0.6c-0.4,0-0.7-0.3-0.8-0.6l-4.1-14.8l-2.9,7.2
	c-0.1,0.3-0.5,0.6-0.8,0.6H1282.2z"/>
<path class="st184" d="M1322.7,219.1c4.8,0,8.6-3.9,8.6-8.6s-3.9-8.6-8.6-8.6s-8.6,3.9-8.6,8.6S1318,219.1,1322.7,219.1z"/>
<path class="st184" d="M1216.2,204.7h-17.3v11.5h17.3V204.7z"/>
<path class="st184" d="M1245,204.7h-17.3v11.5h17.3V204.7z"/>
<path class="st184" d="M1273.8,204.7h-17.3v11.5h17.3V204.7z"/>
<path class="st185" d="M1299.1,204.7h-10.4c-1.9,0-3.5,1.5-3.5,3.5v4.6c0,1.9,1.6,3.5,3.5,3.5h10.4c1.9,0,3.5-1.5,3.5-3.5v-4.6
	C1302.6,206.3,1301,204.7,1299.1,204.7z"/>
<linearGradient id="SVGID_109_" gradientUnits="userSpaceOnUse" x1="1194.8636" y1="762.4446" x2="1352.8536" y2="762.6547" gradientTransform="matrix(1 0 0 -1 0 895.3203)">
	<stop  offset="1.248310e-02" style="stop-color:#C86767"/>
	<stop  offset="1" style="stop-color:#FBAEAE"/>
</linearGradient>
<path class="st186" d="M1279.6,161.6c-1.2,0-2.3-0.9-2.7-2.1l-12-42.8l-8.6,25.6c-0.4,1.1-1.3,1.8-2.5,2c-1.2,0.2-2.3-0.4-2.9-1.4
	l-8.8-15.5l-3.4,6.7c-0.4,0.9-1.3,1.5-2.4,1.6h-31.7v-5.8h29.9l5-9.9c0.5-1,1.5-1.6,2.6-1.6c1.1,0,2.1,0.5,2.6,1.4l8.3,14.6
	l9.5-28.4c0.4-1.1,1.4-1.9,2.7-2c1.2,0,2.3,0.9,2.7,2.1l11.9,42.8l5.8-17c0.4-1.2,1.5-1.9,2.7-2h37.4v5.8h-35.4l-7.8,24
	C1282,160.8,1280.8,161.6,1279.6,161.6z"/>
<path class="st187" d="M1224.9,104h-17.3c-1.6,0-2.9,1.3-2.9,2.9c0,1.6,1.3,2.9,2.9,2.9h17.3c1.6,0,2.9-1.3,2.9-2.9
	C1227.7,105.3,1226.4,104,1224.9,104z"/>
<path class="st187" d="M1219.1,115.5h-11.5c-1.6,0-2.9,1.3-2.9,2.9s1.3,2.9,2.9,2.9h11.5c1.6,0,2.9-1.3,2.9-2.9
	S1220.7,115.5,1219.1,115.5z"/>
<path class="st157" d="M1208.1,170.2h-1.2c-1.3,0-2.3,1-2.3,2.3v6.9c0,1.3,1,2.3,2.3,2.3h1.2c1.3,0,2.3-1,2.3-2.3v-6.9
	C1210.5,171.2,1209.4,170.2,1208.1,170.2z"/>
<path class="st157" d="M1265.7,170.2h-1.2c-1.3,0-2.3,1-2.3,2.3v6.9c0,1.3,1,2.3,2.3,2.3h1.2c1.3,0,2.3-1,2.3-2.3v-6.9
	C1268,171.2,1267,170.2,1265.7,170.2z"/>
<path class="st157" d="M1323.3,170.2h-1.1c-1.3,0-2.3,1-2.3,2.3v6.9c0,1.3,1,2.3,2.3,2.3h1.1c1.3,0,2.3-1,2.3-2.3v-6.9
	C1325.6,171.2,1324.6,170.2,1323.3,170.2z"/>
<path class="st157" d="M1222.5,176h-1.2c-1.3,0-2.3,1-2.3,2.3v1.2c0,1.3,1,2.3,2.3,2.3h1.2c1.3,0,2.3-1,2.3-2.3v-1.2
	C1224.9,177,1223.8,176,1222.5,176z"/>
<path class="st157" d="M1236.9,170.2h-1.1c-1.3,0-2.3,1-2.3,2.3v6.9c0,1.3,1,2.3,2.3,2.3h1.1c1.3,0,2.3-1,2.3-2.3v-6.9
	C1239.2,171.2,1238.2,170.2,1236.9,170.2z"/>
<path class="st157" d="M1294.5,170.2h-1.2c-1.3,0-2.3,1-2.3,2.3v6.9c0,1.3,1,2.3,2.3,2.3h1.2c1.3,0,2.3-1,2.3-2.3v-6.9
	C1296.8,171.2,1295.8,170.2,1294.5,170.2z"/>
<path class="st157" d="M1251.3,176h-1.1c-1.3,0-2.3,1-2.3,2.3v1.2c0,1.3,1,2.3,2.3,2.3h1.1c1.3,0,2.3-1,2.3-2.3v-1.2
	C1253.6,177,1252.6,176,1251.3,176z"/>
<path class="st157" d="M1280.1,176h-1.2c-1.3,0-2.3,1-2.3,2.3v1.2c0,1.3,1,2.3,2.3,2.3h1.2c1.3,0,2.3-1,2.3-2.3v-1.2
	C1282.4,177,1281.4,176,1280.1,176z"/>
<path class="st157" d="M1308.9,176h-1.2c-1.3,0-2.3,1-2.3,2.3v1.2c0,1.3,1,2.3,2.3,2.3h1.2c1.3,0,2.3-1,2.3-2.3v-1.2
	C1311.2,177,1310.2,176,1308.9,176z"/>
<linearGradient id="SVGID_110_" gradientUnits="userSpaceOnUse" x1="542.9797" y1="773.1387" x2="645.5447" y2="850.4727" gradientTransform="matrix(1 0 0 -1 0 895.3203)">
	<stop  offset="0" style="stop-color:#E7C2A7"/>
	<stop  offset="1" style="stop-color:#E29696"/>
</linearGradient>
<circle class="st188" cx="576.2" cy="97.2" r="43.5"/>
<defs>
	<filter id="Adobe_OpacityMaskFilter_9_" filterUnits="userSpaceOnUse" x="550" y="73" width="53.5" height="48">
		<feColorMatrix  type="matrix" values="1 0 0 0 0  0 1 0 0 0  0 0 1 0 0  0 0 0 1 0"/>
	</filter>
</defs>
<mask maskUnits="userSpaceOnUse" x="550" y="73" width="53.5" height="48" id="mask9_1_">
	<rect x="549.6" y="70.6" class="st189" width="54.4" height="54.4"/>
</mask>
<g class="st190">
	<path class="st168" d="M554.6,77.6c6.1-6.1,16-6.1,22.1,0c6.1-6.1,16-6.1,22.1,0c5.3,5.3,6,13.6,2,19.6h-17.5c-0.5,0-0.9,0.3-1,0.7
		l-2.4,6.5L574.8,86c-0.1-0.5-0.5-0.8-1-0.8s-0.9,0.3-1.1,0.7l-4.6,11.4h-15.6C548.6,91.2,549.3,83,554.6,77.6z M554.3,99.5
		c0.1,0.1,0.2,0.2,0.3,0.3c0,0,0.1,0.1,0.1,0.1l20.4,20.4c0.9,0.9,2.3,0.9,3.1,0l20.6-20.6l0,0c0.1-0.1,0.2-0.2,0.3-0.3h-15
		l-3.4,8.9c-0.2,0.4-0.6,0.7-1.1,0.7c-0.5,0-0.9-0.3-1-0.8l-5.2-18.6l-3.6,9c-0.2,0.4-0.6,0.7-1,0.7H554.3z"/>
</g>
<linearGradient id="SVGID_111_" gradientUnits="userSpaceOnUse" x1="454.5031" y1="78.994" x2="17.707" y2="84.5491" gradientTransform="matrix(1 0 0 -1 0 895.3203)">
	<stop  offset="0" style="stop-color:#FFFFFF;stop-opacity:0.45"/>
	<stop  offset="1" style="stop-color:#FFFFFF;stop-opacity:0"/>
</linearGradient>
<path class="st191" d="M435.2,805.7C313,765.8,153,766.4,88.3,771.7c-40.7,7.7-11.1,14.7,8.8,17.2c43.8,8.7-131.8,27.7-225.1,36.1
	c-90.4,3-55.4,11.9-26.7,16c262.2,22.6,489.6,15.4,570.5,9.1C503.9,840.2,465.4,816.3,435.2,805.7z"/>
<linearGradient id="SVGID_112_" gradientUnits="userSpaceOnUse" x1="227.9802" y1="54.7658" x2="238.4402" y2="123.1978" gradientTransform="matrix(1 0 0 -1 0 895.3203)">
	<stop  offset="0" style="stop-color:#81DCCE"/>
	<stop  offset="1" style="stop-color:#A9E5DA"/>
</linearGradient>
<path class="st192" d="M212.4,823.3l-7.7-65.6h72l-10.3,65.6C241.7,830.5,220.1,826.3,212.4,823.3z"/>
<ellipse class="st193" cx="240.6" cy="759" rx="36" ry="10.3"/>
<defs>
	<filter id="Adobe_OpacityMaskFilter_10_" filterUnits="userSpaceOnUse" x="204.6" y="759" width="72" height="20.6">
		<feColorMatrix  type="matrix" values="1 0 0 0 0  0 1 0 0 0  0 0 1 0 0  0 0 0 1 0"/>
	</filter>
</defs>
<mask maskUnits="userSpaceOnUse" x="204.6" y="759" width="72" height="20.6" id="mask10_1_">
	<ellipse class="st194" cx="240.6" cy="759" rx="36" ry="10.3"/>
</mask>
<g class="st195">
	<ellipse class="st196" cx="240.6" cy="769.3" rx="36" ry="10.3"/>
</g>
<linearGradient id="SVGID_113_" gradientUnits="userSpaceOnUse" x1="365.7494" y1="272.0768" x2="343.9624" y2="177.4568" gradientTransform="matrix(1 0 0 -1 0 895.3203)">
	<stop  offset="0" style="stop-color:#94FFF9"/>
	<stop  offset="0.9831" style="stop-color:#5665EA"/>
</linearGradient>
<path class="st197" d="M280.2,699.6c-36.3,23.6-37.7,57.1-34.1,65.5h2.5c-3.6-15.4,10.5-43.4,18.2-50.1c7.4-8.3,28.7-9.4,38.4-9
	c19.4-0.3,46.8-13.8,58-20.5l82.5-49.9c36.4-22.7-25.8-16.4-61.5-10.4c-69.7,15.3-88.6,40.2-89.4,50.7
	C291.6,687.4,283.8,696.5,280.2,699.6z"/>
<linearGradient id="SVGID_114_" gradientUnits="userSpaceOnUse" x1="383.3083" y1="200.6653" x2="427.7513" y2="294.1984" gradientTransform="matrix(1 0 0 -1 0 895.3203)">
	<stop  offset="0" style="stop-color:#366BF6"/>
	<stop  offset="1" style="stop-color:#0FA5AF"/>
</linearGradient>
<path class="st198" d="M380.4,657.6c-8.3,8.4-25.4,28.4-32.9,37.4c7.8-4.6,69.9-41.9,99.9-60C414.7,633,389.1,649.2,380.4,657.6z"/>
<linearGradient id="SVGID_115_" gradientUnits="userSpaceOnUse" x1="219.842" y1="231.6562" x2="403.086" y2="327.0782" gradientTransform="matrix(1 0 0 -1 0 895.3203)">
	<stop  offset="0" style="stop-color:#A6BFFF"/>
	<stop  offset="1" style="stop-color:#4CD8E1"/>
</linearGradient>
<path class="st199" d="M237.8,680c-8.6,22.3-2.7,71.6,0.5,86.3l-3.4,0.4c-7.7-27-6.9-64.7-4.8-73.1c2-6.7-0.3-12.7-1.7-14.9
	c-18.6-41.5-5.9-62.4,2.8-67.6c10.3-7.7,10.4-17.8,9.1-21.9c-2.3-28.5,20.2-43.7,31.7-47.7c8.7-4.7,13.8-14.7,15.2-19.1
	c4.8-15.4,26.4-16.1,36.6-14.6C301.5,531.7,257.1,632.6,237.8,680z"/>
<linearGradient id="SVGID_116_" gradientUnits="userSpaceOnUse" x1="306.822" y1="349.8201" x2="253.557" y2="281.1951" gradientTransform="matrix(1 0 0 -1 0 895.3203)">
	<stop  offset="0" style="stop-color:#5AD3CC;stop-opacity:0.76"/>
	<stop  offset="0.9831" style="stop-color:#5665EA"/>
</linearGradient>
<path class="st200" d="M274.8,559.3c1.9-25.4,25.6-37.5,37.2-40.4c-23.4,50-70.4,150-71.3,150.1c-8.7-21.1,13.5-61.8,25.7-79.4
	C270.3,584.5,273.6,567.3,274.8,559.3z"/>
<linearGradient id="SVGID_117_" gradientUnits="userSpaceOnUse" x1="1228.965" y1="223.9177" x2="1250.0449" y2="63.2457" gradientTransform="matrix(1 0 0 -1 0 895.3203)">
	<stop  offset="0" style="stop-color:#96FFF9"/>
	<stop  offset="0.9831" style="stop-color:#5665EA"/>
</linearGradient>
<path class="st201" d="M1358.8,811.9c56.5,45,53,95.7,45.5,109.2l-3.8-0.8c8.4-25-10.3-68.3-22.1-80.6c-11-14.9-46.2-20.3-62.4-21.1
	c-32.2-3.7-75.5-30.4-93.1-43.3l-129.1-96.2c-56.9-43.5,45.5-23.1,103.8-7.5c113.4,36.6,140.8,80.9,140.4,98.5
	C1341.8,789.9,1353.5,806.2,1358.8,811.9z"/>
<linearGradient id="SVGID_118_" gradientUnits="userSpaceOnUse" x1="1188.3595" y1="108.0854" x2="1129.4695" y2="270.5734" gradientTransform="matrix(1 0 0 -1 0 895.3203)">
	<stop  offset="0" style="stop-color:#366BF6"/>
	<stop  offset="1" style="stop-color:#0FA5AF"/>
</linearGradient>
<path class="st202" d="M1199.2,726.1c12.5,15.2,37.7,51.2,48.7,67.3c-12.3-8.9-109.4-80.8-156.4-115.7
	C1146,679.8,1186,710.8,1199.2,726.1z"/>
<linearGradient id="SVGID_119_" gradientUnits="userSpaceOnUse" x1="1337.0999" y1="187.2472" x2="1067.9998" y2="264.3592" gradientTransform="matrix(1 0 0 -1 0 895.3203)">
	<stop  offset="0" style="stop-color:#A6BFFF"/>
	<stop  offset="1" style="stop-color:#4CD8E1"/>
</linearGradient>
<path class="st203" d="M1317.7,734.6c17.5,27.3,23,94.4,22.7,114.8l4.7-0.4c2.9-37.9-8.3-87.8-13.4-98.3c-4.5-8.4-3.1-17-1.8-20.2
	c13.5-60.1-9-84.4-22-89c-15.7-7.4-18.6-20.8-18-26.6c-4.7-38.5-38.6-52.5-55-54.7c-12.9-3.9-22.3-15.8-25.4-21.3
	c-10.5-19.1-39.4-14.3-52.6-9.5C1193,555,1279.2,676.9,1317.7,734.6z"/>
<linearGradient id="SVGID_120_" gradientUnits="userSpaceOnUse" x1="1189.6592" y1="320.5938" x2="1278.9392" y2="243.8947" gradientTransform="matrix(1 0 0 -1 0 895.3203)">
	<stop  offset="0" style="stop-color:#5AD3CC;stop-opacity:0.76"/>
	<stop  offset="0.9831" style="stop-color:#5665EA"/>
</linearGradient>
<path class="st204" d="M1235.9,584.4c-9.4-33.3-44.1-42.9-60.3-43.5c44.6,60,134.1,180.1,135.3,180c5.8-30.4-34.7-78.3-55.6-98.5
	C1248.7,616.6,1239.7,594.6,1235.9,584.4z"/>
</svg>
