<svg width="65" height="65" viewBox="0 0 65 65" fill="none" xmlns="http://www.w3.org/2000/svg">
<mask id="mask0" mask-type="alpha" maskUnits="userSpaceOnUse" x="0" y="0" width="65" height="65">
<rect width="65" height="65" fill="#C4C4C4"/>
</mask>
<g mask="url(#mask0)">
<path fill-rule="evenodd" clip-rule="evenodd" d="M26.7874 5.26259C23.9627 5.26259 21.6447 7.5395 21.6447 10.3423C21.6447 13.1624 23.9394 15.4451 26.7874 15.4451C29.6063 15.4451 31.9069 13.1624 31.9069 10.3423C31.9069 7.5395 29.6063 5.26259 26.7874 5.26259Z" fill="#F0DDBA"/>
<path fill-rule="evenodd" clip-rule="evenodd" d="M32.0202 35.2483L32.3529 24.2636L38.5184 37.94C38.7823 38.5254 39.482 38.8181 40.0613 38.5713C40.6864 38.3015 40.956 37.6071 40.7094 36.9988C40.7094 36.9988 36.3677 23.4142 35.1346 20.8833C33.8785 18.3466 31.9743 16.8028 27.2713 16.8028H26.2848C21.5761 16.8028 19.6719 18.3466 18.4216 20.8833C17.1885 23.4142 12.841 36.9988 12.841 36.9988C12.5944 37.6071 12.864 38.3015 13.4662 38.5713C14.0742 38.8181 14.7911 38.5254 15.0148 37.94L21.1975 24.2636L21.5359 35.2483L20.5724 62.8708C20.5035 63.967 21.3122 64.9082 22.4077 65C22.4536 65 22.4995 65 22.5396 65C23.572 65 24.4438 64.1908 24.5355 63.1635L26.7781 40.4078L29.0378 63.1635C29.0837 64.2137 29.9784 65 30.9879 65C31.0567 65 31.1026 65 31.1427 65C32.2439 64.9082 33.0469 63.967 32.9838 62.8708L31.9973 35.2483H32.0202Z" fill="#567FEA"/>
<path d="M48.3541 22.9159C48.3541 34.7636 38.7525 44.3674 26.9092 44.3674C15.0659 44.3674 5.46433 34.7636 5.46433 22.9159C5.46433 11.0681 15.0659 1.46433 26.9092 1.46433C38.7525 1.46433 48.3541 11.0681 48.3541 22.9159Z" fill="white" fill-opacity="0.2" stroke="#5AD3C0" stroke-width="2.92866"/>
<rect width="25.4067" height="2.86408" rx="1.43204" transform="matrix(0.716632 0.697451 -0.697242 0.716835 41.7927 37.2383)" fill="#5AD3C0"/>
</g>
</svg>
