<svg width="16" height="19" viewBox="0 0 16 19" fill="none" xmlns="http://www.w3.org/2000/svg">
<rect width="16" height="19" rx="2" fill="#567FEA"/>
<path d="M12.4609 15.9375C12.4609 16.2609 12.1984 16.5234 11.875 16.5234H3.125C2.80156 16.5234 2.53906 16.2609 2.53906 15.9375C2.53906 15.6141 2.80156 15.3516 3.125 15.3516H11.875C12.1984 15.3516 12.4609 15.6141 12.4609 15.9375Z" fill="white"/>
<path d="M5 13.0859H3.125C2.80141 13.0859 2.53906 12.8236 2.53906 12.5C2.53906 12.1764 2.80141 11.9141 3.125 11.9141H5C5.32359 11.9141 5.58594 12.1764 5.58594 12.5C5.58594 12.8236 5.32359 13.0859 5 13.0859Z" fill="white"/>
<path d="M5 10.5859H3.125C2.80141 10.5859 2.53906 10.3236 2.53906 10C2.53906 9.67641 2.80141 9.41406 3.125 9.41406H5C5.32359 9.41406 5.58594 9.67641 5.58594 10C5.58594 10.3236 5.32359 10.5859 5 10.5859Z" fill="white"/>
<path d="M12.4609 6.5625C12.4609 6.88594 12.1984 7.14844 11.875 7.14844H3.125C2.80156 7.14844 2.53906 6.88594 2.53906 6.5625C2.53906 6.23906 2.80156 5.97656 3.125 5.97656H11.875C12.1984 5.97656 12.4609 6.23906 12.4609 6.5625Z" fill="white"/>
<path d="M12.4609 4.0625C12.4609 4.38594 12.1984 4.64844 11.875 4.64844H3.125C2.80156 4.64844 2.53906 4.38594 2.53906 4.0625C2.53906 3.73906 2.80156 3.47656 3.125 3.47656H11.875C12.1984 3.47656 12.4609 3.73906 12.4609 4.0625Z" fill="white"/>
<path d="M12.4219 9.0625V13.4375C12.4219 13.7609 12.1594 14.0234 11.8359 14.0234H7.46094C7.1375 14.0234 6.875 13.7609 6.875 13.4375V9.0625C6.875 8.73906 7.1375 8.47656 7.46094 8.47656H11.8359C12.1594 8.47656 12.4219 8.73906 12.4219 9.0625Z" fill="white"/>
</svg>
