<svg width="20" height="20" viewBox="0 0 20 20" fill="none" xmlns="http://www.w3.org/2000/svg">
<circle cx="10" cy="10" r="10" fill="#ED4C4C"/>
<path d="M10.5543 5.33333H9.44314C8.89086 5.33333 8.44314 5.78104 8.44314 6.33333V8.44444H6.33203C5.77975 8.44444 5.33203 8.89215 5.33203 9.44444V10.5556C5.33203 11.1078 5.77975 11.5556 6.33203 11.5556H8.44314V13.6667C8.44314 14.2189 8.89086 14.6667 9.44314 14.6667H10.5543C11.1065 14.6667 11.5543 14.2189 11.5543 13.6667V11.5556H13.6654C14.2176 11.5556 14.6654 11.1078 14.6654 10.5556V9.44444C14.6654 8.89215 14.2176 8.44444 13.6654 8.44444H11.5543V6.33333C11.5543 5.78104 11.1065 5.33333 10.5543 5.33333Z" fill="white"/>
</svg>
