<svg width="23" height="20" viewBox="0 0 23 20" fill="none" xmlns="http://www.w3.org/2000/svg">
<path d="M21.4231 16.1738C21.4326 16.1348 21.4496 16.1022 21.4496 16.0611V13.3438C21.4496 11.1529 19.4891 9.37101 17.0775 9.37101C14.666 9.37101 12.7057 11.1529 12.7057 13.3438L12.7081 15.7225C12.7081 17.3329 11.2994 18.6438 9.56961 18.6438C7.84001 18.6438 6.43251 17.3329 6.43251 15.7225V10.201C9.50148 9.99523 11.934 7.82844 11.934 5.16464V0.525124C11.934 0.23549 11.6572 0 11.3168 0H9.36216C9.02171 0 8.7449 0.23549 8.7449 0.525124C8.7449 0.814931 9.02171 1.05025 9.36216 1.05025H10.6993V5.16447C10.6993 7.38367 8.57661 9.19054 5.96681 9.19054C3.35639 9.19054 1.23432 7.38367 1.23432 5.16447V1.05042H2.67508C3.01553 1.05042 3.29234 0.815105 3.29234 0.525297C3.29254 0.23549 3.01594 0 2.67528 0H0.617263C0.276606 0 0 0.23549 0 0.525124V5.16447C0 7.73907 2.27282 9.84911 5.19778 10.1747V15.7225C5.19778 17.9136 7.15829 19.6942 9.56961 19.6942C11.9809 19.6942 13.9427 17.9136 13.9427 15.7225L13.9404 13.3438C13.9404 11.7323 15.3488 10.4214 17.0777 10.4214C18.8067 10.4214 20.2151 11.7323 20.2151 13.3438V16.0609C20.2151 16.0775 20.2222 16.0857 20.2246 16.0999C19.1662 16.2806 18.3655 17.0787 18.3655 18.0305C18.3655 19.1167 19.4024 20 20.6805 20C21.9563 20 22.9956 19.1167 22.9956 18.0305C22.9952 17.1667 22.3345 16.4385 21.4231 16.1738ZM20.6814 18.9496C20.0869 18.9496 19.6011 18.5352 19.6011 18.0305C19.6011 17.5259 20.0869 17.1113 20.6814 17.1113C21.2758 17.1113 21.7617 17.5259 21.7617 18.0305C21.7617 18.5352 21.276 18.9496 20.6814 18.9496Z" fill="#567FEA"/>
</svg>
