<svg width="327" height="189" viewBox="0 0 327 189" fill="none" xmlns="http://www.w3.org/2000/svg" preserveAspectRatio="none">
<mask id="mask0" mask-type="alpha" maskUnits="userSpaceOnUse" x="0" y="0" width="327" height="189">
<rect width="327" height="189" fill="white"/>
</mask>
<g mask="url(#mask0)">
<path d="M74.5421 21.8393C34.1999 13.5499 -11.4633 7.78487 -37.15 47.8218L-25.2247 224.964L343.242 223.849L343.087 58.3271L275.768 28.224C252.4 32.7553 198.699 50.9932 166.029 47.2066C117.026 41.5268 124.857 32.1778 74.5421 21.8393Z" fill="#E6F6FF"/>
<path d="M79.4853 37.2454C15.5302 8.81008 -4.25019 13.4838 -18.3841 20.7818L-18.2235 192.549L343.213 191.454L343.054 21.2114C329.337 3.90373 282.374 14.9258 226.942 39.8208C150.637 69.7243 109.52 54.0235 79.4853 37.2454Z" fill="url(#paint0_linear)"/>
<path opacity="0.1" d="M339.573 182.607C342.958 180.488 342.616 175.452 338.975 173.81L296.21 154.53C294.686 153.843 292.92 153.963 291.503 154.85L256.665 176.655C253.28 178.774 253.622 183.81 257.262 185.452L300.027 204.732C301.551 205.419 303.318 205.299 304.735 204.412L339.573 182.607Z" fill="white"/>
<path opacity="0.2" d="M363.428 137.413C366.813 135.295 366.471 130.258 362.831 128.617L320.066 109.337C318.542 108.65 316.775 108.77 315.358 109.657L280.52 131.462C277.135 133.581 277.477 138.617 281.118 140.258L323.883 159.538C325.407 160.225 327.173 160.105 328.591 159.218L363.428 137.413Z" fill="white"/>
<path opacity="0.2" d="M77.9205 187.424C81.3056 185.305 80.9634 180.269 77.3228 178.628L35.7724 159.895C34.2483 159.208 32.4818 159.328 31.0647 160.215L-2.75527 181.383C-6.14037 183.501 -5.79814 188.538 -2.15755 190.179L39.3929 208.912C40.9169 209.599 42.6835 209.479 44.1006 208.592L77.9205 187.424Z" fill="white"/>
<rect x="292.582" y="46" width="5.83333" height="21.0091" rx="2.91667" fill="#4CE1C6"/>
<rect x="285" y="59.4225" width="5.83587" height="21" rx="2.91793" transform="rotate(-90 285 59.4225)" fill="#4CE1C6"/>
</g>
<defs>
<linearGradient id="paint0_linear" x1="281.289" y1="-185.13" x2="397" y2="100.492" gradientUnits="userSpaceOnUse">
<stop stop-color="#7EEFFF" stop-opacity="0.41"/>
<stop offset="1" stop-color="#5079E4"/>
</linearGradient>
</defs>
</svg>
