<svg width="20" height="20" viewBox="0 0 20 20" fill="none" xmlns="http://www.w3.org/2000/svg">
<mask id="mask0" mask-type="alpha" maskUnits="userSpaceOnUse" x="0" y="0" width="20" height="20">
<rect width="20" height="20" fill="#C4C4C4"/>
</mask>
<g mask="url(#mask0)">
<rect x="2" width="16" height="20" rx="2.06" fill="#4CE1C6"/>
<path fill-rule="evenodd" clip-rule="evenodd" d="M9.83232 3.83827C9.92481 3.83827 10.0146 3.84945 10.101 3.86995C10.1088 3.87005 10.1162 3.87016 10.1223 3.87016V3.68047H7.91704C7.87214 3.74549 7.83045 3.8129 7.79217 3.88248H9.51576C9.61632 3.8539 9.72246 3.83827 9.83232 3.83827ZM6.68573 6.115C6.67166 6.11946 6.65241 6.12277 6.62955 6.12556C6.53417 6.15083 6.43393 6.1645 6.33058 6.1645C6.23075 6.1645 6.13382 6.15197 6.04123 6.12826C6.03854 6.12826 6.03533 6.12815 6.03295 6.12815L6.00781 6.31711H8.26459C8.30907 6.25188 8.35066 6.18469 8.38852 6.115H6.68573ZM7.38922 5.50898H8.61501C8.6298 5.44271 8.6417 5.37541 8.6506 5.30697H7.46474C7.44571 5.37727 7.42036 5.44488 7.38922 5.50898ZM7.56254 4.48827C7.54754 4.55474 7.53543 4.62204 7.52623 4.69038H8.71332C8.73277 4.62008 8.75863 4.55257 8.79029 4.48827H7.56254ZM8.88892 2.87244C8.76157 2.92928 8.64012 2.99668 8.52602 3.07434H9.83663V2.87244H8.88892ZM8.26933 3.27634C8.19981 3.33949 8.13464 3.40721 8.07329 3.47834H9.83619V3.27634H8.26933ZM7.66051 6.92304H6.33965V7.12505H7.3034C7.42878 7.06799 7.54827 7.00049 7.66051 6.92304ZM7.69371 4.08437C7.66547 4.15012 7.64043 4.21752 7.61819 4.28638H8.91805C8.97681 4.211 9.04467 4.14318 9.11988 4.08437H7.69371ZM7.26433 5.7111C7.20661 5.78617 7.13988 5.85399 7.06591 5.91311H8.48619C8.51412 5.84726 8.53884 5.77986 8.56088 5.7111H7.26433ZM8.1085 6.51914C8.04757 6.59027 7.9826 6.65788 7.91371 6.72115H6.33919L6.26191 6.51914H8.1085Z" fill="white"/>
<path fill-rule="evenodd" clip-rule="evenodd" d="M9.83276 2.66663C9.52137 2.66663 9.22436 2.72782 8.95291 2.83871C9.44627 3.03989 9.85541 3.40518 10.1123 3.86728C10.6209 3.99267 10.9983 4.45208 10.9983 5.00001C10.9983 5.64424 10.4765 6.1667 9.83276 6.1667C9.18898 6.1667 8.66708 5.64424 8.66708 5.00001H8.66252C8.66252 3.71135 7.61881 2.66663 6.33137 2.66663C5.04382 2.66663 4 3.71135 4 5.00001C4 6.28867 5.04382 7.33329 6.33137 7.33329C6.63965 7.33329 6.93376 7.27314 7.20325 7.16442C6.70451 6.96314 6.29133 6.59474 6.03322 6.12819C5.53386 5.99617 5.16558 5.54132 5.16558 5.00001C5.16558 4.35568 5.68749 3.83322 6.33137 3.83322C6.97504 3.83322 7.49694 4.35568 7.49694 5.00001H7.5015C7.5015 6.28867 8.54531 7.33329 9.83276 7.33329C11.1202 7.33329 12.164 6.28867 12.164 5.00001C12.164 3.71135 11.1202 2.66663 9.83276 2.66663Z" fill="white"/>
<rect x="8" y="15" width="8" height="1.5" rx="0.75" fill="white"/>
<rect x="10" y="11" width="6" height="1.5" rx="0.75" fill="white"/>
</g>
</svg>
