<svg width="20" height="20" viewBox="0 0 20 20" fill="none" xmlns="http://www.w3.org/2000/svg">
<path fill-rule="evenodd" clip-rule="evenodd" d="M2.26562 8.76284L9.99757 1.13391L17.7295 8.76284V19.7937H12.6782V13.6083H7.42047V19.7937H2.26562V8.76284Z" fill="#567FEA"/>
<path d="M19.6907 9.17524L10.8248 0.309302C10.4124 -0.103101 9.69077 -0.103101 9.17524 0.309302L0.309302 9.17524C-0.103101 9.58765 -0.103101 10.3092 0.309302 10.8248C0.721705 11.2372 1.44329 11.2372 1.95882 10.8248L10 2.6804L18.0413 10.7216C18.2474 10.9278 18.5567 11.0309 18.866 11.0309C19.1753 11.0309 19.4845 10.9278 19.6907 10.7216C20.1031 10.3093 20.1031 9.58765 19.6907 9.17524Z" fill="#567FEA"/>
</svg>
